{"glyphs":{"0":{"ha":833,"x_min":100,"x_max":730,"o":"m 415 975 q 649 845 567 975 q 730 478 730 714 q 651 116 730 250 q 415 -18 572 -18 q 182 112 264 -18 q 100 478 100 242 q 179 841 100 707 q 415 975 259 975 m 415 79 q 564 175 515 79 q 612 478 612 270 q 564 782 612 687 q 415 876 515 876 q 267 779 316 876 q 218 478 218 682 q 267 175 218 271 q 415 79 315 79 m 412 580 q 485 550 455 580 q 514 478 514 521 q 484 402 514 434 q 412 371 454 371 q 341 402 371 371 q 312 478 312 434 q 341 551 312 522 q 412 580 370 580 z "},"1":{"ha":833,"x_min":187,"x_max":690,"o":"m 690 0 l 187 0 l 187 97 l 390 97 l 390 840 l 199 745 l 199 856 l 406 962 l 501 962 l 501 97 l 690 97 l 690 0 z "},"2":{"ha":833,"x_min":139,"x_max":665,"o":"m 665 0 l 139 0 l 139 81 q 399 380 339 304 q 496 539 458 456 q 533 705 533 623 q 485 831 533 785 q 349 878 436 878 q 168 836 281 878 l 153 932 q 367 975 255 975 q 573 903 495 975 q 652 710 652 831 q 611 539 652 624 q 508 376 571 454 q 262 97 445 298 l 665 97 l 665 0 z "},"3":{"ha":833,"x_min":135,"x_max":669,"o":"m 476 514 q 616 425 564 490 q 669 279 669 360 q 571 67 669 153 q 339 -18 473 -18 q 135 32 225 -18 l 157 123 q 343 79 251 79 q 491 133 430 79 q 553 272 553 187 q 487 408 553 355 q 313 460 421 460 l 283 460 l 283 551 l 292 551 q 464 601 396 551 q 532 733 532 650 q 483 839 532 801 q 349 878 434 878 q 183 838 275 878 l 168 933 q 354 975 260 975 q 565 908 482 975 q 648 734 648 840 q 598 598 648 661 q 476 518 547 534 l 476 514 z "},"4":{"ha":833,"x_min":82,"x_max":728,"o":"m 728 221 l 610 221 l 610 0 l 498 0 l 498 221 l 82 221 l 82 306 l 460 957 l 610 957 l 610 318 l 728 318 l 728 221 m 498 318 l 498 847 l 195 318 l 498 318 z "},"5":{"ha":833,"x_min":153,"x_max":677,"o":"m 294 571 q 385 583 340 583 q 599 500 520 583 q 677 293 677 417 q 586 72 677 163 q 363 -18 494 -18 q 153 24 237 -18 l 175 118 q 366 79 267 79 q 507 136 453 79 q 561 293 561 192 q 510 440 561 389 q 379 492 459 492 q 264 469 321 492 l 197 500 l 197 957 l 635 957 l 635 860 l 294 860 l 294 571 z "},"6":{"ha":833,"x_min":127,"x_max":724,"o":"m 245 498 q 440 571 335 571 q 643 493 562 571 q 724 293 724 416 q 652 70 724 158 q 460 -18 580 -18 q 217 122 307 -18 q 127 467 127 263 q 221 829 127 684 q 476 975 314 975 q 669 942 588 975 l 652 843 q 479 878 557 878 q 307 772 369 878 q 245 498 245 666 m 249 403 q 307 180 249 280 q 452 79 364 79 q 566 134 526 79 q 606 283 606 188 q 562 422 606 372 q 437 473 517 473 q 249 403 334 473 z "},"7":{"ha":833,"x_min":135,"x_max":703,"o":"m 703 878 l 323 0 l 210 0 l 583 860 l 135 860 l 135 957 l 703 957 l 703 878 z "},"8":{"ha":833,"x_min":111,"x_max":718,"o":"m 513 525 q 664 428 610 496 q 718 268 718 359 q 631 59 718 136 q 416 -18 544 -18 q 197 60 283 -18 q 111 267 111 138 q 167 427 111 357 q 322 525 222 496 q 195 603 243 545 q 147 733 147 661 q 220 900 147 825 q 414 975 294 975 q 610 901 532 975 q 688 733 688 826 q 639 605 688 663 q 513 525 590 546 m 414 571 q 446 579 417 571 q 496 599 475 587 q 534 629 517 611 q 563 672 552 648 q 574 728 574 697 q 527 836 574 793 q 414 879 480 879 q 303 835 349 879 q 257 728 257 791 q 274 658 257 688 q 315 610 290 628 q 372 581 340 591 q 414 571 404 571 m 414 476 q 228 272 228 422 q 284 132 228 184 q 416 79 340 79 q 549 131 495 79 q 603 272 603 183 q 566 392 603 339 q 414 476 528 446 z "},"9":{"ha":833,"x_min":121,"x_max":717,"o":"m 599 460 q 404 387 516 387 q 202 465 283 387 q 121 665 121 543 q 198 887 121 797 q 399 977 276 977 q 633 840 549 977 q 717 492 717 703 q 618 132 717 281 q 354 -17 519 -17 q 161 17 243 -17 l 179 115 q 351 81 273 81 q 531 190 464 81 q 599 460 599 299 m 596 555 q 544 782 596 684 q 407 879 492 879 q 284 822 330 879 q 239 675 239 766 q 285 538 239 591 q 407 485 332 485 q 587 549 511 485 l 596 555 z "}," ":{"ha":833,"x_min":0,"x_max":0,"o":""},"!":{"ha":833,"x_min":325,"x_max":493,"o":"m 467 646 l 435 288 l 376 288 l 345 646 l 345 957 l 467 957 l 467 646 m 408 155 q 469 131 444 155 q 493 71 493 106 q 468 8 493 35 q 408 -18 444 -18 q 349 8 374 -18 q 325 71 325 34 q 349 131 325 107 q 408 155 373 155 z "},"\"":{"ha":833,"x_min":241,"x_max":591,"o":"m 591 794 l 567 604 l 513 604 l 488 794 l 488 957 l 591 957 l 591 794 m 346 794 l 321 604 l 267 604 l 241 794 l 241 957 l 346 957 l 346 794 z "},"#":{"ha":833,"x_min":60,"x_max":778,"o":"m 778 269 l 562 269 l 505 0 l 410 0 l 467 269 l 285 269 l 228 0 l 132 0 l 189 269 l 60 269 l 60 358 l 208 358 l 260 602 l 60 602 l 60 690 l 278 690 l 335 957 l 431 957 l 374 690 l 555 690 l 612 957 l 708 957 l 652 690 l 778 690 l 778 602 l 633 602 l 582 358 l 778 358 l 778 269 m 538 602 l 355 602 l 304 358 l 486 358 l 538 602 z "},"$":{"ha":833,"x_min":154,"x_max":693,"o":"m 463 549 q 642 427 591 494 q 693 275 693 360 q 632 93 693 168 q 463 -8 570 18 l 463 -96 l 383 -96 l 383 -18 l 378 -18 q 161 31 254 -18 l 184 126 q 375 77 294 77 l 383 77 l 383 472 q 196 595 237 534 q 154 724 154 656 q 214 885 154 820 q 383 970 275 950 l 383 1042 l 463 1042 l 463 975 q 646 946 555 975 l 621 851 q 463 880 538 880 l 463 549 m 383 586 l 383 871 q 262 728 262 839 q 383 586 262 646 m 463 89 q 585 261 585 133 q 556 358 585 318 q 463 433 527 398 l 463 89 z "},"%":{"ha":833,"x_min":32,"x_max":800,"o":"m 224 975 q 365 912 314 975 q 415 749 415 849 q 364 585 415 648 q 224 522 313 522 q 83 586 135 522 q 32 749 32 649 q 84 911 32 846 q 224 975 136 975 m 224 604 q 318 749 318 604 q 224 893 318 893 q 129 749 129 893 q 224 604 129 604 m 714 957 l 208 0 l 114 0 l 619 957 l 714 957 m 608 435 q 749 372 699 435 q 800 208 800 309 q 749 45 800 109 q 608 -18 698 -18 q 468 45 519 -18 q 416 208 416 109 q 468 371 416 307 q 608 435 520 435 m 608 64 q 703 208 703 64 q 608 353 703 353 q 514 208 514 353 q 608 64 514 64 z "},"&":{"ha":833,"x_min":54,"x_max":832,"o":"m 832 5 q 758 -7 802 -7 q 687 19 722 -7 q 596 118 652 44 q 340 -18 490 -18 q 137 58 220 -18 q 54 248 54 134 q 98 385 54 320 q 260 532 141 450 q 147 762 147 664 q 210 916 147 857 q 368 975 273 975 q 515 925 457 975 q 572 785 572 874 q 533 661 572 720 q 386 524 494 602 l 586 277 q 655 441 632 395 q 719 520 677 487 q 825 554 760 554 l 831 554 l 831 461 l 825 461 q 746 417 784 461 q 646 201 708 373 q 725 114 696 140 q 789 87 753 87 q 832 92 805 87 l 832 5 m 336 587 q 448 686 416 643 q 479 777 479 728 q 447 857 479 829 q 370 884 415 884 q 281 851 317 884 q 245 762 245 819 q 336 587 245 689 m 539 187 l 311 468 q 198 360 231 410 q 165 252 165 311 q 218 126 165 177 q 343 75 271 75 q 539 187 456 75 z "},"'":{"ha":833,"x_min":366,"x_max":469,"o":"m 469 794 l 444 604 l 390 604 l 366 794 l 366 957 l 469 957 l 469 794 z "},"(":{"ha":833,"x_min":298,"x_max":650,"o":"m 650 -142 l 608 -200 q 378 66 457 -85 q 298 387 298 218 q 377 708 298 557 q 608 974 456 859 l 650 916 q 471 683 526 804 q 416 389 416 561 q 473 89 416 210 q 650 -142 530 -33 z "},")":{"ha":833,"x_min":183,"x_max":534,"o":"m 225 974 q 456 708 377 859 q 534 387 534 557 q 455 66 534 218 q 225 -200 376 -85 l 183 -142 q 362 92 307 -32 q 416 389 416 216 q 360 687 416 567 q 183 916 304 807 l 225 974 z "},"*":{"ha":833,"x_min":176,"x_max":656,"o":"m 656 582 l 615 514 l 454 621 l 454 427 l 379 427 l 379 621 l 216 513 l 176 582 l 347 693 l 176 804 l 216 872 l 379 764 l 379 957 l 454 957 l 454 765 l 615 872 l 656 804 l 488 693 l 656 582 z "},"+":{"ha":833,"x_min":96,"x_max":737,"o":"m 737 446 l 463 446 l 463 168 l 374 168 l 374 446 l 96 446 l 96 534 l 374 534 l 374 812 l 463 812 l 463 534 l 737 534 l 737 446 z "},",":{"ha":833,"x_min":335,"x_max":509,"o":"m 418 -18 q 359 11 382 -14 q 336 68 336 36 q 359 126 336 102 q 415 150 381 150 q 481 119 453 150 q 509 45 509 88 q 361 -163 509 -88 l 335 -114 q 418 -18 418 -73 z "},"-":{"ha":833,"x_min":208,"x_max":611,"o":"m 611 330 l 208 330 l 208 433 l 611 433 l 611 330 z "},".":{"ha":833,"x_min":329,"x_max":497,"o":"m 412 155 q 473 131 448 155 q 497 71 497 106 q 472 8 497 34 q 412 -18 448 -18 q 353 8 378 -18 q 329 71 329 34 q 353 131 329 107 q 412 155 377 155 z "},"/":{"ha":833,"x_min":146,"x_max":661,"o":"m 661 975 l 245 -18 l 146 -18 l 559 975 l 661 975 z "},":":{"ha":833,"x_min":330,"x_max":493,"o":"m 411 717 q 469 693 446 717 q 493 636 493 670 q 469 579 493 602 q 411 555 446 555 q 354 579 377 555 q 330 636 330 602 q 354 693 330 670 q 411 717 377 717 m 411 150 q 469 127 446 150 q 493 69 493 104 q 469 12 493 35 q 411 -11 446 -11 q 354 12 377 -11 q 330 69 330 35 q 354 127 330 104 q 411 150 377 150 z "},";":{"ha":833,"x_min":335,"x_max":509,"o":"m 416 717 q 475 693 451 717 q 498 636 498 670 q 475 578 498 602 q 416 555 451 555 q 359 579 382 555 q 336 636 336 602 q 359 693 336 670 q 416 717 382 717 m 418 -18 q 359 11 382 -14 q 336 68 336 36 q 359 126 336 102 q 415 150 381 150 q 481 119 453 150 q 509 45 509 88 q 361 -163 509 -88 l 335 -114 q 418 -18 418 -73 z "},"<":{"ha":833,"x_min":154,"x_max":661,"o":"m 661 146 l 154 450 l 154 532 l 661 833 l 661 736 l 254 488 l 661 245 l 661 146 z "},"=":{"ha":833,"x_min":96,"x_max":737,"o":"m 737 582 l 96 582 l 96 671 l 737 671 l 737 582 m 737 310 l 96 310 l 96 399 l 737 399 l 737 310 z "},">":{"ha":833,"x_min":180,"x_max":688,"o":"m 688 450 l 180 146 l 180 245 l 587 488 l 180 736 l 180 833 l 688 532 l 688 450 z "},"?":{"ha":833,"x_min":163,"x_max":646,"o":"m 163 921 q 378 975 283 975 q 576 918 506 975 q 646 747 646 860 q 494 505 646 631 q 414 433 429 451 q 391 389 399 415 q 382 325 382 363 l 382 288 l 289 288 l 289 326 q 364 510 289 444 l 454 589 q 517 663 497 625 q 538 743 538 701 q 493 851 538 814 q 371 889 448 889 q 195 839 301 889 l 163 921 m 347 155 q 408 131 383 155 q 432 71 432 106 q 407 8 432 34 q 347 -18 382 -18 q 288 8 313 -18 q 264 71 264 34 q 288 131 264 107 q 347 155 312 155 z "},"@":{"ha":833,"x_min":66,"x_max":777,"o":"m 657 -53 q 436 -110 555 -110 q 169 24 272 -110 q 66 385 66 158 q 168 813 66 656 q 433 970 269 970 q 681 846 585 970 q 777 513 777 722 q 714 254 777 356 q 551 151 651 151 q 464 232 483 151 q 354 151 425 151 q 268 205 302 151 q 233 347 233 260 q 292 576 233 484 q 437 668 351 668 q 507 643 471 668 l 510 660 l 595 660 q 554 268 554 294 q 562 237 554 250 q 582 225 570 225 q 665 306 627 225 q 703 513 703 387 q 629 796 703 692 q 433 900 556 900 q 221 762 302 900 q 140 385 140 625 q 222 77 140 192 q 436 -39 304 -39 q 642 8 545 -39 l 657 -53 m 497 570 q 441 595 477 595 q 353 530 386 595 q 319 357 319 465 q 336 260 319 295 q 379 225 353 225 q 443 262 418 225 q 469 315 468 300 l 497 570 z "},"A":{"ha":833,"x_min":39,"x_max":798,"o":"m 798 0 l 681 0 l 575 335 l 261 335 l 154 0 l 39 0 l 351 957 l 485 957 l 798 0 m 543 432 l 418 828 l 293 432 l 543 432 z "},"B":{"ha":833,"x_min":142,"x_max":736,"o":"m 532 525 q 682 438 627 503 q 736 285 736 374 q 641 77 736 155 q 414 0 547 0 l 142 0 l 142 957 l 407 957 q 623 896 545 957 q 701 725 701 836 q 656 604 701 657 q 532 528 611 551 l 532 525 m 253 576 l 383 576 q 587 722 587 576 q 537 824 587 789 q 390 860 487 860 l 253 860 l 253 576 m 253 97 l 379 97 q 554 147 490 97 q 619 285 619 197 q 555 429 619 378 q 371 479 492 479 l 253 479 l 253 97 z "},"C":{"ha":833,"x_min":86,"x_max":726,"o":"m 726 60 q 465 -18 614 -18 q 183 109 279 -18 q 86 478 86 237 q 180 843 86 711 q 465 975 273 975 q 602 958 534 975 q 711 911 670 940 l 675 823 q 465 878 579 878 q 269 782 333 878 q 204 478 204 686 q 465 79 204 79 q 692 147 576 79 l 726 60 z "},"D":{"ha":833,"x_min":142,"x_max":745,"o":"m 142 957 l 330 957 q 631 829 518 957 q 745 478 745 701 q 630 125 745 250 q 335 0 515 0 l 142 0 l 142 957 m 253 97 l 332 97 q 547 198 468 97 q 627 478 627 299 q 547 758 627 656 q 332 860 467 860 l 253 860 l 253 97 z "},"E":{"ha":833,"x_min":174,"x_max":673,"o":"m 673 0 l 174 0 l 174 957 l 669 957 l 669 860 l 285 860 l 285 564 l 654 564 l 654 467 l 285 467 l 285 97 l 673 97 l 673 0 z "},"F":{"ha":833,"x_min":174,"x_max":681,"o":"m 681 860 l 285 860 l 285 547 l 646 547 l 646 450 l 285 450 l 285 0 l 174 0 l 174 957 l 681 957 l 681 860 z "},"G":{"ha":833,"x_min":86,"x_max":725,"o":"m 725 68 q 465 -18 608 -18 q 182 108 279 -18 q 86 478 86 235 q 179 844 86 713 q 465 975 273 975 q 602 958 534 975 q 711 911 670 940 l 675 823 q 465 878 579 878 q 269 781 334 878 q 204 478 204 685 q 465 79 204 79 q 614 121 564 79 l 614 357 l 441 357 l 441 453 l 725 453 l 725 68 z "},"H":{"ha":833,"x_min":142,"x_max":692,"o":"m 692 0 l 581 0 l 581 475 l 253 475 l 253 0 l 142 0 l 142 957 l 253 957 l 253 572 l 581 572 l 581 957 l 692 957 l 692 0 z "},"I":{"ha":833,"x_min":195,"x_max":629,"o":"m 629 0 l 195 0 l 195 97 l 359 97 l 359 860 l 195 860 l 195 957 l 629 957 l 629 860 l 471 860 l 471 97 l 629 97 l 629 0 z "},"J":{"ha":833,"x_min":106,"x_max":587,"o":"m 587 254 q 518 52 587 123 q 317 -18 450 -18 q 106 31 201 -18 l 139 119 q 317 79 220 79 q 438 124 401 79 q 476 262 476 168 l 476 957 l 587 957 l 587 254 z "},"K":{"ha":833,"x_min":142,"x_max":818,"o":"m 818 0 l 677 0 l 354 469 l 253 359 l 253 0 l 142 0 l 142 957 l 253 957 l 253 498 l 677 957 l 806 957 l 432 553 l 818 0 z "},"L":{"ha":833,"x_min":174,"x_max":694,"o":"m 694 0 l 174 0 l 174 957 l 285 957 l 285 97 l 694 97 l 694 0 z "},"M":{"ha":833,"x_min":117,"x_max":725,"o":"m 725 0 l 618 0 l 618 821 l 473 428 l 368 428 l 224 821 l 224 0 l 117 0 l 117 957 l 261 957 l 421 521 l 581 957 l 725 957 l 725 0 z "},"N":{"ha":833,"x_min":127,"x_max":705,"o":"m 705 0 l 582 0 l 239 755 l 239 0 l 127 0 l 127 957 l 252 957 l 596 208 l 596 957 l 705 957 l 705 0 z "},"O":{"ha":833,"x_min":86,"x_max":745,"o":"m 415 975 q 660 848 576 975 q 745 478 745 721 q 661 109 745 237 q 415 -18 576 -18 q 171 109 255 -18 q 86 478 86 236 q 170 848 86 720 q 415 975 254 975 m 415 79 q 627 478 627 79 q 415 878 627 878 q 258 774 312 878 q 204 478 204 671 q 258 181 204 283 q 415 79 311 79 z "},"P":{"ha":833,"x_min":174,"x_max":720,"o":"m 174 957 l 416 957 q 637 888 554 957 q 720 697 720 819 q 637 502 720 575 q 421 429 555 429 l 285 429 l 285 0 l 174 0 l 174 957 m 285 526 l 406 526 q 602 690 602 526 q 548 813 602 766 q 411 860 495 860 l 285 860 l 285 526 z "},"Q":{"ha":833,"x_min":86,"x_max":770,"o":"m 770 -158 q 653 -176 711 -176 q 460 -14 504 -176 q 415 -18 433 -18 q 171 109 255 -18 q 86 478 86 236 q 170 848 86 720 q 415 975 254 975 q 660 848 576 975 q 745 478 745 721 q 568 20 745 125 q 664 -79 593 -79 q 750 -69 703 -79 l 770 -158 m 415 79 q 627 478 627 79 q 415 878 627 878 q 258 774 312 878 q 204 478 204 671 q 258 181 204 283 q 415 79 311 79 z "},"R":{"ha":833,"x_min":142,"x_max":796,"o":"m 796 0 l 657 0 l 376 435 l 253 435 l 253 0 l 142 0 l 142 957 l 412 957 q 628 891 549 957 q 707 707 707 825 q 649 551 707 619 q 490 458 591 483 l 796 0 m 253 532 l 393 532 q 536 579 481 532 q 591 700 591 627 q 396 860 591 860 l 253 860 l 253 532 z "},"S":{"ha":833,"x_min":154,"x_max":693,"o":"m 621 851 q 458 880 535 880 q 317 841 372 880 q 262 728 262 801 q 406 575 262 641 q 546 507 511 526 q 615 455 580 488 q 672 377 650 422 q 693 275 693 332 q 599 59 693 136 q 378 -18 505 -18 q 161 31 254 -18 l 184 126 q 375 77 294 77 q 527 126 470 77 q 585 261 585 175 q 547 369 585 325 q 410 460 510 414 q 276 525 307 507 q 216 572 246 542 q 170 641 186 603 q 154 724 154 679 q 239 909 154 842 q 456 975 325 975 q 646 946 551 975 l 621 851 z "},"T":{"ha":833,"x_min":66,"x_max":768,"o":"m 768 867 l 473 867 l 473 0 l 363 0 l 363 867 l 66 867 l 66 957 l 768 957 l 768 867 z "},"U":{"ha":833,"x_min":142,"x_max":692,"o":"m 692 301 q 624 58 692 135 q 419 -18 557 -18 q 142 298 142 -18 l 142 957 l 253 957 l 253 309 q 419 79 253 79 q 542 134 503 79 q 581 310 581 188 l 581 957 l 692 957 l 692 301 z "},"V":{"ha":833,"x_min":36,"x_max":794,"o":"m 794 957 l 482 0 l 349 0 l 36 957 l 153 957 l 415 129 l 679 957 l 794 957 z "},"W":{"ha":833,"x_min":29,"x_max":804,"o":"m 804 957 l 682 0 l 579 0 l 416 539 l 254 0 l 149 0 l 29 957 l 139 957 l 220 179 l 361 650 l 472 650 l 614 178 l 696 957 l 804 957 z "},"X":{"ha":833,"x_min":58,"x_max":789,"o":"m 789 0 l 665 0 l 422 392 l 182 0 l 58 0 l 364 488 l 60 957 l 187 957 l 422 578 l 660 957 l 782 957 l 482 488 l 789 0 z "},"Y":{"ha":833,"x_min":64,"x_max":772,"o":"m 772 957 l 473 410 l 473 0 l 363 0 l 363 410 l 64 957 l 189 957 l 418 526 l 647 957 l 772 957 z "},"Z":{"ha":833,"x_min":123,"x_max":705,"o":"m 705 878 l 250 97 l 697 97 l 697 0 l 123 0 l 123 78 l 576 860 l 143 860 l 143 957 l 705 957 l 705 878 z "},"[":{"ha":833,"x_min":354,"x_max":618,"o":"m 618 -183 l 354 -183 l 354 957 l 618 957 l 618 864 l 460 864 l 460 -92 l 618 -92 l 618 -183 z "},"\\":{"ha":833,"x_min":144,"x_max":660,"o":"m 660 -18 l 559 -18 l 144 975 l 245 975 l 660 -18 z "},"]":{"ha":833,"x_min":189,"x_max":460,"o":"m 460 -180 l 189 -180 l 189 -89 l 354 -89 l 354 865 l 189 865 l 189 957 l 460 957 l 460 -180 z "},"^":{"ha":833,"x_min":75,"x_max":762,"o":"m 762 534 l 665 534 l 416 942 l 175 534 l 75 534 l 379 1042 l 461 1042 l 762 534 z "},"_":{"ha":833,"x_min":0,"x_max":833,"o":"m 833 -302 l 0 -302 l 0 -214 l 833 -214 l 833 -302 z "},"`":{"ha":833,"x_min":236,"x_max":524,"o":"m 524 790 l 447 790 l 236 994 l 389 994 l 524 790 z "},"a":{"ha":833,"x_min":146,"x_max":708,"o":"m 708 0 l 603 0 q 590 114 590 43 q 345 -18 500 -18 q 206 38 266 -18 q 146 182 146 94 q 167 274 146 234 q 229 341 188 314 q 328 385 269 369 q 466 407 386 401 l 585 416 l 585 450 q 415 632 585 632 q 314 615 375 632 q 208 574 252 597 l 180 650 q 449 724 325 724 q 690 468 690 724 l 690 164 q 708 0 690 72 m 585 210 l 585 338 q 388 314 441 325 q 296 272 335 302 q 257 189 257 241 q 290 113 257 142 q 375 83 323 83 q 487 117 431 83 q 585 210 543 151 z "},"b":{"ha":833,"x_min":146,"x_max":734,"o":"m 252 615 q 347 694 287 664 q 473 724 407 724 q 666 625 597 724 q 734 364 734 526 q 661 91 734 201 q 465 -18 588 -18 q 342 15 399 -18 q 252 102 285 47 l 252 0 l 146 0 l 146 957 l 252 957 l 252 615 m 252 510 l 252 216 q 332 117 281 157 q 437 77 383 77 q 573 158 523 77 q 624 358 624 239 q 576 556 624 480 q 441 632 528 632 q 252 510 330 632 z "},"c":{"ha":833,"x_min":119,"x_max":688,"o":"m 688 24 q 485 -18 595 -18 q 219 83 318 -18 q 119 353 119 184 q 219 622 119 521 q 482 724 319 724 q 685 686 589 724 l 657 599 q 484 632 561 632 q 299 557 367 632 q 231 353 231 481 q 301 154 231 235 q 485 74 372 74 q 669 109 574 74 l 688 24 z "},"d":{"ha":833,"x_min":98,"x_max":688,"o":"m 688 0 l 582 0 l 582 102 q 489 16 549 50 q 361 -18 428 -18 q 169 90 239 -18 q 98 364 98 198 q 172 622 98 519 q 367 724 245 724 q 582 615 500 724 l 582 957 l 688 957 l 688 0 m 582 216 l 582 510 q 399 632 506 632 q 260 554 311 632 q 210 358 210 477 q 257 156 210 236 q 389 77 305 77 q 469 98 429 77 q 546 163 510 120 q 582 216 582 207 z "},"e":{"ha":833,"x_min":115,"x_max":711,"o":"m 711 350 l 227 350 q 296 152 227 230 q 467 74 366 74 q 665 109 563 74 l 684 24 q 465 -18 590 -18 q 212 83 308 -18 q 115 355 115 184 q 202 624 115 524 q 425 724 288 724 q 629 631 547 724 q 711 383 711 538 l 711 350 m 596 436 q 545 575 596 519 q 429 632 493 632 q 293 578 347 632 q 233 436 239 524 l 596 436 z "},"f":{"ha":833,"x_min":151,"x_max":697,"o":"m 697 946 l 669 860 q 534 882 594 882 q 456 849 477 882 q 435 720 435 817 l 435 707 l 672 707 l 672 615 l 435 615 l 435 0 l 329 0 l 329 615 l 151 615 l 151 707 l 329 707 l 329 730 q 375 920 329 865 q 534 974 421 974 q 697 946 608 974 z "},"g":{"ha":833,"x_min":121,"x_max":745,"o":"m 342 267 q 243 182 243 218 q 266 149 243 162 q 328 135 288 135 l 566 142 q 697 100 650 142 q 745 -17 745 59 q 637 -208 745 -137 q 387 -279 530 -279 q 195 -230 270 -279 q 121 -103 121 -181 q 236 40 121 -18 q 140 150 140 85 q 264 289 140 224 q 176 378 207 323 q 146 494 146 433 q 214 658 146 594 q 383 722 281 722 q 515 692 456 722 l 725 724 l 725 621 l 590 621 q 621 494 621 567 q 553 332 621 398 q 383 265 486 265 q 342 267 361 265 m 383 347 q 478 388 441 347 q 515 493 515 428 q 479 600 515 562 q 383 639 444 639 q 289 598 327 639 q 250 493 250 558 q 289 388 250 429 q 383 347 327 347 m 387 -197 q 565 -151 492 -197 q 639 -36 639 -104 q 534 35 639 35 q 415 31 500 35 q 331 28 361 28 q 284 3 316 28 q 236 -46 253 -21 q 220 -97 220 -71 q 266 -168 220 -138 q 387 -197 312 -197 z "},"h":{"ha":833,"x_min":146,"x_max":690,"o":"m 690 0 l 585 0 l 585 453 q 554 590 585 547 q 460 632 524 632 q 252 511 363 632 l 252 0 l 146 0 l 146 957 l 252 957 l 252 603 q 492 724 366 724 q 690 484 690 724 l 690 0 z "},"i":{"ha":833,"x_min":200,"x_max":534,"o":"m 463 974 q 513 952 492 974 q 534 901 534 931 q 514 849 534 870 q 463 828 493 828 q 413 850 435 828 q 392 901 392 872 q 413 952 392 930 q 463 974 435 974 m 514 0 l 408 0 l 408 615 l 200 615 l 200 707 l 514 707 l 514 0 z "},"j":{"ha":833,"x_min":146,"x_max":534,"o":"m 463 974 q 513 952 492 974 q 534 901 534 931 q 514 849 534 870 q 463 828 493 828 q 413 850 435 828 q 392 901 392 872 q 413 952 392 930 q 463 974 435 974 m 514 -36 q 468 -224 514 -169 q 309 -279 422 -279 q 146 -252 235 -279 l 174 -165 q 309 -187 249 -187 q 387 -155 366 -187 q 408 -25 408 -123 l 408 615 l 200 615 l 200 707 l 514 707 l 514 -36 z "},"k":{"ha":833,"x_min":146,"x_max":760,"o":"m 760 0 l 621 0 l 321 351 l 252 292 l 252 0 l 146 0 l 146 957 l 252 957 l 252 408 l 583 707 l 718 707 l 396 418 l 760 0 z "},"l":{"ha":833,"x_min":165,"x_max":639,"o":"m 639 0 l 350 0 l 350 865 l 165 865 l 165 957 l 456 957 l 456 92 l 639 92 l 639 0 z "},"m":{"ha":833,"x_min":87,"x_max":746,"o":"m 746 0 l 640 0 l 640 464 q 578 632 640 632 q 508 574 546 632 q 469 510 469 516 l 469 0 l 364 0 l 364 464 q 301 632 364 632 q 232 574 270 632 q 193 510 193 516 l 193 0 l 87 0 l 87 707 l 189 707 l 189 600 q 260 690 219 656 q 342 724 301 724 q 418 690 385 724 q 465 600 452 656 q 536 690 495 656 q 618 724 578 724 q 746 494 746 724 l 746 0 z "},"n":{"ha":833,"x_min":146,"x_max":690,"o":"m 690 0 l 585 0 l 585 453 q 554 590 585 547 q 460 632 524 632 q 252 511 363 632 l 252 0 l 146 0 l 146 707 l 252 707 l 252 603 q 492 724 366 724 q 690 484 690 724 l 690 0 z "},"o":{"ha":833,"x_min":98,"x_max":734,"o":"m 416 724 q 648 622 562 724 q 734 354 734 520 q 648 84 734 186 q 416 -18 562 -18 q 184 84 270 -18 q 98 354 98 186 q 184 622 98 521 q 416 724 271 724 m 416 74 q 568 155 513 74 q 624 353 624 237 q 569 553 624 475 q 416 632 514 632 q 264 554 318 632 q 210 353 210 477 q 264 154 210 235 q 416 74 319 74 z "},"p":{"ha":833,"x_min":146,"x_max":734,"o":"m 252 615 q 347 694 287 664 q 473 724 407 724 q 665 623 595 724 q 734 361 734 522 q 662 90 734 198 q 465 -18 589 -18 q 342 15 399 -18 q 252 102 285 47 l 252 -279 l 146 -279 l 146 707 l 252 707 l 252 615 m 252 510 l 252 216 q 332 117 281 157 q 437 77 383 77 q 573 157 523 77 q 624 355 624 237 q 576 555 624 477 q 441 632 528 632 q 252 510 330 632 z "},"q":{"ha":833,"x_min":98,"x_max":688,"o":"m 688 -279 l 582 -279 l 582 102 q 489 16 549 50 q 361 -18 428 -18 q 169 88 239 -18 q 98 359 98 195 q 172 621 98 517 q 367 724 245 724 q 582 615 500 724 l 582 707 l 688 707 l 688 -279 m 582 216 l 582 510 q 399 632 506 632 q 260 553 311 632 q 210 354 210 473 q 257 155 210 233 q 389 77 305 77 q 469 98 429 77 q 546 163 510 120 q 582 216 582 207 z "},"r":{"ha":833,"x_min":221,"x_max":701,"o":"m 701 688 l 659 586 q 538 616 589 616 q 446 590 491 616 q 364 513 401 563 q 326 457 326 463 l 326 0 l 221 0 l 221 707 l 326 707 l 326 564 q 546 724 411 724 q 701 688 626 724 z "},"s":{"ha":833,"x_min":158,"x_max":681,"o":"m 616 606 q 449 635 528 635 q 313 606 363 635 q 262 529 262 577 q 286 476 262 498 q 378 433 309 453 l 479 404 q 593 357 549 385 q 659 291 637 330 q 681 200 681 252 q 596 40 681 99 q 380 -18 511 -18 q 165 21 250 -18 l 186 113 q 376 71 275 71 q 520 103 465 71 q 575 191 575 136 q 548 256 575 227 q 418 316 520 285 q 298 354 336 341 q 226 391 259 366 q 175 449 193 415 q 158 525 158 483 q 238 670 158 616 q 450 724 318 724 q 640 694 536 724 l 616 606 z "},"t":{"ha":833,"x_min":163,"x_max":697,"o":"m 697 32 q 488 -17 591 -17 q 298 183 298 -17 l 298 615 l 163 615 l 163 707 l 298 707 l 298 900 l 401 900 l 401 707 l 642 707 l 642 615 l 401 615 l 401 211 q 430 111 401 146 q 507 75 458 75 q 679 114 594 75 l 697 32 z "},"u":{"ha":833,"x_min":144,"x_max":689,"o":"m 689 0 l 583 0 l 583 104 q 343 -17 469 -17 q 144 224 144 -17 l 144 707 l 250 707 l 250 254 q 279 120 250 164 q 375 75 307 75 q 583 196 472 75 l 583 707 l 689 707 l 689 0 z "},"v":{"ha":833,"x_min":92,"x_max":722,"o":"m 722 707 l 454 0 l 358 0 l 92 707 l 207 707 l 407 144 l 607 707 l 722 707 z "},"w":{"ha":833,"x_min":78,"x_max":774,"o":"m 774 707 l 672 0 l 591 0 l 425 400 l 258 0 l 178 0 l 78 707 l 183 707 q 241 187 239 212 l 371 494 l 479 494 l 608 189 l 665 707 l 774 707 z "},"x":{"ha":833,"x_min":98,"x_max":715,"o":"m 715 0 l 596 0 l 407 277 l 211 0 l 98 0 l 350 354 l 98 707 l 220 707 l 410 432 l 603 707 l 715 707 l 465 358 l 715 0 z "},"y":{"ha":833,"x_min":79,"x_max":722,"o":"m 722 707 l 454 0 q 339 -218 396 -156 q 208 -279 281 -279 q 79 -256 143 -279 l 97 -171 q 189 -187 149 -187 q 283 -143 246 -187 q 357 1 319 -99 l 92 707 l 207 707 l 407 143 l 607 707 l 722 707 z "},"z":{"ha":833,"x_min":138,"x_max":681,"o":"m 681 0 l 138 0 l 138 57 l 541 614 l 147 614 l 147 707 l 681 707 l 681 654 l 278 93 l 681 93 l 681 0 z "},"{":{"ha":833,"x_min":243,"x_max":621,"o":"m 621 -232 l 567 -232 q 426 -179 469 -232 q 383 16 383 -127 l 383 81 q 350 257 383 208 q 243 307 317 307 l 243 418 q 350 468 317 418 q 383 644 383 517 l 383 710 q 426 904 383 852 q 567 957 469 957 l 621 957 l 621 868 l 600 868 q 512 841 537 868 q 488 711 488 814 l 488 668 q 455 461 488 528 q 345 363 422 395 q 455 264 422 330 q 488 57 488 197 l 488 14 q 512 -116 488 -89 q 600 -143 537 -143 l 621 -143 l 621 -232 z "},"|":{"ha":833,"x_min":361,"x_max":465,"o":"m 465 -260 l 361 -260 l 361 957 l 465 957 l 465 -260 z "},"}":{"ha":833,"x_min":210,"x_max":587,"o":"m 587 307 q 480 257 514 307 q 447 81 447 208 l 447 16 q 404 -179 447 -127 q 264 -232 361 -232 l 210 -232 l 210 -143 l 231 -143 q 318 -116 294 -143 q 343 14 343 -89 l 343 57 q 376 264 343 197 q 486 363 408 330 q 376 461 408 395 q 343 668 343 528 l 343 711 q 318 841 343 814 q 231 868 294 868 l 210 868 l 210 957 l 264 957 q 404 904 361 957 q 447 710 447 852 l 447 644 q 477 474 447 530 q 587 418 507 418 l 587 307 z "},"~":{"ha":833,"x_min":40,"x_max":783,"o":"m 783 347 q 581 258 678 258 q 407 311 524 258 q 237 364 288 364 q 40 271 158 364 l 40 368 q 248 457 147 457 q 422 404 306 457 q 589 351 539 351 q 783 444 668 351 l 783 347 z "},"Ä":{"ha":833,"x_min":39,"x_max":798,"o":"m 798 0 l 681 0 l 575 335 l 261 335 l 154 0 l 39 0 l 351 957 l 485 957 l 798 0 m 543 432 l 418 828 l 293 432 l 543 432 m 551 1193 q 602 1172 582 1193 q 623 1119 623 1151 q 602 1068 623 1090 q 551 1046 581 1046 q 499 1068 521 1046 q 478 1119 478 1090 q 499 1172 478 1151 q 551 1193 520 1193 m 283 1193 q 335 1172 315 1193 q 355 1119 355 1152 q 334 1067 355 1089 q 283 1046 313 1046 q 232 1068 254 1046 q 210 1119 210 1090 q 231 1172 210 1151 q 283 1193 253 1193 z "},"Å":{"ha":833,"x_min":39,"x_max":798,"o":"m 493 929 q 645 465 493 930 l 798 0 l 681 0 l 575 335 l 261 335 l 154 0 l 39 0 l 342 928 q 288 1034 288 969 q 326 1124 288 1086 q 416 1162 363 1162 q 508 1124 469 1162 q 546 1034 546 1086 q 493 929 546 970 m 416 957 q 470 980 448 957 q 493 1034 493 1002 q 470 1087 493 1065 q 416 1109 448 1109 q 363 1087 386 1109 q 340 1034 340 1065 q 363 980 340 1002 q 416 957 385 957 m 543 432 l 418 828 l 293 432 l 543 432 z "},"Ç":{"ha":833,"x_min":86,"x_max":726,"o":"m 726 60 q 493 -17 626 -11 l 488 -36 q 568 -121 568 -55 q 525 -214 568 -180 q 415 -249 481 -249 q 359 -244 388 -249 l 359 -179 q 397 -182 383 -182 q 460 -166 435 -182 q 486 -132 486 -151 q 400 -87 486 -87 l 425 -17 q 172 124 258 -3 q 86 478 86 252 q 180 843 86 711 q 465 975 273 975 q 602 958 534 975 q 711 911 670 940 l 675 823 q 465 878 579 878 q 269 782 333 878 q 204 478 204 686 q 465 79 204 79 q 692 147 576 79 l 726 60 z "},"É":{"ha":833,"x_min":174,"x_max":673,"o":"m 673 0 l 174 0 l 174 957 l 669 957 l 669 860 l 285 860 l 285 564 l 654 564 l 654 467 l 285 467 l 285 97 l 673 97 l 673 0 m 600 1244 l 389 1040 l 313 1040 l 447 1244 l 600 1244 z "},"Ñ":{"ha":833,"x_min":127,"x_max":705,"o":"m 705 0 l 582 0 l 239 755 l 239 0 l 127 0 l 127 957 l 252 957 l 596 208 l 596 957 l 705 957 l 705 0 m 652 1208 q 522 1053 629 1053 q 404 1091 484 1053 q 308 1124 336 1124 q 262 1103 281 1124 q 237 1053 242 1083 l 180 1053 q 311 1208 203 1208 q 429 1170 349 1208 q 525 1137 497 1137 q 571 1158 551 1137 q 595 1208 591 1178 l 652 1208 z "},"Ö":{"ha":833,"x_min":86,"x_max":745,"o":"m 415 975 q 660 848 576 975 q 745 478 745 721 q 661 109 745 237 q 415 -18 576 -18 q 171 109 255 -18 q 86 478 86 236 q 170 848 86 720 q 415 975 254 975 m 415 79 q 627 478 627 79 q 415 878 627 878 q 258 774 312 878 q 204 478 204 671 q 258 181 204 283 q 415 79 311 79 m 551 1194 q 602 1173 582 1194 q 623 1120 623 1152 q 602 1069 623 1091 q 551 1047 581 1047 q 499 1069 521 1047 q 478 1120 478 1091 q 499 1173 478 1152 q 551 1194 520 1194 m 283 1194 q 335 1174 315 1194 q 355 1120 355 1153 q 334 1069 355 1090 q 283 1047 313 1047 q 232 1069 254 1047 q 210 1120 210 1091 q 231 1173 210 1152 q 283 1194 253 1194 z "},"Ü":{"ha":833,"x_min":142,"x_max":692,"o":"m 692 301 q 624 58 692 135 q 419 -18 557 -18 q 142 298 142 -18 l 142 957 l 253 957 l 253 309 q 419 79 253 79 q 542 134 503 79 q 581 310 581 188 l 581 957 l 692 957 l 692 301 m 551 1193 q 602 1172 582 1193 q 623 1119 623 1151 q 602 1068 623 1090 q 551 1046 581 1046 q 499 1068 521 1046 q 478 1119 478 1090 q 499 1172 478 1151 q 551 1193 520 1193 m 283 1193 q 335 1172 315 1193 q 355 1119 355 1152 q 334 1067 355 1089 q 283 1046 313 1046 q 232 1068 254 1046 q 210 1119 210 1090 q 231 1172 210 1151 q 283 1193 253 1193 z "},"á":{"ha":833,"x_min":146,"x_max":708,"o":"m 708 0 l 603 0 q 590 114 590 43 q 345 -18 500 -18 q 206 38 266 -18 q 146 182 146 94 q 167 274 146 234 q 229 341 188 314 q 328 385 269 369 q 466 407 386 401 l 585 416 l 585 450 q 415 632 585 632 q 314 615 375 632 q 208 574 252 597 l 180 650 q 449 724 325 724 q 690 468 690 724 l 690 164 q 708 0 690 72 m 585 210 l 585 338 q 388 314 441 325 q 296 272 335 302 q 257 189 257 241 q 290 113 257 142 q 375 83 323 83 q 487 117 431 83 q 585 210 543 151 m 623 994 l 411 790 l 335 790 l 469 994 l 623 994 z "},"à":{"ha":833,"x_min":146,"x_max":708,"o":"m 708 0 l 603 0 q 590 114 590 43 q 345 -18 500 -18 q 206 38 266 -18 q 146 182 146 94 q 167 274 146 234 q 229 341 188 314 q 328 385 269 369 q 466 407 386 401 l 585 416 l 585 450 q 415 632 585 632 q 314 615 375 632 q 208 574 252 597 l 180 650 q 449 724 325 724 q 690 468 690 724 l 690 164 q 708 0 690 72 m 585 210 l 585 338 q 388 314 441 325 q 296 272 335 302 q 257 189 257 241 q 290 113 257 142 q 375 83 323 83 q 487 117 431 83 q 585 210 543 151 m 557 790 l 480 790 l 269 994 l 422 994 l 557 790 z "},"â":{"ha":833,"x_min":146,"x_max":708,"o":"m 708 0 l 603 0 q 590 114 590 43 q 345 -18 500 -18 q 206 38 266 -18 q 146 182 146 94 q 167 274 146 234 q 229 341 188 314 q 328 385 269 369 q 466 407 386 401 l 585 416 l 585 450 q 415 632 585 632 q 314 615 375 632 q 208 574 252 597 l 180 650 q 449 724 325 724 q 690 468 690 724 l 690 164 q 708 0 690 72 m 585 210 l 585 338 q 388 314 441 325 q 296 272 335 302 q 257 189 257 241 q 290 113 257 142 q 375 83 323 83 q 487 117 431 83 q 585 210 543 151 m 650 790 l 574 790 l 439 921 l 304 790 l 228 790 l 363 994 l 515 994 l 650 790 z "},"ä":{"ha":833,"x_min":146,"x_max":708,"o":"m 708 0 l 603 0 q 590 114 590 43 q 345 -18 500 -18 q 206 38 266 -18 q 146 182 146 94 q 167 274 146 234 q 229 341 188 314 q 328 385 269 369 q 466 407 386 401 l 585 416 l 585 450 q 415 632 585 632 q 314 615 375 632 q 208 574 252 597 l 180 650 q 449 724 325 724 q 690 468 690 724 l 690 164 q 708 0 690 72 m 585 210 l 585 338 q 388 314 441 325 q 296 272 335 302 q 257 189 257 241 q 290 113 257 142 q 375 83 323 83 q 487 117 431 83 q 585 210 543 151 m 568 943 q 619 922 599 943 q 640 869 640 901 q 618 818 640 840 q 568 796 597 796 q 516 818 538 796 q 495 869 495 840 q 516 922 495 901 q 568 943 537 943 m 300 943 q 352 923 332 943 q 372 869 372 902 q 351 818 372 840 q 300 796 330 796 q 249 818 271 796 q 227 869 227 840 q 248 922 227 901 q 300 943 270 943 z "},"ã":{"ha":833,"x_min":146,"x_max":708,"o":"m 708 0 l 603 0 q 590 114 590 43 q 345 -18 500 -18 q 206 38 266 -18 q 146 182 146 94 q 167 274 146 234 q 229 341 188 314 q 328 385 269 369 q 466 407 386 401 l 585 416 l 585 450 q 415 632 585 632 q 314 615 375 632 q 208 574 252 597 l 180 650 q 449 724 325 724 q 690 468 690 724 l 690 164 q 708 0 690 72 m 585 210 l 585 338 q 388 314 441 325 q 296 272 335 302 q 257 189 257 241 q 290 113 257 142 q 375 83 323 83 q 487 117 431 83 q 585 210 543 151 m 669 959 q 539 803 646 803 q 421 842 501 803 q 325 874 353 874 q 279 854 298 874 q 254 803 259 833 l 197 803 q 328 959 220 959 q 446 920 366 959 q 542 888 514 888 q 588 908 568 888 q 612 959 608 928 l 669 959 z "},"å":{"ha":833,"x_min":146,"x_max":708,"o":"m 708 0 l 603 0 q 590 114 590 43 q 345 -18 500 -18 q 206 38 266 -18 q 146 182 146 94 q 167 274 146 234 q 229 341 188 314 q 328 385 269 369 q 466 407 386 401 l 585 416 l 585 450 q 415 632 585 632 q 314 615 375 632 q 208 574 252 597 l 180 650 q 449 724 325 724 q 690 468 690 724 l 690 164 q 708 0 690 72 m 585 210 l 585 338 q 388 314 441 325 q 296 272 335 302 q 257 189 257 241 q 290 113 257 142 q 375 83 323 83 q 487 117 431 83 q 585 210 543 151 m 435 1050 q 526 1011 488 1050 q 564 921 564 973 q 526 830 564 868 q 435 791 488 791 q 344 830 382 791 q 306 921 306 868 q 344 1011 306 973 q 435 1050 382 1050 m 435 844 q 489 867 466 844 q 511 921 511 890 q 489 974 511 951 q 435 997 466 997 q 381 974 404 997 q 359 921 359 951 q 381 867 359 889 q 435 844 404 844 z "},"ç":{"ha":833,"x_min":119,"x_max":688,"o":"m 688 24 q 493 -18 600 -16 l 488 -36 q 568 -121 568 -55 q 525 -214 568 -180 q 415 -249 481 -249 q 359 -244 388 -249 l 359 -179 q 397 -182 383 -182 q 460 -166 435 -182 q 486 -132 486 -151 q 400 -87 486 -87 l 425 -14 q 200 104 280 5 q 119 353 119 203 q 219 622 119 521 q 482 724 319 724 q 685 686 589 724 l 657 599 q 484 632 561 632 q 299 557 367 632 q 231 353 231 481 q 301 154 231 235 q 485 74 372 74 q 669 109 574 74 l 688 24 z "},"é":{"ha":833,"x_min":115,"x_max":711,"o":"m 711 350 l 227 350 q 296 152 227 230 q 467 74 366 74 q 665 109 563 74 l 684 24 q 465 -18 590 -18 q 212 83 308 -18 q 115 355 115 184 q 202 624 115 524 q 425 724 288 724 q 629 631 547 724 q 711 383 711 538 l 711 350 m 596 436 q 545 575 596 519 q 429 632 493 632 q 293 578 347 632 q 233 436 239 524 l 596 436 m 593 994 l 382 790 l 306 790 l 440 994 l 593 994 z "},"è":{"ha":833,"x_min":115,"x_max":711,"o":"m 711 350 l 227 350 q 296 152 227 230 q 467 74 366 74 q 665 109 563 74 l 684 24 q 465 -18 590 -18 q 212 83 308 -18 q 115 355 115 184 q 202 624 115 524 q 425 724 288 724 q 629 631 547 724 q 711 383 711 538 l 711 350 m 596 436 q 545 575 596 519 q 429 632 493 632 q 293 578 347 632 q 233 436 239 524 l 596 436 m 524 790 l 447 790 l 236 994 l 389 994 l 524 790 z "},"ê":{"ha":833,"x_min":115,"x_max":711,"o":"m 711 350 l 227 350 q 296 152 227 230 q 467 74 366 74 q 665 109 563 74 l 684 24 q 465 -18 590 -18 q 212 83 308 -18 q 115 355 115 184 q 202 624 115 524 q 425 724 288 724 q 629 631 547 724 q 711 383 711 538 l 711 350 m 596 436 q 545 575 596 519 q 429 632 493 632 q 293 578 347 632 q 233 436 239 524 l 596 436 m 628 790 l 551 790 l 417 921 l 282 790 l 205 790 l 340 994 l 493 994 l 628 790 z "},"ë":{"ha":833,"x_min":115,"x_max":711,"o":"m 711 350 l 227 350 q 296 152 227 230 q 467 74 366 74 q 665 109 563 74 l 684 24 q 465 -18 590 -18 q 212 83 308 -18 q 115 355 115 184 q 202 624 115 524 q 425 724 288 724 q 629 631 547 724 q 711 383 711 538 l 711 350 m 596 436 q 545 575 596 519 q 429 632 493 632 q 293 578 347 632 q 233 436 239 524 l 596 436 m 560 943 q 611 922 591 943 q 631 869 631 901 q 610 818 631 840 q 560 796 589 796 q 508 818 530 796 q 487 869 487 840 q 508 922 487 901 q 560 943 529 943 m 292 943 q 344 923 323 943 q 364 869 364 902 q 343 818 364 840 q 292 796 322 796 q 240 818 262 796 q 218 869 218 840 q 240 922 218 901 q 292 943 262 943 z "},"í":{"ha":833,"x_min":200,"x_max":587,"o":"m 514 0 l 408 0 l 408 615 l 200 615 l 200 707 l 514 707 l 514 0 m 587 994 l 376 790 l 300 790 l 434 994 l 587 994 z "},"ì":{"ha":833,"x_min":200,"x_max":515,"o":"m 514 0 l 408 0 l 408 615 l 200 615 l 200 707 l 514 707 l 514 0 m 515 790 l 439 790 l 228 994 l 380 994 l 515 790 z "},"î":{"ha":833,"x_min":191,"x_max":613,"o":"m 514 0 l 408 0 l 408 615 l 200 615 l 200 707 l 514 707 l 514 0 m 613 790 l 536 790 l 402 921 l 267 790 l 191 790 l 326 994 l 478 994 l 613 790 z "},"ï":{"ha":833,"x_min":200,"x_max":617,"o":"m 514 0 l 408 0 l 408 615 l 200 615 l 200 707 l 514 707 l 514 0 m 546 943 q 597 922 576 943 q 617 869 617 901 q 596 818 617 840 q 546 796 575 796 q 494 818 515 796 q 473 869 473 840 q 494 922 473 901 q 546 943 515 943 m 278 943 q 330 923 309 943 q 350 869 350 902 q 329 818 350 840 q 278 796 308 796 q 226 818 248 796 q 204 869 204 840 q 226 922 204 901 q 278 943 248 943 z "},"ñ":{"ha":833,"x_min":146,"x_max":690,"o":"m 690 0 l 585 0 l 585 453 q 554 590 585 547 q 460 632 524 632 q 252 511 363 632 l 252 0 l 146 0 l 146 707 l 252 707 l 252 603 q 492 724 366 724 q 690 484 690 724 l 690 0 m 651 959 q 521 803 628 803 q 403 842 483 803 q 307 874 334 874 q 260 854 280 874 q 236 803 241 833 l 179 803 q 309 959 202 959 q 427 920 347 959 q 524 888 496 888 q 570 908 550 888 q 594 959 589 928 l 651 959 z "},"ó":{"ha":833,"x_min":98,"x_max":734,"o":"m 416 724 q 648 622 562 724 q 734 354 734 520 q 648 84 734 186 q 416 -18 562 -18 q 184 84 270 -18 q 98 354 98 186 q 184 622 98 521 q 416 724 271 724 m 416 74 q 568 155 513 74 q 624 353 624 237 q 569 553 624 475 q 416 632 514 632 q 264 554 318 632 q 210 353 210 477 q 264 154 210 235 q 416 74 319 74 m 606 994 l 394 790 l 318 790 l 452 994 l 606 994 z "},"ò":{"ha":833,"x_min":98,"x_max":734,"o":"m 416 724 q 648 622 562 724 q 734 354 734 520 q 648 84 734 186 q 416 -18 562 -18 q 184 84 270 -18 q 98 354 98 186 q 184 622 98 521 q 416 724 271 724 m 416 74 q 568 155 513 74 q 624 353 624 237 q 569 553 624 475 q 416 632 514 632 q 264 554 318 632 q 210 353 210 477 q 264 154 210 235 q 416 74 319 74 m 539 790 l 463 790 l 252 994 l 404 994 l 539 790 z "},"ô":{"ha":833,"x_min":98,"x_max":734,"o":"m 416 724 q 648 622 562 724 q 734 354 734 520 q 648 84 734 186 q 416 -18 562 -18 q 184 84 270 -18 q 98 354 98 186 q 184 622 98 521 q 416 724 271 724 m 416 74 q 568 155 513 74 q 624 353 624 237 q 569 553 624 475 q 416 632 514 632 q 264 554 318 632 q 210 353 210 477 q 264 154 210 235 q 416 74 319 74 m 629 790 l 553 790 l 418 921 l 283 790 l 207 790 l 342 994 l 494 994 l 629 790 z "},"ö":{"ha":833,"x_min":98,"x_max":734,"o":"m 416 724 q 648 622 562 724 q 734 354 734 520 q 648 84 734 186 q 416 -18 562 -18 q 184 84 270 -18 q 98 354 98 186 q 184 622 98 521 q 416 724 271 724 m 416 74 q 568 155 513 74 q 624 353 624 237 q 569 553 624 475 q 416 632 514 632 q 264 554 318 632 q 210 353 210 477 q 264 154 210 235 q 416 74 319 74 m 551 943 q 602 922 582 943 q 623 869 623 901 q 602 818 623 840 q 551 796 581 796 q 499 818 521 796 q 478 869 478 840 q 499 922 478 901 q 551 943 520 943 m 283 943 q 335 923 315 943 q 355 869 355 902 q 334 818 355 840 q 283 796 313 796 q 232 818 254 796 q 210 869 210 840 q 231 922 210 901 q 283 943 253 943 z "},"õ":{"ha":833,"x_min":98,"x_max":734,"o":"m 416 724 q 648 622 562 724 q 734 354 734 520 q 648 84 734 186 q 416 -18 562 -18 q 184 84 270 -18 q 98 354 98 186 q 184 622 98 521 q 416 724 271 724 m 416 74 q 568 155 513 74 q 624 353 624 237 q 569 553 624 475 q 416 632 514 632 q 264 554 318 632 q 210 353 210 477 q 264 154 210 235 q 416 74 319 74 m 654 959 q 524 803 631 803 q 406 842 486 803 q 309 874 337 874 q 263 854 283 874 q 239 803 243 833 l 182 803 q 312 959 205 959 q 430 920 350 959 q 526 888 498 888 q 572 908 553 888 q 597 959 592 928 l 654 959 z "},"ú":{"ha":833,"x_min":144,"x_max":689,"o":"m 689 0 l 583 0 l 583 104 q 343 -17 469 -17 q 144 224 144 -17 l 144 707 l 250 707 l 250 254 q 279 120 250 164 q 375 75 307 75 q 583 196 472 75 l 583 707 l 689 707 l 689 0 m 603 994 l 391 790 l 315 790 l 450 994 l 603 994 z "},"ù":{"ha":833,"x_min":144,"x_max":689,"o":"m 689 0 l 583 0 l 583 104 q 343 -17 469 -17 q 144 224 144 -17 l 144 707 l 250 707 l 250 254 q 279 120 250 164 q 375 75 307 75 q 583 196 472 75 l 583 707 l 689 707 l 689 0 m 521 790 l 444 790 l 233 994 l 386 994 l 521 790 z "},"û":{"ha":833,"x_min":144,"x_max":689,"o":"m 689 0 l 583 0 l 583 104 q 343 -17 469 -17 q 144 224 144 -17 l 144 707 l 250 707 l 250 254 q 279 120 250 164 q 375 75 307 75 q 583 196 472 75 l 583 707 l 689 707 l 689 0 m 624 790 l 547 790 l 413 921 l 278 790 l 201 790 l 336 994 l 489 994 l 624 790 z "},"ü":{"ha":833,"x_min":144,"x_max":689,"o":"m 689 0 l 583 0 l 583 104 q 343 -17 469 -17 q 144 224 144 -17 l 144 707 l 250 707 l 250 254 q 279 120 250 164 q 375 75 307 75 q 583 196 472 75 l 583 707 l 689 707 l 689 0 m 546 943 q 597 922 576 943 q 617 869 617 901 q 596 818 617 840 q 546 796 575 796 q 494 818 515 796 q 473 869 473 840 q 494 922 473 901 q 546 943 515 943 m 278 943 q 330 923 309 943 q 350 869 350 902 q 329 818 350 840 q 278 796 308 796 q 226 818 248 796 q 204 869 204 840 q 226 922 204 901 q 278 943 248 943 z "},"†":{"ha":833,"x_min":149,"x_max":684,"o":"m 684 555 l 593 555 l 465 581 l 465 -237 l 367 -237 l 367 581 l 239 555 l 149 555 l 149 673 l 239 673 l 363 648 l 357 823 l 357 957 l 475 957 l 475 823 l 469 648 l 593 673 l 684 673 l 684 555 z "},"°":{"ha":833,"x_min":228,"x_max":603,"o":"m 415 975 q 548 920 493 975 q 603 787 603 865 q 548 655 603 710 q 415 600 493 600 q 283 655 338 600 q 228 787 228 710 q 283 920 228 865 q 415 975 338 975 m 415 672 q 497 706 463 672 q 530 787 530 740 q 497 868 530 835 q 415 901 463 901 q 334 868 368 901 q 301 787 301 836 q 334 706 301 740 q 415 672 368 672 z "},"¢":{"ha":833,"x_min":134,"x_max":701,"o":"m 701 24 q 513 -18 616 -16 l 513 -140 l 433 -140 l 433 -14 q 212 106 291 7 q 134 353 134 205 q 213 599 134 500 q 433 720 292 698 l 433 846 l 513 846 l 513 724 q 699 686 610 722 l 671 599 q 513 632 587 628 l 513 74 q 684 109 598 77 l 701 24 m 433 81 l 433 625 q 293 533 342 605 q 244 353 244 461 q 295 180 244 255 q 433 81 345 104 z "},"£":{"ha":833,"x_min":110,"x_max":754,"o":"m 754 53 q 579 -14 676 -14 q 441 27 526 -14 q 318 65 363 65 q 143 -7 232 65 l 143 100 q 231 200 219 158 q 243 281 243 243 l 243 428 l 110 428 l 110 518 l 243 518 l 243 633 q 308 891 243 808 q 510 974 372 974 q 690 937 608 974 l 665 847 q 511 876 587 876 q 392 818 429 876 q 354 632 354 760 l 354 518 l 525 518 l 525 428 l 354 428 l 354 293 q 313 171 354 214 q 466 127 376 171 q 586 92 542 92 q 754 167 668 92 l 754 53 z "},"§":{"ha":833,"x_min":129,"x_max":696,"o":"m 624 856 q 460 882 536 882 q 317 849 370 882 q 265 754 265 817 q 408 616 265 668 q 555 558 519 576 q 626 510 592 541 q 677 439 659 479 q 696 350 696 399 q 583 149 696 227 q 671 -26 671 72 q 581 -217 671 -146 q 358 -289 490 -289 q 139 -239 241 -289 l 161 -147 q 353 -195 264 -195 q 505 -153 449 -195 q 561 -39 561 -112 q 521 65 561 24 q 390 142 481 107 q 255 196 286 181 q 193 239 224 212 q 145 301 162 267 q 129 379 129 336 q 166 492 129 441 q 272 572 203 543 q 154 750 154 639 q 238 914 154 852 q 457 975 322 975 q 648 949 557 975 l 624 856 m 503 210 q 587 338 587 252 q 581 388 587 365 q 557 431 574 410 q 510 470 540 451 q 433 505 479 488 q 383 522 387 522 q 287 483 336 522 q 237 380 237 443 q 271 314 237 345 q 368 259 304 283 q 503 210 431 235 z "},"•":{"ha":833,"x_min":243,"x_max":587,"o":"m 415 646 q 536 595 486 646 q 587 473 587 544 q 536 352 587 403 q 415 301 486 301 q 294 352 345 301 q 243 473 243 403 q 294 595 243 544 q 415 646 345 646 z "},"¶":{"ha":833,"x_min":28,"x_max":771,"o":"m 771 885 l 669 885 l 669 -237 l 590 -237 l 590 885 l 429 885 l 429 -237 l 349 -237 l 349 374 q 132 455 237 374 q 28 656 28 536 q 122 876 28 794 q 374 957 216 957 l 771 957 l 771 885 z "},"ß":{"ha":833,"x_min":106,"x_max":771,"o":"m 106 0 l 106 699 q 177 902 106 829 q 378 974 248 974 q 627 770 627 974 q 607 698 627 733 q 516 612 587 663 q 454 559 466 577 q 441 524 441 541 q 474 465 441 486 q 612 401 506 445 q 771 189 771 337 q 703 38 771 95 q 526 -18 635 -18 q 338 18 423 -18 l 359 110 q 522 71 441 71 q 625 104 584 71 q 667 184 667 137 q 640 263 667 231 q 536 326 614 295 q 413 382 446 363 q 359 437 380 402 q 338 522 338 471 q 356 588 338 555 q 443 668 375 620 q 509 725 496 705 q 522 764 522 745 q 486 851 522 820 q 379 882 449 882 q 255 829 298 882 q 211 675 211 777 l 211 0 l 106 0 z "},"®":{"ha":833,"x_min":7,"x_max":827,"o":"m 416 975 q 706 855 586 975 q 827 567 827 735 q 706 276 827 397 q 416 155 586 155 q 127 276 247 155 q 7 567 7 397 q 126 856 7 736 q 416 975 246 975 m 416 231 q 655 329 556 231 q 754 567 754 428 q 655 804 754 705 q 416 903 556 903 q 179 804 278 903 q 81 567 81 705 q 179 329 81 427 q 416 231 277 231 m 625 347 l 528 347 l 412 522 l 359 522 l 359 347 l 273 347 l 273 790 l 412 790 q 527 755 482 790 q 572 660 572 720 q 488 543 572 577 l 625 347 m 359 593 l 406 593 q 489 657 489 593 q 410 718 489 718 l 359 718 l 359 593 z "},"©":{"ha":833,"x_min":7,"x_max":827,"o":"m 416 975 q 706 855 586 975 q 827 567 827 735 q 706 276 827 397 q 416 155 586 155 q 127 276 247 155 q 7 567 7 397 q 126 856 7 736 q 416 975 246 975 m 416 231 q 655 329 556 231 q 754 567 754 428 q 655 804 754 705 q 416 903 556 903 q 179 804 278 903 q 81 567 81 705 q 179 329 81 427 q 416 231 277 231 m 558 392 q 428 346 496 346 q 287 408 340 346 q 235 568 235 471 q 286 732 235 672 q 428 791 337 791 q 550 758 488 791 l 526 694 q 428 720 481 720 q 347 684 372 720 q 321 568 321 648 q 428 418 321 418 q 536 454 477 418 l 558 392 z "},"™":{"ha":833,"x_min":11,"x_max":786,"o":"m 786 453 l 697 453 l 697 825 l 604 615 l 541 615 l 452 825 l 452 453 l 370 453 l 370 957 l 468 957 l 572 710 l 682 957 l 786 957 l 786 453 m 330 884 l 214 884 l 214 453 l 127 453 l 127 884 l 11 884 l 11 957 l 330 957 l 330 884 z "},"´":{"ha":833,"x_min":311,"x_max":599,"o":"m 599 994 l 387 790 l 311 790 l 446 994 l 599 994 z "},"¨":{"ha":833,"x_min":210,"x_max":623,"o":"m 551 954 q 602 933 582 954 q 623 880 623 912 q 602 829 623 851 q 551 807 581 807 q 499 829 521 807 q 478 880 478 851 q 499 933 478 912 q 551 954 520 954 m 283 954 q 335 933 315 954 q 355 880 355 913 q 334 829 355 850 q 283 807 313 807 q 232 829 254 807 q 210 880 210 851 q 231 933 210 912 q 283 954 253 954 z "},"≠":{"ha":833,"x_min":96,"x_max":737,"o":"m 737 310 l 382 310 l 245 -18 l 146 -18 l 282 310 l 96 310 l 96 399 l 319 399 l 396 582 l 96 582 l 96 671 l 433 671 l 559 975 l 661 975 l 533 671 l 737 671 l 737 582 l 496 582 l 419 399 l 737 399 l 737 310 z "},"Æ":{"ha":833,"x_min":8,"x_max":802,"o":"m 802 0 l 404 0 l 404 342 l 228 342 l 122 0 l 8 0 l 314 957 l 798 957 l 798 860 l 515 860 l 515 564 l 782 564 l 782 467 l 515 467 l 515 97 l 802 97 l 802 0 m 404 439 l 404 856 l 389 856 l 260 439 l 404 439 z "},"Ø":{"ha":833,"x_min":86,"x_max":745,"o":"m 635 882 q 745 478 745 755 q 661 109 745 237 q 415 -18 576 -18 q 265 18 331 -18 l 224 -79 l 132 -79 l 197 74 q 86 478 86 198 q 170 848 86 720 q 415 975 254 975 q 566 937 500 975 l 610 1042 l 703 1042 l 635 882 m 524 840 q 415 878 477 878 q 258 774 312 878 q 204 478 204 671 q 250 197 204 302 l 524 840 m 307 117 q 415 79 353 79 q 627 478 627 79 q 582 758 627 660 l 307 117 z "},"∞":{"ha":833,"x_min":37,"x_max":798,"o":"m 401 567 q 507 692 463 659 q 599 725 550 725 q 741 661 685 725 q 798 492 798 596 q 742 323 798 385 q 600 261 686 261 q 505 294 549 261 q 401 418 460 328 q 201 288 309 288 q 83 344 130 288 q 37 492 37 400 q 84 636 37 583 q 201 689 130 689 q 401 567 315 689 m 453 492 q 540 382 511 409 q 600 355 570 355 q 675 392 648 355 q 703 493 703 429 q 675 594 703 558 q 600 629 648 629 q 540 600 573 629 q 453 492 507 570 m 349 492 q 208 602 275 602 q 150 571 174 602 q 126 492 126 541 q 149 414 126 444 q 208 383 172 383 q 349 492 271 383 z "},"±":{"ha":833,"x_min":96,"x_max":737,"o":"m 737 446 l 463 446 l 463 168 l 374 168 l 374 446 l 96 446 l 96 534 l 374 534 l 374 812 l 463 812 l 463 534 l 737 534 l 737 446 m 737 0 l 96 0 l 96 89 l 737 89 l 737 0 z "},"≤":{"ha":833,"x_min":154,"x_max":661,"o":"m 661 146 l 154 450 l 154 532 l 661 833 l 661 736 l 254 488 l 661 245 l 661 146 m 661 0 l 154 0 l 154 89 l 661 89 l 661 0 z "},"≥":{"ha":833,"x_min":180,"x_max":688,"o":"m 688 452 l 180 147 l 180 248 l 587 489 l 180 737 l 180 835 l 688 533 l 688 452 m 688 0 l 180 0 l 180 89 l 688 89 l 688 0 z "},"¥":{"ha":833,"x_min":64,"x_max":772,"o":"m 772 957 l 509 471 l 739 471 l 739 382 l 473 382 l 473 285 l 739 285 l 739 196 l 473 196 l 473 -3 l 363 -3 l 363 196 l 97 196 l 97 285 l 363 285 l 363 382 l 97 382 l 97 471 l 328 471 l 64 957 l 189 957 l 418 524 l 647 957 l 772 957 z "},"µ":{"ha":833,"x_min":144,"x_max":689,"o":"m 689 0 l 583 0 l 583 104 q 343 -17 469 -17 q 250 1 288 -17 l 250 -229 l 144 -229 l 144 707 l 250 707 l 250 254 q 279 120 250 164 q 375 75 307 75 q 583 196 472 75 l 583 707 l 689 707 l 689 0 z "},"∂":{"ha":833,"x_min":72,"x_max":753,"o":"m 296 981 q 374 1010 324 997 q 461 1023 425 1023 q 675 931 597 1023 q 753 675 753 838 q 628 187 753 391 q 314 -17 503 -17 q 137 58 202 -17 q 72 256 72 132 q 185 580 72 444 q 458 717 298 717 q 553 696 503 717 q 642 635 604 676 l 642 661 q 595 862 642 790 q 467 935 549 935 q 323 899 399 935 l 296 981 m 628 522 q 539 597 593 570 q 439 625 485 625 q 253 515 323 625 q 183 258 183 405 q 222 127 183 174 q 335 79 261 79 q 513 199 435 79 q 628 522 591 319 z "},"∑":{"ha":833,"x_min":75,"x_max":775,"o":"m 775 -192 l 75 -192 l 75 -94 l 410 399 l 92 871 l 92 957 l 749 957 l 749 860 l 225 860 l 534 399 l 210 -81 l 775 -81 l 775 -192 z "},"∏":{"ha":833,"x_min":102,"x_max":732,"o":"m 732 -191 l 621 -191 l 621 860 l 212 860 l 212 -191 l 102 -191 l 102 957 l 732 957 l 732 -191 z "},"∫":{"ha":833,"x_min":154,"x_max":677,"o":"m 677 990 l 656 917 q 549 936 598 936 q 485 899 503 936 q 468 783 468 863 l 468 -37 q 425 -204 468 -151 q 285 -257 382 -257 q 154 -228 228 -257 l 176 -154 q 283 -175 238 -175 q 347 -138 329 -175 q 364 -21 364 -101 l 364 800 q 409 968 364 918 q 547 1018 454 1018 q 677 990 608 1018 z "},"ª":{"ha":833,"x_min":229,"x_max":595,"o":"m 595 541 l 503 541 q 497 596 497 566 q 432 548 472 567 q 357 529 391 529 q 266 565 303 529 q 229 659 229 601 q 493 796 229 785 l 493 808 q 468 880 493 856 q 406 904 444 904 q 275 867 347 904 l 248 928 q 425 975 352 975 q 583 817 583 975 l 583 646 q 595 541 583 600 m 493 663 l 493 743 q 356 716 389 739 q 323 659 323 694 q 340 617 323 633 q 380 600 357 600 q 493 663 446 600 z "},"º":{"ha":833,"x_min":205,"x_max":611,"o":"m 408 975 q 556 914 500 975 q 611 754 611 852 q 555 592 611 654 q 408 530 500 530 q 260 592 315 530 q 205 754 205 653 q 260 913 205 852 q 408 975 315 975 m 408 602 q 487 645 458 602 q 517 753 517 688 q 408 904 517 904 q 329 862 358 904 q 300 753 300 821 q 329 645 300 688 q 408 602 359 602 z "},"Ω":{"ha":833,"x_min":86,"x_max":745,"o":"m 248 90 q 135 247 184 134 q 86 493 86 359 q 173 844 86 713 q 415 975 260 975 q 656 846 568 975 q 745 493 745 717 q 696 248 745 360 q 585 90 648 136 l 726 90 l 726 0 l 468 0 l 468 89 q 588 233 542 121 q 633 493 633 344 q 576 782 633 678 q 415 885 518 885 q 255 782 312 885 q 197 493 197 679 q 247 235 197 349 q 371 89 296 120 l 371 0 l 104 0 l 104 90 l 248 90 z "},"æ":{"ha":833,"x_min":31,"x_max":804,"o":"m 804 24 q 629 -18 717 -18 q 419 102 487 -18 q 210 -18 330 -18 q 81 36 132 -18 q 31 182 31 91 q 104 339 31 279 q 367 415 177 398 l 367 450 q 336 589 367 546 q 229 632 305 632 q 86 593 176 632 l 58 673 q 262 724 161 724 q 436 643 388 724 q 595 724 498 724 q 747 639 691 724 q 803 390 803 554 l 803 350 l 472 350 l 472 338 q 512 142 472 210 q 629 74 552 74 q 789 109 703 74 l 804 24 m 685 436 q 661 581 685 529 q 595 633 637 633 q 508 581 540 633 q 472 436 476 528 l 685 436 m 367 174 l 367 338 q 199 291 256 331 q 142 189 142 250 q 171 113 142 142 q 241 83 199 83 q 329 119 291 83 q 367 174 367 155 z "},"ø":{"ha":833,"x_min":98,"x_max":734,"o":"m 604 664 q 734 354 734 563 q 648 84 734 186 q 416 -18 562 -18 q 317 -4 368 -18 l 275 -102 l 183 -102 l 240 32 q 98 354 98 132 q 184 622 98 521 q 416 724 271 724 q 529 705 475 724 l 572 806 l 665 806 l 604 664 m 492 618 q 416 632 454 632 q 264 554 318 632 q 210 353 210 477 q 283 131 210 212 l 492 618 m 354 83 q 416 74 386 74 q 568 155 513 74 q 624 353 624 237 q 561 564 624 484 l 354 83 z "},"¿":{"ha":833,"x_min":191,"x_max":673,"o":"m 489 724 q 548 697 524 724 q 572 635 572 671 q 548 574 572 598 q 489 550 524 550 q 429 574 453 550 q 404 635 404 599 q 429 697 404 671 q 489 724 454 724 m 673 -215 q 458 -269 553 -269 q 260 -212 330 -269 q 191 -41 191 -154 q 341 200 191 75 q 422 272 408 254 q 445 316 436 290 q 454 380 454 342 l 454 418 l 547 418 l 547 379 q 472 196 547 261 l 382 117 q 319 42 339 80 q 298 -37 298 5 q 343 -146 298 -109 q 465 -183 388 -183 q 642 -134 535 -183 l 673 -215 z "},"¡":{"ha":833,"x_min":338,"x_max":505,"o":"m 422 724 q 481 697 457 724 q 505 635 505 671 q 481 574 505 599 q 422 550 458 550 q 362 574 387 550 q 338 635 338 599 q 362 697 338 671 q 422 724 387 724 m 486 -252 l 364 -252 l 364 60 l 396 418 l 454 418 l 486 60 l 486 -252 z "},"¬":{"ha":833,"x_min":96,"x_max":737,"o":"m 737 338 l 648 338 l 648 582 l 96 582 l 96 671 l 737 671 l 737 338 z "},"√":{"ha":833,"x_min":21,"x_max":833,"o":"m 833 997 l 734 997 l 441 -183 l 325 -183 l 183 254 l 49 205 l 21 292 l 244 370 l 379 -60 l 663 1086 l 833 1086 l 833 997 z "},"ƒ":{"ha":833,"x_min":56,"x_max":775,"o":"m 775 956 l 754 871 q 671 885 707 885 q 595 859 624 885 q 538 707 567 833 l 697 707 l 697 623 l 519 623 l 399 78 q 312 -126 368 -62 q 167 -191 256 -191 q 56 -170 125 -191 l 85 -81 q 164 -96 130 -96 q 241 -61 211 -96 q 293 77 271 -27 l 412 623 l 293 623 l 293 707 l 431 707 q 520 919 464 862 q 668 975 576 975 q 775 956 720 975 z "},"≈":{"ha":833,"x_min":46,"x_max":789,"o":"m 789 614 q 586 525 684 525 q 412 578 529 525 q 243 631 293 631 q 46 538 164 631 l 46 635 q 253 724 153 724 q 428 671 311 724 q 595 618 545 618 q 789 711 674 618 l 789 614 m 789 347 q 586 258 684 258 q 412 311 529 258 q 243 364 293 364 q 46 271 164 364 l 46 368 q 253 457 153 457 q 428 404 311 457 q 595 351 545 351 q 789 444 674 351 l 789 347 z "},"∆":{"ha":833,"x_min":39,"x_max":798,"o":"m 798 0 l 39 0 l 351 957 l 485 957 l 798 0 m 652 90 l 418 839 l 183 90 l 652 90 z "},"«":{"ha":833,"x_min":119,"x_max":713,"o":"m 713 94 l 650 40 l 392 340 l 392 422 l 650 721 l 713 667 l 469 380 l 713 94 m 440 94 l 378 40 l 119 340 l 119 422 l 378 721 l 440 667 l 197 380 l 440 94 z "},"»":{"ha":833,"x_min":119,"x_max":713,"o":"m 713 340 l 454 40 l 392 94 l 635 380 l 392 667 l 454 721 l 713 422 l 713 340 m 440 340 l 182 40 l 119 94 l 363 380 l 119 667 l 182 721 l 440 422 l 440 340 z "},"…":{"ha":833,"x_min":54,"x_max":779,"o":"m 694 155 q 755 131 730 155 q 779 71 779 106 q 754 8 779 34 q 694 -18 730 -18 q 635 8 660 -18 q 611 71 611 34 q 635 131 611 107 q 694 155 659 155 m 418 155 q 478 131 454 155 q 503 71 503 106 q 478 8 503 34 q 418 -18 453 -18 q 359 8 383 -18 q 335 71 335 34 q 359 131 335 107 q 418 155 382 155 m 138 155 q 198 131 173 155 q 222 71 222 106 q 198 8 222 34 q 138 -18 173 -18 q 78 8 102 -18 q 54 71 54 34 q 78 131 54 107 q 138 155 102 155 z "}," ":{"ha":833,"x_min":0,"x_max":0,"o":""},"À":{"ha":833,"x_min":39,"x_max":798,"o":"m 798 0 l 681 0 l 575 335 l 261 335 l 154 0 l 39 0 l 351 957 l 485 957 l 798 0 m 543 432 l 418 828 l 293 432 l 543 432 m 526 1040 l 450 1040 l 239 1244 l 391 1244 l 526 1040 z "},"Ã":{"ha":833,"x_min":39,"x_max":798,"o":"m 798 0 l 681 0 l 575 335 l 261 335 l 154 0 l 39 0 l 351 957 l 485 957 l 798 0 m 543 432 l 418 828 l 293 432 l 543 432 m 661 1208 q 531 1053 638 1053 q 413 1091 493 1053 q 317 1124 345 1124 q 271 1103 290 1124 q 246 1053 251 1083 l 189 1053 q 319 1208 212 1208 q 437 1170 357 1208 q 534 1137 506 1137 q 580 1158 560 1137 q 604 1208 600 1178 l 661 1208 z "},"Õ":{"ha":833,"x_min":86,"x_max":745,"o":"m 415 975 q 660 848 576 975 q 745 478 745 721 q 661 109 745 237 q 415 -18 576 -18 q 171 109 255 -18 q 86 478 86 236 q 170 848 86 720 q 415 975 254 975 m 415 79 q 627 478 627 79 q 415 878 627 878 q 258 774 312 878 q 204 478 204 671 q 258 181 204 283 q 415 79 311 79 m 646 1208 q 515 1053 623 1053 q 397 1091 477 1053 q 301 1124 329 1124 q 255 1103 275 1124 q 231 1053 235 1083 l 174 1053 q 304 1208 197 1208 q 422 1170 342 1208 q 518 1137 490 1137 q 564 1158 545 1137 q 589 1208 584 1178 l 646 1208 z "},"Œ":{"ha":833,"x_min":86,"x_max":751,"o":"m 751 0 l 404 0 q 172 131 258 0 q 86 478 86 262 q 172 828 86 699 q 415 957 257 957 l 747 957 l 747 860 l 509 860 l 509 562 l 732 562 l 732 468 l 509 468 l 509 97 l 751 97 l 751 0 m 404 97 l 404 859 q 253 768 301 859 q 204 478 204 677 q 253 198 204 299 q 404 97 302 97 z "},"œ":{"ha":833,"x_min":36,"x_max":804,"o":"m 804 24 q 629 -18 717 -18 q 465 41 529 -18 q 313 -18 399 -18 q 114 88 191 -18 q 36 353 36 195 q 111 620 36 517 q 313 724 186 724 q 464 675 398 724 q 595 724 516 724 q 745 639 688 724 q 803 393 803 555 l 803 350 l 472 350 l 472 338 q 512 142 472 210 q 629 74 552 74 q 789 109 703 74 l 804 24 m 685 436 q 661 581 685 529 q 595 633 637 633 q 471 436 481 633 l 685 436 m 416 110 q 364 375 364 216 q 406 595 364 504 q 313 632 359 632 q 147 353 147 632 q 189 146 147 218 q 313 74 231 74 q 416 110 370 74 z "},"–":{"ha":833,"x_min":125,"x_max":681,"o":"m 681 330 l 125 330 l 125 433 l 681 433 l 681 330 z "},"—":{"ha":833,"x_min":0,"x_max":833,"o":"m 833 330 l 0 330 l 0 433 l 833 433 l 833 330 z "},"“":{"ha":833,"x_min":199,"x_max":621,"o":"m 621 928 q 538 832 538 887 q 596 803 573 828 q 619 746 619 779 q 597 688 619 711 q 541 664 574 664 q 475 695 503 664 q 447 770 447 726 q 595 977 447 902 l 621 928 m 372 928 q 289 832 289 887 q 348 803 325 828 q 371 746 371 779 q 348 688 371 711 q 292 664 326 664 q 226 695 254 664 q 199 770 199 726 q 346 977 199 902 l 372 928 z "},"”":{"ha":833,"x_min":203,"x_max":625,"o":"m 534 807 q 476 836 499 811 q 453 893 453 861 q 476 951 453 928 q 532 975 498 975 q 597 944 570 975 q 625 869 625 913 q 478 663 625 737 l 452 711 q 534 807 534 752 m 286 807 q 227 836 250 811 q 204 893 204 861 q 227 951 204 928 q 283 975 250 975 q 349 944 321 975 q 376 869 376 913 q 229 663 376 737 l 203 711 q 286 807 286 752 z "},"‘":{"ha":833,"x_min":325,"x_max":498,"o":"m 498 928 q 415 832 415 887 q 474 803 451 828 q 497 746 497 779 q 474 688 497 711 q 418 664 452 664 q 353 695 380 664 q 325 770 325 726 q 472 977 325 902 l 498 928 z "},"’":{"ha":833,"x_min":323,"x_max":497,"o":"m 407 807 q 348 836 371 811 q 325 893 325 861 q 348 951 325 928 q 404 975 370 975 q 470 944 442 975 q 497 869 497 913 q 350 663 497 737 l 323 711 q 407 807 407 752 z "},"÷":{"ha":833,"x_min":96,"x_max":737,"o":"m 418 829 q 472 807 450 829 q 494 753 494 785 q 472 697 494 720 q 418 673 450 673 q 365 697 387 673 q 343 753 343 720 q 365 808 343 786 q 418 829 386 829 m 737 446 l 96 446 l 96 534 l 737 534 l 737 446 m 418 307 q 472 285 450 307 q 494 231 494 263 q 472 175 494 198 q 418 151 450 151 q 365 175 387 151 q 343 231 343 198 q 365 286 343 264 q 418 307 386 307 z "},"◊":{"ha":833,"x_min":49,"x_max":785,"o":"m 785 519 l 416 0 l 49 519 l 416 1039 l 785 519 m 679 519 l 416 884 l 153 519 l 416 144 l 679 519 z "},"ÿ":{"ha":833,"x_min":79,"x_max":722,"o":"m 722 707 l 454 0 q 339 -218 396 -156 q 208 -279 281 -279 q 79 -256 143 -279 l 97 -171 q 189 -187 149 -187 q 283 -143 246 -187 q 357 1 319 -99 l 92 707 l 207 707 l 407 143 l 607 707 l 722 707 m 545 943 q 595 922 575 943 q 616 869 616 901 q 595 818 616 840 q 545 796 574 796 q 493 818 514 796 q 471 869 471 840 q 492 922 471 901 q 545 943 513 943 m 277 943 q 328 923 308 943 q 349 869 349 902 q 328 818 349 840 q 277 796 307 796 q 225 818 247 796 q 203 869 203 840 q 224 922 203 901 q 277 943 246 943 z "},"Ÿ":{"ha":833,"x_min":64,"x_max":772,"o":"m 772 957 l 473 410 l 473 0 l 363 0 l 363 410 l 64 957 l 189 957 l 418 526 l 647 957 l 772 957 m 557 1193 q 608 1172 587 1193 q 628 1119 628 1151 q 607 1068 628 1090 q 557 1046 586 1046 q 505 1068 526 1046 q 484 1119 484 1090 q 505 1172 484 1151 q 557 1193 526 1193 m 289 1193 q 340 1172 320 1193 q 361 1119 361 1152 q 340 1067 361 1089 q 289 1046 319 1046 q 237 1068 259 1046 q 215 1119 215 1090 q 237 1172 215 1151 q 289 1193 258 1193 z "},"⁄":{"ha":833,"x_min":160,"x_max":675,"o":"m 675 957 l 239 0 l 160 0 l 595 957 l 675 957 z "},"∕":{"ha":833,"x_min":160,"x_max":675,"o":"m 675 957 l 239 0 l 160 0 l 595 957 l 675 957 z "},"€":{"ha":833,"x_min":0,"x_max":726,"o":"m 726 60 q 465 -18 614 -18 q 96 342 147 -18 l 0 342 l 49 431 l 87 431 q 86 478 86 445 q 87 528 86 512 l 0 528 l 48 616 l 96 616 q 465 975 150 975 q 602 958 534 975 q 711 911 670 940 l 675 823 q 465 878 579 878 q 212 616 249 878 l 689 616 l 640 528 l 205 528 q 204 478 204 512 q 205 431 204 445 l 648 431 l 600 342 l 214 342 q 465 79 254 79 q 692 147 576 79 l 726 60 z "},"‹":{"ha":833,"x_min":258,"x_max":579,"o":"m 579 94 l 517 40 l 258 340 l 258 422 l 517 721 l 579 667 l 336 380 l 579 94 z "},"›":{"ha":833,"x_min":254,"x_max":575,"o":"m 575 340 l 317 40 l 254 94 l 497 380 l 254 667 l 317 721 l 575 422 l 575 340 z "},"ﬁ":{"ha":833,"x_min":20,"x_max":669,"o":"m 669 0 l 564 0 l 564 615 l 289 615 l 289 0 l 183 0 l 183 615 l 20 615 l 20 707 l 183 707 l 183 730 q 229 920 183 865 q 389 974 275 974 q 551 946 462 974 l 524 860 q 389 882 448 882 q 310 849 332 882 q 289 720 289 817 l 289 707 l 669 707 l 669 0 z "},"ﬂ":{"ha":833,"x_min":20,"x_max":669,"o":"m 669 0 l 564 0 l 564 863 q 399 882 452 882 q 313 846 336 882 q 289 720 289 810 l 289 707 l 479 707 l 479 615 l 289 615 l 289 0 l 183 0 l 183 615 l 20 615 l 20 707 l 183 707 l 183 730 q 233 918 183 861 q 399 974 282 974 q 477 968 427 974 l 566 957 l 669 957 l 669 0 z "},"‡":{"ha":833,"x_min":149,"x_max":684,"o":"m 684 50 l 593 50 l 469 75 l 475 -104 l 475 -237 l 357 -237 l 357 -104 l 363 75 l 239 50 l 149 50 l 149 168 l 239 168 l 367 143 l 367 576 l 239 551 l 149 551 l 149 669 l 239 669 l 363 648 l 357 823 l 357 957 l 475 957 l 475 823 l 469 648 l 593 669 l 684 669 l 684 551 l 593 551 l 465 576 l 465 143 l 593 168 l 684 168 l 684 50 z "},"·":{"ha":833,"x_min":329,"x_max":497,"o":"m 412 545 q 473 520 448 545 q 497 460 497 496 q 472 397 497 423 q 412 371 448 371 q 353 397 378 371 q 329 460 329 423 q 353 520 329 496 q 412 545 377 545 z "},"∙":{"ha":833,"x_min":329,"x_max":497,"o":"m 412 545 q 473 520 448 545 q 497 460 497 496 q 472 397 497 423 q 412 371 448 371 q 353 397 378 371 q 329 460 329 423 q 353 520 329 496 q 412 545 377 545 z "},"‚":{"ha":833,"x_min":335,"x_max":509,"o":"m 418 -18 q 359 11 382 -14 q 336 68 336 36 q 359 126 336 102 q 415 150 381 150 q 481 119 453 150 q 509 45 509 88 q 361 -163 509 -88 l 335 -114 q 418 -18 418 -73 z "},"„":{"ha":833,"x_min":203,"x_max":625,"o":"m 534 -18 q 476 11 499 -14 q 453 68 453 36 q 475 126 453 102 q 532 150 498 150 q 597 119 570 150 q 625 45 625 88 q 478 -163 625 -88 l 452 -114 q 534 -18 534 -73 m 286 -18 q 227 11 250 -14 q 204 68 204 36 q 227 126 204 102 q 283 150 250 150 q 349 119 321 150 q 376 45 376 88 q 229 -163 376 -88 l 203 -114 q 286 -18 286 -73 z "},"‰":{"ha":833,"x_min":0,"x_max":833,"o":"m 171 975 q 297 921 253 975 q 342 770 342 866 q 297 618 342 673 q 171 564 253 564 q 44 618 88 564 q 0 770 0 672 q 43 919 0 862 q 171 975 85 975 m 171 646 q 244 770 244 646 q 171 893 244 893 q 97 770 97 893 q 171 646 97 646 m 717 629 l 0 347 l 0 437 l 717 722 l 717 629 m 663 393 q 789 339 745 393 q 833 187 833 284 q 789 36 833 91 q 663 -18 745 -18 q 536 36 580 -18 q 492 187 492 90 q 536 339 492 284 q 663 393 581 393 m 663 64 q 736 187 736 64 q 663 311 736 311 q 589 187 589 311 q 663 64 589 64 m 290 393 q 417 339 372 393 q 461 187 461 284 q 418 38 461 95 q 290 -18 376 -18 q 163 36 208 -18 q 119 187 119 90 q 164 339 119 284 q 290 393 208 393 m 290 64 q 364 187 364 64 q 290 311 364 311 q 216 187 216 311 q 290 64 216 64 z "},"Â":{"ha":833,"x_min":39,"x_max":798,"o":"m 798 0 l 681 0 l 575 335 l 261 335 l 154 0 l 39 0 l 351 957 l 485 957 l 798 0 m 543 432 l 418 828 l 293 432 l 543 432 m 632 1040 l 555 1040 l 421 1171 l 286 1040 l 210 1040 l 345 1244 l 497 1244 l 632 1040 z "},"Ê":{"ha":833,"x_min":174,"x_max":673,"o":"m 673 0 l 174 0 l 174 957 l 669 957 l 669 860 l 285 860 l 285 564 l 654 564 l 654 467 l 285 467 l 285 97 l 673 97 l 673 0 m 637 1040 l 561 1040 l 427 1171 l 292 1040 l 215 1040 l 350 1244 l 503 1244 l 637 1040 z "},"Á":{"ha":833,"x_min":39,"x_max":798,"o":"m 798 0 l 681 0 l 575 335 l 261 335 l 154 0 l 39 0 l 351 957 l 485 957 l 798 0 m 543 432 l 418 828 l 293 432 l 543 432 m 596 1244 l 385 1040 l 309 1040 l 443 1244 l 596 1244 z "},"Ë":{"ha":833,"x_min":174,"x_max":673,"o":"m 673 0 l 174 0 l 174 957 l 669 957 l 669 860 l 285 860 l 285 564 l 654 564 l 654 467 l 285 467 l 285 97 l 673 97 l 673 0 m 563 1193 q 614 1172 593 1193 q 634 1119 634 1151 q 613 1068 634 1090 q 563 1046 592 1046 q 511 1068 532 1046 q 490 1119 490 1090 q 511 1172 490 1151 q 563 1193 532 1193 m 295 1193 q 347 1172 326 1193 q 367 1119 367 1152 q 346 1067 367 1089 q 295 1046 325 1046 q 243 1068 265 1046 q 221 1119 221 1090 q 243 1172 221 1151 q 295 1193 264 1193 z "},"È":{"ha":833,"x_min":174,"x_max":673,"o":"m 673 0 l 174 0 l 174 957 l 669 957 l 669 860 l 285 860 l 285 564 l 654 564 l 654 467 l 285 467 l 285 97 l 673 97 l 673 0 m 528 1040 l 451 1040 l 240 1244 l 393 1244 l 528 1040 z "},"Í":{"ha":833,"x_min":195,"x_max":629,"o":"m 629 0 l 195 0 l 195 97 l 359 97 l 359 860 l 195 860 l 195 957 l 629 957 l 629 860 l 471 860 l 471 97 l 629 97 l 629 0 m 572 1244 l 361 1040 l 285 1040 l 419 1244 l 572 1244 z "},"Î":{"ha":833,"x_min":195,"x_max":629,"o":"m 629 0 l 195 0 l 195 97 l 359 97 l 359 860 l 195 860 l 195 957 l 629 957 l 629 860 l 471 860 l 471 97 l 629 97 l 629 0 m 623 1040 l 546 1040 l 412 1171 l 277 1040 l 200 1040 l 335 1244 l 488 1244 l 623 1040 z "},"Ï":{"ha":833,"x_min":195,"x_max":629,"o":"m 629 0 l 195 0 l 195 97 l 359 97 l 359 860 l 195 860 l 195 957 l 629 957 l 629 860 l 471 860 l 471 97 l 629 97 l 629 0 m 547 1193 q 598 1172 578 1193 q 618 1119 618 1151 q 597 1068 618 1090 q 547 1046 576 1046 q 495 1068 517 1046 q 474 1119 474 1090 q 495 1172 474 1151 q 547 1193 516 1193 m 279 1193 q 331 1172 311 1193 q 351 1119 351 1152 q 330 1067 351 1089 q 279 1046 309 1046 q 228 1068 250 1046 q 205 1119 205 1090 q 227 1172 205 1151 q 279 1193 249 1193 z "},"Ì":{"ha":833,"x_min":195,"x_max":629,"o":"m 629 0 l 195 0 l 195 97 l 359 97 l 359 860 l 195 860 l 195 957 l 629 957 l 629 860 l 471 860 l 471 97 l 629 97 l 629 0 m 506 1040 l 429 1040 l 218 1244 l 371 1244 l 506 1040 z "},"Ó":{"ha":833,"x_min":86,"x_max":745,"o":"m 415 975 q 660 848 576 975 q 745 478 745 721 q 661 109 745 237 q 415 -18 576 -18 q 171 109 255 -18 q 86 478 86 236 q 170 848 86 720 q 415 975 254 975 m 415 79 q 627 478 627 79 q 415 878 627 878 q 258 774 312 878 q 204 478 204 671 q 258 181 204 283 q 415 79 311 79 m 592 1244 l 380 1040 l 304 1040 l 439 1244 l 592 1244 z "},"Ô":{"ha":833,"x_min":86,"x_max":745,"o":"m 415 975 q 660 848 576 975 q 745 478 745 721 q 661 109 745 237 q 415 -18 576 -18 q 171 109 255 -18 q 86 478 86 236 q 170 848 86 720 q 415 975 254 975 m 415 79 q 627 478 627 79 q 415 878 627 878 q 258 774 312 878 q 204 478 204 671 q 258 181 204 283 q 415 79 311 79 m 627 1040 l 550 1040 l 416 1171 l 281 1040 l 204 1040 l 339 1244 l 492 1244 l 627 1040 z "},"Ò":{"ha":833,"x_min":86,"x_max":745,"o":"m 415 975 q 660 848 576 975 q 745 478 745 721 q 661 109 745 237 q 415 -18 576 -18 q 171 109 255 -18 q 86 478 86 236 q 170 848 86 720 q 415 975 254 975 m 415 79 q 627 478 627 79 q 415 878 627 878 q 258 774 312 878 q 204 478 204 671 q 258 181 204 283 q 415 79 311 79 m 513 1040 l 436 1040 l 225 1244 l 378 1244 l 513 1040 z "},"Ú":{"ha":833,"x_min":142,"x_max":692,"o":"m 692 301 q 624 58 692 135 q 419 -18 557 -18 q 142 298 142 -18 l 142 957 l 253 957 l 253 309 q 419 79 253 79 q 542 134 503 79 q 581 310 581 188 l 581 957 l 692 957 l 692 301 m 597 1244 l 386 1040 l 310 1040 l 444 1244 l 597 1244 z "},"Û":{"ha":833,"x_min":142,"x_max":692,"o":"m 692 301 q 624 58 692 135 q 419 -18 557 -18 q 142 298 142 -18 l 142 957 l 253 957 l 253 309 q 419 79 253 79 q 542 134 503 79 q 581 310 581 188 l 581 957 l 692 957 l 692 301 m 629 1040 l 553 1040 l 418 1171 l 283 1040 l 207 1040 l 342 1244 l 494 1244 l 629 1040 z "},"Ù":{"ha":833,"x_min":142,"x_max":692,"o":"m 692 301 q 624 58 692 135 q 419 -18 557 -18 q 142 298 142 -18 l 142 957 l 253 957 l 253 309 q 419 79 253 79 q 542 134 503 79 q 581 310 581 188 l 581 957 l 692 957 l 692 301 m 509 1040 l 432 1040 l 221 1244 l 374 1244 l 509 1040 z "},"ı":{"ha":833,"x_min":200,"x_max":514,"o":"m 514 0 l 408 0 l 408 615 l 200 615 l 200 707 l 514 707 l 514 0 z "},"ˆ":{"ha":833,"x_min":210,"x_max":632,"o":"m 632 790 l 555 790 l 421 921 l 286 790 l 210 790 l 345 994 l 497 994 l 632 790 z "},"˜":{"ha":833,"x_min":199,"x_max":671,"o":"m 671 970 q 541 814 648 814 q 422 852 503 814 q 326 885 354 885 q 280 865 300 885 q 256 814 260 844 l 199 814 q 329 970 222 970 q 447 931 367 970 q 543 899 515 899 q 589 919 570 899 q 614 970 609 939 l 671 970 z "},"ˉ":{"ha":833,"x_min":187,"x_max":647,"o":"m 647 869 l 187 869 l 187 957 l 647 957 l 647 869 z "},"˘":{"ha":833,"x_min":216,"x_max":610,"o":"m 610 970 q 543 836 593 882 q 415 790 492 790 q 216 970 251 790 l 310 970 q 416 884 330 884 q 515 970 496 884 l 610 970 z "},"˙":{"ha":833,"x_min":351,"x_max":481,"o":"m 416 975 q 462 957 444 975 q 481 911 481 938 q 462 865 481 884 q 416 846 444 846 q 371 865 390 846 q 351 911 351 884 q 370 957 351 938 q 416 975 389 975 z "},"˚":{"ha":833,"x_min":288,"x_max":546,"o":"m 416 1042 q 508 1003 469 1042 q 546 913 546 965 q 508 822 546 860 q 416 783 469 783 q 326 822 363 783 q 288 913 288 860 q 326 1003 288 965 q 416 1042 363 1042 m 416 836 q 470 859 448 836 q 493 913 493 882 q 470 966 493 943 q 416 989 448 989 q 363 966 386 989 q 340 913 340 943 q 363 859 340 881 q 416 836 385 836 z "},"¸":{"ha":833,"x_min":304,"x_max":513,"o":"m 432 -36 q 513 -121 513 -55 q 469 -214 513 -180 q 359 -249 425 -249 q 304 -244 332 -249 l 304 -179 q 342 -182 328 -182 q 405 -166 379 -182 q 431 -132 431 -151 q 345 -87 431 -87 l 375 0 l 443 0 l 432 -36 z "},"˝":{"ha":833,"x_min":192,"x_max":646,"o":"m 646 994 l 490 790 l 414 790 l 507 994 l 646 994 m 424 994 l 268 790 l 192 790 l 285 994 l 424 994 z "},"˛":{"ha":833,"x_min":307,"x_max":549,"o":"m 549 -227 q 447 -249 499 -249 q 346 -214 385 -249 q 307 -123 307 -179 q 368 0 307 -62 l 437 0 q 389 -96 389 -60 q 472 -182 389 -182 q 549 -167 496 -182 l 549 -227 z "},"ˇ":{"ha":833,"x_min":205,"x_max":628,"o":"m 628 994 l 493 790 l 340 790 l 205 994 l 282 994 l 416 864 l 551 994 l 628 994 z "},"Ł":{"ha":833,"x_min":56,"x_max":694,"o":"m 694 0 l 174 0 l 174 361 l 104 317 l 56 390 l 174 467 l 174 957 l 285 957 l 285 539 l 473 661 l 522 587 l 285 433 l 285 97 l 694 97 l 694 0 z "},"ł":{"ha":833,"x_min":165,"x_max":643,"o":"m 643 564 l 456 441 l 456 92 l 639 92 l 639 0 l 350 0 l 350 374 l 225 293 l 176 367 l 350 479 l 350 865 l 165 865 l 165 957 l 456 957 l 456 547 l 595 637 l 643 564 z "},"Š":{"ha":833,"x_min":154,"x_max":693,"o":"m 621 851 q 458 880 535 880 q 317 841 372 880 q 262 728 262 801 q 406 575 262 641 q 546 507 511 526 q 615 455 580 488 q 672 377 650 422 q 693 275 693 332 q 599 59 693 136 q 378 -18 505 -18 q 161 31 254 -18 l 184 126 q 375 77 294 77 q 527 126 470 77 q 585 261 585 175 q 547 369 585 325 q 410 460 510 414 q 276 525 307 507 q 216 572 246 542 q 170 641 186 603 q 154 724 154 679 q 239 909 154 842 q 456 975 325 975 q 646 946 551 975 l 621 851 m 641 1244 l 506 1040 l 353 1040 l 218 1244 l 295 1244 l 429 1114 l 564 1244 l 641 1244 z "},"š":{"ha":833,"x_min":158,"x_max":681,"o":"m 616 606 q 449 635 528 635 q 313 606 363 635 q 262 529 262 577 q 286 476 262 498 q 378 433 309 453 l 479 404 q 593 357 549 385 q 659 291 637 330 q 681 200 681 252 q 596 40 681 99 q 380 -18 511 -18 q 165 21 250 -18 l 186 113 q 376 71 275 71 q 520 103 465 71 q 575 191 575 136 q 548 256 575 227 q 418 316 520 285 q 298 354 336 341 q 226 391 259 366 q 175 449 193 415 q 158 525 158 483 q 238 670 158 616 q 450 724 318 724 q 640 694 536 724 l 616 606 m 637 994 l 503 790 l 350 790 l 215 994 l 292 994 l 426 864 l 561 994 l 637 994 z "},"Ž":{"ha":833,"x_min":123,"x_max":705,"o":"m 705 878 l 250 97 l 697 97 l 697 0 l 123 0 l 123 78 l 576 860 l 143 860 l 143 957 l 705 957 l 705 878 m 628 1244 l 493 1040 l 340 1040 l 205 1244 l 282 1244 l 416 1114 l 551 1244 l 628 1244 z "},"ž":{"ha":833,"x_min":138,"x_max":681,"o":"m 681 0 l 138 0 l 138 57 l 541 614 l 147 614 l 147 707 l 681 707 l 681 654 l 278 93 l 681 93 l 681 0 m 628 994 l 493 790 l 340 790 l 205 994 l 282 994 l 416 864 l 551 994 l 628 994 z "},"¦":{"ha":833,"x_min":361,"x_max":465,"o":"m 465 441 l 361 441 l 361 957 l 465 957 l 465 441 m 465 -279 l 361 -279 l 361 236 l 465 236 l 465 -279 z "},"Ð":{"ha":833,"x_min":43,"x_max":745,"o":"m 142 957 l 330 957 q 631 829 518 957 q 745 478 745 701 q 630 125 745 250 q 335 0 515 0 l 142 0 l 142 441 l 43 441 l 43 539 l 142 539 l 142 957 m 253 97 l 332 97 q 547 198 468 97 q 627 478 627 299 q 547 758 627 656 q 332 860 467 860 l 253 860 l 253 539 l 385 539 l 385 441 l 253 441 l 253 97 z "},"ð":{"ha":833,"x_min":98,"x_max":736,"o":"m 460 885 q 667 627 598 756 q 734 346 736 498 q 648 84 734 186 q 416 -18 562 -18 q 184 84 270 -18 q 98 354 98 186 q 184 622 98 521 q 416 724 271 724 q 489 717 452 724 q 390 838 434 795 l 311 781 l 260 829 l 340 885 q 250 962 300 925 l 301 1018 q 410 932 355 979 l 493 993 l 542 946 l 460 885 m 416 74 q 568 155 513 74 q 624 353 624 237 q 569 553 624 475 q 416 632 514 632 q 264 554 318 632 q 210 353 210 477 q 264 154 210 235 q 416 74 319 74 z "},"Ý":{"ha":833,"x_min":64,"x_max":772,"o":"m 772 957 l 473 410 l 473 0 l 363 0 l 363 410 l 64 957 l 189 957 l 418 526 l 647 957 l 772 957 m 606 1244 l 394 1040 l 318 1040 l 452 1244 l 606 1244 z "},"ý":{"ha":833,"x_min":79,"x_max":722,"o":"m 722 707 l 454 0 q 339 -218 396 -156 q 208 -279 281 -279 q 79 -256 143 -279 l 97 -171 q 189 -187 149 -187 q 283 -143 246 -187 q 357 1 319 -99 l 92 707 l 207 707 l 407 143 l 607 707 l 722 707 m 595 994 l 384 790 l 308 790 l 442 994 l 595 994 z "},"Þ":{"ha":833,"x_min":174,"x_max":720,"o":"m 285 760 l 416 760 q 637 690 554 760 q 720 500 720 621 q 637 305 720 378 q 421 232 555 232 l 285 232 l 285 0 l 174 0 l 174 957 l 285 957 l 285 760 m 285 329 l 406 329 q 602 493 602 329 q 548 616 602 569 q 411 663 495 663 l 285 663 l 285 329 z "},"þ":{"ha":833,"x_min":146,"x_max":734,"o":"m 252 615 q 347 694 287 664 q 473 724 407 724 q 665 623 595 724 q 734 361 734 522 q 662 90 734 198 q 465 -18 589 -18 q 342 15 399 -18 q 252 102 285 47 l 252 -279 l 146 -279 l 146 957 l 252 957 l 252 615 m 252 510 l 252 216 q 332 117 281 157 q 437 77 383 77 q 573 157 523 77 q 624 355 624 237 q 576 555 624 477 q 441 632 528 632 q 252 510 330 632 z "},"−":{"ha":833,"x_min":96,"x_max":737,"o":"m 737 444 l 96 444 l 96 533 l 737 533 l 737 444 z "},"×":{"ha":833,"x_min":139,"x_max":697,"o":"m 697 275 l 633 212 l 418 428 l 201 212 l 139 275 l 354 492 l 139 707 l 201 771 l 418 554 l 632 768 l 694 705 l 481 492 l 697 275 z "},"¹":{"ha":833,"x_min":272,"x_max":554,"o":"m 554 473 l 272 473 l 272 547 l 374 547 l 374 864 l 278 817 l 278 900 l 393 957 l 460 957 l 460 547 l 554 547 l 554 473 z "},"²":{"ha":833,"x_min":267,"x_max":559,"o":"m 559 473 l 267 473 l 268 530 q 437 731 410 684 q 464 819 464 779 q 444 869 464 851 q 386 888 423 888 q 283 864 356 888 l 272 936 q 396 961 334 961 q 510 924 467 961 q 553 822 553 886 q 525 732 553 784 q 371 547 497 681 l 559 547 l 559 473 z "},"³":{"ha":833,"x_min":249,"x_max":547,"o":"m 443 729 q 517 691 487 722 q 547 619 547 660 q 494 509 547 554 q 367 464 440 464 q 249 497 305 464 l 267 567 q 370 539 323 539 q 432 561 406 539 q 458 615 458 582 q 430 670 458 649 q 354 692 401 692 l 323 692 l 323 761 l 343 761 q 419 780 389 761 q 449 833 449 800 q 372 888 449 888 q 277 864 336 888 l 265 936 q 375 961 323 961 q 492 925 446 961 q 538 835 538 890 q 512 770 538 798 q 443 730 486 741 l 443 729 z "},"½":{"ha":833,"x_min":39,"x_max":802,"o":"m 321 473 l 39 473 l 39 547 l 140 547 l 140 864 l 45 817 l 45 900 l 160 957 l 227 957 l 227 547 l 321 547 l 321 473 m 675 957 l 239 0 l 160 0 l 595 957 l 675 957 m 802 0 l 509 0 l 510 57 q 679 258 652 211 q 706 346 706 305 q 686 396 706 378 q 628 414 665 414 q 526 391 598 414 l 514 463 q 638 488 576 488 q 752 450 709 488 q 795 349 795 413 q 767 259 795 311 q 613 74 739 208 l 802 74 l 802 0 z "},"¼":{"ha":833,"x_min":39,"x_max":779,"o":"m 321 473 l 39 473 l 39 547 l 140 547 l 140 864 l 45 817 l 45 900 l 160 957 l 227 957 l 227 547 l 321 547 l 321 473 m 675 957 l 239 0 l 160 0 l 595 957 l 675 957 m 779 109 l 721 109 l 721 0 l 635 0 l 635 109 l 427 109 l 427 167 l 621 484 l 721 484 l 721 184 l 779 184 l 779 109 m 635 184 l 635 375 l 517 184 l 635 184 z "},"¾":{"ha":833,"x_min":40,"x_max":779,"o":"m 234 729 q 308 691 278 722 q 338 619 338 660 q 285 509 338 554 q 158 464 231 464 q 40 497 96 464 l 58 567 q 161 539 115 539 q 223 561 197 539 q 250 615 250 582 q 221 670 250 649 q 145 692 193 692 l 115 692 l 115 761 l 134 761 q 210 780 180 761 q 240 833 240 800 q 163 888 240 888 q 68 864 127 888 l 56 936 q 166 961 115 961 q 283 925 237 961 q 329 835 329 890 q 303 770 329 798 q 234 730 277 741 l 234 729 m 675 957 l 239 0 l 160 0 l 595 957 l 675 957 m 779 109 l 721 109 l 721 0 l 635 0 l 635 109 l 427 109 l 427 167 l 621 484 l 721 484 l 721 184 l 779 184 l 779 109 m 635 184 l 635 375 l 517 184 l 635 184 z "},"­":{"ha":833,"x_min":208,"x_max":611,"o":"m 611 330 l 208 330 l 208 433 l 611 433 l 611 330 z "},"¯":{"ha":833,"x_min":0,"x_max":833,"o":"m 833 1171 l 0 1171 l 0 1260 l 833 1260 l 833 1171 z "},"":{"ha":833,"x_min":375,"x_max":509,"o":"m 439 -191 q 394 -169 412 -188 q 376 -124 376 -149 q 394 -80 376 -98 q 436 -61 411 -61 q 487 -85 466 -61 q 509 -144 509 -109 q 395 -302 509 -244 l 375 -264 q 439 -191 439 -233 z "},"":{"ha":833,"x_min":375,"x_max":509,"o":"m 439 -191 q 394 -169 412 -188 q 376 -124 376 -149 q 394 -80 376 -98 q 436 -61 411 -61 q 487 -85 466 -61 q 509 -144 509 -109 q 395 -302 509 -244 l 375 -264 q 439 -191 439 -233 z "},"Ā":{"ha":833,"x_min":39,"x_max":798,"o":"m 798 0 l 681 0 l 575 335 l 261 335 l 154 0 l 39 0 l 351 957 l 485 957 l 798 0 m 543 432 l 418 828 l 293 432 l 543 432 m 647 1054 l 187 1054 l 187 1141 l 647 1141 l 647 1054 z "},"ā":{"ha":833,"x_min":146,"x_max":708,"o":"m 708 0 l 603 0 q 590 114 590 43 q 345 -18 500 -18 q 206 38 266 -18 q 146 182 146 94 q 167 274 146 234 q 229 341 188 314 q 328 385 269 369 q 466 407 386 401 l 585 416 l 585 450 q 415 632 585 632 q 314 615 375 632 q 208 574 252 597 l 180 650 q 449 724 325 724 q 690 468 690 724 l 690 164 q 708 0 690 72 m 585 210 l 585 338 q 388 314 441 325 q 296 272 335 302 q 257 189 257 241 q 290 113 257 142 q 375 83 323 83 q 487 117 431 83 q 585 210 543 151 m 671 829 l 212 829 l 212 916 l 671 916 l 671 829 z "},"Ă":{"ha":833,"x_min":39,"x_max":798,"o":"m 798 0 l 681 0 l 575 335 l 261 335 l 154 0 l 39 0 l 351 957 l 485 957 l 798 0 m 543 432 l 418 828 l 293 432 l 543 432 m 610 1225 q 543 1092 593 1138 q 415 1046 492 1046 q 216 1225 251 1046 l 310 1225 q 416 1139 330 1139 q 515 1225 496 1139 l 610 1225 z "},"ă":{"ha":833,"x_min":146,"x_max":708,"o":"m 708 0 l 603 0 q 590 114 590 43 q 345 -18 500 -18 q 206 38 266 -18 q 146 182 146 94 q 167 274 146 234 q 229 341 188 314 q 328 385 269 369 q 466 407 386 401 l 585 416 l 585 450 q 415 632 585 632 q 314 615 375 632 q 208 574 252 597 l 180 650 q 449 724 325 724 q 690 468 690 724 l 690 164 q 708 0 690 72 m 585 210 l 585 338 q 388 314 441 325 q 296 272 335 302 q 257 189 257 241 q 290 113 257 142 q 375 83 323 83 q 487 117 431 83 q 585 210 543 151 m 632 970 q 565 836 616 882 q 437 790 515 790 q 239 970 273 790 l 332 970 q 439 884 352 884 q 538 970 519 884 l 632 970 z "},"Ą":{"ha":833,"x_min":39,"x_max":833,"o":"m 798 0 l 750 0 q 701 -96 701 -60 q 771 -182 701 -182 q 833 -167 800 -182 l 833 -227 q 746 -249 805 -249 q 652 -214 684 -249 q 619 -123 619 -179 q 681 0 619 -62 l 575 335 l 261 335 l 154 0 l 39 0 l 351 957 l 485 957 l 798 0 m 543 432 l 418 828 l 293 432 l 543 432 z "},"ą":{"ha":833,"x_min":146,"x_max":783,"o":"m 708 0 l 672 0 q 624 -96 624 -60 q 707 -182 624 -182 q 783 -167 729 -182 l 783 -227 q 682 -249 734 -249 q 581 -214 620 -249 q 542 -123 542 -179 q 603 0 542 -62 q 590 114 590 43 q 345 -18 500 -18 q 206 38 266 -18 q 146 182 146 94 q 167 274 146 234 q 229 341 188 314 q 328 385 269 369 q 466 407 386 401 l 585 416 l 585 450 q 415 632 585 632 q 314 615 375 632 q 208 574 252 597 l 180 650 q 449 724 325 724 q 690 468 690 724 l 690 164 q 708 0 690 72 m 585 210 l 585 338 q 388 314 441 325 q 296 272 335 302 q 257 189 257 241 q 290 113 257 142 q 375 83 323 83 q 487 117 431 83 q 585 210 543 151 z "},"Ć":{"ha":833,"x_min":86,"x_max":726,"o":"m 726 60 q 465 -18 614 -18 q 183 109 279 -18 q 86 478 86 237 q 180 843 86 711 q 465 975 273 975 q 602 958 534 975 q 711 911 670 940 l 675 823 q 465 878 579 878 q 269 782 333 878 q 204 478 204 686 q 465 79 204 79 q 692 147 576 79 l 726 60 m 633 1257 l 422 1053 l 346 1053 l 480 1257 l 633 1257 z "},"ć":{"ha":833,"x_min":119,"x_max":688,"o":"m 688 24 q 485 -18 595 -18 q 219 83 318 -18 q 119 353 119 184 q 219 622 119 521 q 482 724 319 724 q 685 686 589 724 l 657 599 q 484 632 561 632 q 299 557 367 632 q 231 353 231 481 q 301 154 231 235 q 485 74 372 74 q 669 109 574 74 l 688 24 m 637 994 l 426 790 l 350 790 l 484 994 l 637 994 z "},"Ĉ":{"ha":833,"x_min":86,"x_max":726,"o":"m 726 60 q 465 -18 614 -18 q 183 109 279 -18 q 86 478 86 237 q 180 843 86 711 q 465 975 273 975 q 602 958 534 975 q 711 911 670 940 l 675 823 q 465 878 579 878 q 269 782 333 878 q 204 478 204 686 q 465 79 204 79 q 692 147 576 79 l 726 60 m 656 1053 l 580 1053 l 446 1184 l 311 1053 l 234 1053 l 369 1257 l 522 1257 l 656 1053 z "},"ĉ":{"ha":833,"x_min":119,"x_max":688,"o":"m 688 24 q 485 -18 595 -18 q 219 83 318 -18 q 119 353 119 184 q 219 622 119 521 q 482 724 319 724 q 685 686 589 724 l 657 599 q 484 632 561 632 q 299 557 367 632 q 231 353 231 481 q 301 154 231 235 q 485 74 372 74 q 669 109 574 74 l 688 24 m 659 790 l 583 790 l 448 921 l 313 790 l 237 790 l 372 994 l 524 994 l 659 790 z "},"Ċ":{"ha":833,"x_min":86,"x_max":726,"o":"m 726 60 q 465 -18 614 -18 q 183 109 279 -18 q 86 478 86 237 q 180 843 86 711 q 465 975 273 975 q 602 958 534 975 q 711 911 670 940 l 675 823 q 465 878 579 878 q 269 782 333 878 q 204 478 204 686 q 465 79 204 79 q 692 147 576 79 l 726 60 m 449 1181 q 495 1163 476 1181 q 513 1117 513 1144 q 495 1071 513 1090 q 449 1052 476 1052 q 403 1071 422 1052 q 384 1117 384 1090 q 403 1163 384 1144 q 449 1181 422 1181 z "},"ċ":{"ha":833,"x_min":119,"x_max":688,"o":"m 688 24 q 485 -18 595 -18 q 219 83 318 -18 q 119 353 119 184 q 219 622 119 521 q 482 724 319 724 q 685 686 589 724 l 657 599 q 484 632 561 632 q 299 557 367 632 q 231 353 231 481 q 301 154 231 235 q 485 74 372 74 q 669 109 574 74 l 688 24 m 465 975 q 511 957 492 975 q 530 911 530 938 q 511 865 530 884 q 465 846 492 846 q 419 865 439 846 q 400 911 400 884 q 419 957 400 938 q 465 975 438 975 z "},"Č":{"ha":833,"x_min":86,"x_max":726,"o":"m 726 60 q 465 -18 614 -18 q 183 109 279 -18 q 86 478 86 237 q 180 843 86 711 q 465 975 273 975 q 602 958 534 975 q 711 911 670 940 l 675 823 q 465 878 579 878 q 269 782 333 878 q 204 478 204 686 q 465 79 204 79 q 692 147 576 79 l 726 60 m 673 1257 l 538 1053 l 385 1053 l 250 1257 l 327 1257 l 461 1126 l 596 1257 l 673 1257 z "},"č":{"ha":833,"x_min":119,"x_max":688,"o":"m 688 24 q 485 -18 595 -18 q 219 83 318 -18 q 119 353 119 184 q 219 622 119 521 q 482 724 319 724 q 685 686 589 724 l 657 599 q 484 632 561 632 q 299 557 367 632 q 231 353 231 481 q 301 154 231 235 q 485 74 372 74 q 669 109 574 74 l 688 24 m 659 994 l 524 790 l 371 790 l 236 994 l 313 994 l 447 864 l 582 994 l 659 994 z "},"Ď":{"ha":833,"x_min":142,"x_max":745,"o":"m 142 957 l 330 957 q 631 829 518 957 q 745 478 745 701 q 630 125 745 250 q 335 0 515 0 l 142 0 l 142 957 m 253 97 l 332 97 q 547 198 468 97 q 627 478 627 299 q 547 758 627 656 q 332 860 467 860 l 253 860 l 253 97 m 602 1257 l 467 1053 l 314 1053 l 179 1257 l 256 1257 l 390 1126 l 525 1257 l 602 1257 z "},"ď":{"ha":833,"x_min":31,"x_max":814,"o":"m 620 0 l 514 0 l 514 102 q 421 16 481 50 q 293 -18 360 -18 q 101 90 172 -18 q 31 364 31 198 q 104 622 31 519 q 299 724 178 724 q 514 615 433 724 l 514 957 l 620 957 l 620 0 m 514 216 l 514 510 q 331 632 438 632 q 193 554 243 632 q 142 358 142 477 q 190 156 142 236 q 321 77 237 77 q 401 98 361 77 q 478 163 442 120 q 514 216 514 207 m 744 876 q 699 898 717 879 q 682 943 682 918 q 699 987 682 968 q 741 1006 716 1006 q 792 982 771 1006 q 814 923 814 958 q 701 764 814 823 l 680 803 q 744 876 744 833 z "},"Đ":{"ha":833,"x_min":43,"x_max":745,"o":"m 142 957 l 330 957 q 631 829 518 957 q 745 478 745 701 q 630 125 745 250 q 335 0 515 0 l 142 0 l 142 441 l 43 441 l 43 539 l 142 539 l 142 957 m 253 97 l 332 97 q 547 198 468 97 q 627 478 627 299 q 547 758 627 656 q 332 860 467 860 l 253 860 l 253 539 l 385 539 l 385 441 l 253 441 l 253 97 z "},"đ":{"ha":833,"x_min":98,"x_max":799,"o":"m 799 783 l 688 783 l 688 0 l 582 0 l 582 102 q 489 16 549 50 q 361 -18 428 -18 q 169 90 239 -18 q 98 364 98 198 q 172 622 98 519 q 367 724 245 724 q 582 615 500 724 l 582 783 l 432 783 l 432 867 l 582 867 l 582 957 l 688 957 l 688 867 l 799 867 l 799 783 m 582 216 l 582 510 q 399 632 506 632 q 260 554 311 632 q 210 358 210 477 q 257 156 210 236 q 389 77 305 77 q 469 98 429 77 q 546 163 510 120 q 582 216 582 207 z "},"Ē":{"ha":833,"x_min":174,"x_max":673,"o":"m 673 0 l 174 0 l 174 957 l 669 957 l 669 860 l 285 860 l 285 564 l 654 564 l 654 467 l 285 467 l 285 97 l 673 97 l 673 0 m 655 1054 l 195 1054 l 195 1141 l 655 1141 l 655 1054 z "},"ē":{"ha":833,"x_min":115,"x_max":711,"o":"m 711 350 l 227 350 q 296 152 227 230 q 467 74 366 74 q 665 109 563 74 l 684 24 q 465 -18 590 -18 q 212 83 308 -18 q 115 355 115 184 q 202 624 115 524 q 425 724 288 724 q 629 631 547 724 q 711 383 711 538 l 711 350 m 596 436 q 545 575 596 519 q 429 632 493 632 q 293 578 347 632 q 233 436 239 524 l 596 436 m 652 829 l 193 829 l 193 916 l 652 916 l 652 829 z "},"Ĕ":{"ha":833,"x_min":174,"x_max":673,"o":"m 673 0 l 174 0 l 174 957 l 669 957 l 669 860 l 285 860 l 285 564 l 654 564 l 654 467 l 285 467 l 285 97 l 673 97 l 673 0 m 631 1233 q 565 1099 615 1145 q 437 1053 514 1053 q 238 1233 273 1053 l 332 1233 q 438 1147 351 1147 q 537 1233 518 1147 l 631 1233 z "},"ĕ":{"ha":833,"x_min":115,"x_max":711,"o":"m 711 350 l 227 350 q 296 152 227 230 q 467 74 366 74 q 665 109 563 74 l 684 24 q 465 -18 590 -18 q 212 83 308 -18 q 115 355 115 184 q 202 624 115 524 q 425 724 288 724 q 629 631 547 724 q 711 383 711 538 l 711 350 m 596 436 q 545 575 596 519 q 429 632 493 632 q 293 578 347 632 q 233 436 239 524 l 596 436 m 621 970 q 554 836 604 882 q 426 790 503 790 q 227 970 262 790 l 321 970 q 427 884 340 884 q 526 970 507 884 l 621 970 z "},"Ė":{"ha":833,"x_min":174,"x_max":673,"o":"m 673 0 l 174 0 l 174 957 l 669 957 l 669 860 l 285 860 l 285 564 l 654 564 l 654 467 l 285 467 l 285 97 l 673 97 l 673 0 m 430 1184 q 476 1165 457 1184 q 494 1120 494 1147 q 476 1074 494 1093 q 430 1055 457 1055 q 384 1074 404 1055 q 365 1120 365 1093 q 384 1165 365 1147 q 430 1184 403 1184 z "},"ė":{"ha":833,"x_min":115,"x_max":711,"o":"m 711 350 l 227 350 q 296 152 227 230 q 467 74 366 74 q 665 109 563 74 l 684 24 q 465 -18 590 -18 q 212 83 308 -18 q 115 355 115 184 q 202 624 115 524 q 425 724 288 724 q 629 631 547 724 q 711 383 711 538 l 711 350 m 596 436 q 545 575 596 519 q 429 632 493 632 q 293 578 347 632 q 233 436 239 524 l 596 436 m 416 975 q 462 957 444 975 q 481 911 481 938 q 462 865 481 884 q 416 846 444 846 q 371 865 390 846 q 351 911 351 884 q 370 957 351 938 q 416 975 389 975 z "},"Ę":{"ha":833,"x_min":174,"x_max":673,"o":"m 673 0 l 482 0 q 433 -96 433 -60 q 517 -182 433 -182 q 593 -167 539 -182 l 593 -227 q 492 -249 544 -249 q 391 -214 430 -249 q 351 -123 351 -179 q 412 0 351 -62 l 174 0 l 174 957 l 669 957 l 669 860 l 285 860 l 285 564 l 654 564 l 654 467 l 285 467 l 285 97 l 673 97 l 673 0 z "},"ę":{"ha":833,"x_min":115,"x_max":711,"o":"m 711 350 l 227 350 q 296 152 227 230 q 467 74 366 74 q 665 109 563 74 l 684 24 q 485 -18 606 -12 q 450 -96 450 -66 q 533 -182 450 -182 q 610 -167 555 -182 l 610 -227 q 509 -249 561 -249 q 407 -214 446 -249 q 368 -123 368 -179 q 415 -16 368 -68 q 195 102 274 3 q 115 355 115 201 q 202 624 115 524 q 425 724 288 724 q 629 631 547 724 q 711 383 711 538 l 711 350 m 596 436 q 545 575 596 519 q 429 632 493 632 q 293 578 347 632 q 233 436 239 524 l 596 436 z "},"Ě":{"ha":833,"x_min":174,"x_max":673,"o":"m 673 0 l 174 0 l 174 957 l 669 957 l 669 860 l 285 860 l 285 564 l 654 564 l 654 467 l 285 467 l 285 97 l 673 97 l 673 0 m 642 1261 l 507 1057 l 355 1057 l 220 1261 l 296 1261 l 431 1131 l 566 1261 l 642 1261 z "},"ě":{"ha":833,"x_min":115,"x_max":711,"o":"m 711 350 l 227 350 q 296 152 227 230 q 467 74 366 74 q 665 109 563 74 l 684 24 q 465 -18 590 -18 q 212 83 308 -18 q 115 355 115 184 q 202 624 115 524 q 425 724 288 724 q 629 631 547 724 q 711 383 711 538 l 711 350 m 596 436 q 545 575 596 519 q 429 632 493 632 q 293 578 347 632 q 233 436 239 524 l 596 436 m 639 994 l 504 790 l 351 790 l 216 994 l 293 994 l 427 864 l 562 994 l 639 994 z "},"Ĝ":{"ha":833,"x_min":86,"x_max":725,"o":"m 725 68 q 465 -18 608 -18 q 182 108 279 -18 q 86 478 86 235 q 179 844 86 713 q 465 975 273 975 q 602 958 534 975 q 711 911 670 940 l 675 823 q 465 878 579 878 q 269 781 334 878 q 204 478 204 685 q 465 79 204 79 q 614 121 564 79 l 614 357 l 441 357 l 441 453 l 725 453 l 725 68 m 667 1050 l 591 1050 l 456 1181 l 321 1050 l 245 1050 l 380 1255 l 532 1255 l 667 1050 z "},"ĝ":{"ha":833,"x_min":121,"x_max":745,"o":"m 342 267 q 243 182 243 218 q 266 149 243 162 q 328 135 288 135 l 566 142 q 697 100 650 142 q 745 -17 745 59 q 637 -208 745 -137 q 387 -279 530 -279 q 195 -230 270 -279 q 121 -103 121 -181 q 236 40 121 -18 q 140 150 140 85 q 264 289 140 224 q 176 378 207 323 q 146 494 146 433 q 214 658 146 594 q 383 722 281 722 q 515 692 456 722 l 725 724 l 725 621 l 590 621 q 621 494 621 567 q 553 332 621 398 q 383 265 486 265 q 342 267 361 265 m 383 347 q 478 388 441 347 q 515 493 515 428 q 479 600 515 562 q 383 639 444 639 q 289 598 327 639 q 250 493 250 558 q 289 388 250 429 q 383 347 327 347 m 387 -197 q 565 -151 492 -197 q 639 -36 639 -104 q 534 35 639 35 q 415 31 500 35 q 331 28 361 28 q 284 3 316 28 q 236 -46 253 -21 q 220 -97 220 -71 q 266 -168 220 -138 q 387 -197 312 -197 m 616 790 l 539 790 l 405 921 l 270 790 l 193 790 l 328 994 l 481 994 l 616 790 z "},"Ğ":{"ha":833,"x_min":86,"x_max":725,"o":"m 725 68 q 465 -18 608 -18 q 182 108 279 -18 q 86 478 86 235 q 179 844 86 713 q 465 975 273 975 q 602 958 534 975 q 711 911 670 940 l 675 823 q 465 878 579 878 q 269 781 334 878 q 204 478 204 685 q 465 79 204 79 q 614 121 564 79 l 614 357 l 441 357 l 441 453 l 725 453 l 725 68 m 642 1232 q 575 1099 626 1145 q 448 1053 525 1053 q 249 1232 283 1053 l 342 1232 q 449 1146 362 1146 q 548 1232 529 1146 l 642 1232 z "},"ğ":{"ha":833,"x_min":121,"x_max":745,"o":"m 342 267 q 243 182 243 218 q 266 149 243 162 q 328 135 288 135 l 566 142 q 697 100 650 142 q 745 -17 745 59 q 637 -208 745 -137 q 387 -279 530 -279 q 195 -230 270 -279 q 121 -103 121 -181 q 236 40 121 -18 q 140 150 140 85 q 264 289 140 224 q 176 378 207 323 q 146 494 146 433 q 214 658 146 594 q 383 722 281 722 q 515 692 456 722 l 725 724 l 725 621 l 590 621 q 621 494 621 567 q 553 332 621 398 q 383 265 486 265 q 342 267 361 265 m 383 347 q 478 388 441 347 q 515 493 515 428 q 479 600 515 562 q 383 639 444 639 q 289 598 327 639 q 250 493 250 558 q 289 388 250 429 q 383 347 327 347 m 387 -197 q 565 -151 492 -197 q 639 -36 639 -104 q 534 35 639 35 q 415 31 500 35 q 331 28 361 28 q 284 3 316 28 q 236 -46 253 -21 q 220 -97 220 -71 q 266 -168 220 -138 q 387 -197 312 -197 m 593 970 q 527 836 577 882 q 399 790 476 790 q 200 970 235 790 l 294 970 q 400 884 313 884 q 499 970 480 884 l 593 970 z "},"Ġ":{"ha":833,"x_min":86,"x_max":725,"o":"m 725 68 q 465 -18 608 -18 q 182 108 279 -18 q 86 478 86 235 q 179 844 86 713 q 465 975 273 975 q 602 958 534 975 q 711 911 670 940 l 675 823 q 465 878 579 878 q 269 781 334 878 q 204 478 204 685 q 465 79 204 79 q 614 121 564 79 l 614 357 l 441 357 l 441 453 l 725 453 l 725 68 m 446 1184 q 492 1165 473 1184 q 511 1120 511 1147 q 492 1074 511 1093 q 446 1055 473 1055 q 400 1074 420 1055 q 381 1120 381 1093 q 400 1165 381 1147 q 446 1184 419 1184 z "},"ġ":{"ha":833,"x_min":121,"x_max":745,"o":"m 342 267 q 243 182 243 218 q 266 149 243 162 q 328 135 288 135 l 566 142 q 697 100 650 142 q 745 -17 745 59 q 637 -208 745 -137 q 387 -279 530 -279 q 195 -230 270 -279 q 121 -103 121 -181 q 236 40 121 -18 q 140 150 140 85 q 264 289 140 224 q 176 378 207 323 q 146 494 146 433 q 214 658 146 594 q 383 722 281 722 q 515 692 456 722 l 725 724 l 725 621 l 590 621 q 621 494 621 567 q 553 332 621 398 q 383 265 486 265 q 342 267 361 265 m 383 347 q 478 388 441 347 q 515 493 515 428 q 479 600 515 562 q 383 639 444 639 q 289 598 327 639 q 250 493 250 558 q 289 388 250 429 q 383 347 327 347 m 387 -197 q 565 -151 492 -197 q 639 -36 639 -104 q 534 35 639 35 q 415 31 500 35 q 331 28 361 28 q 284 3 316 28 q 236 -46 253 -21 q 220 -97 220 -71 q 266 -168 220 -138 q 387 -197 312 -197 m 387 975 q 432 957 414 975 q 451 911 451 938 q 432 865 451 884 q 387 846 414 846 q 341 865 360 846 q 321 911 321 884 q 340 957 321 938 q 387 975 359 975 z "},"Ģ":{"ha":833,"x_min":86,"x_max":725,"o":"m 725 68 q 465 -18 608 -18 q 182 108 279 -18 q 86 478 86 235 q 179 844 86 713 q 465 975 273 975 q 602 958 534 975 q 711 911 670 940 l 675 823 q 465 878 579 878 q 269 781 334 878 q 204 478 204 685 q 465 79 204 79 q 614 121 564 79 l 614 357 l 441 357 l 441 453 l 725 453 l 725 68 m 439 -191 q 394 -169 412 -188 q 376 -124 376 -149 q 394 -80 376 -98 q 436 -61 411 -61 q 487 -85 466 -61 q 509 -144 509 -109 q 395 -302 509 -244 l 375 -264 q 439 -191 439 -233 z "},"ģ":{"ha":833,"x_min":121,"x_max":745,"o":"m 342 267 q 243 182 243 218 q 266 148 243 162 q 328 134 288 134 l 566 140 q 697 99 650 140 q 745 -17 745 58 q 637 -208 745 -137 q 387 -279 530 -279 q 195 -230 270 -279 q 121 -103 121 -181 q 236 40 121 -18 q 140 150 140 85 q 264 289 140 224 q 176 378 207 323 q 146 494 146 433 q 214 658 146 594 q 383 722 281 722 q 515 692 456 722 l 725 724 l 725 621 l 590 621 q 621 494 621 567 q 553 332 621 398 q 383 265 486 265 q 342 267 361 265 m 383 347 q 478 388 441 347 q 515 493 515 428 q 479 600 515 562 q 383 639 444 639 q 289 598 327 639 q 250 493 250 558 q 289 388 250 429 q 383 347 327 347 m 387 -197 q 565 -151 492 -197 q 639 -36 639 -104 q 534 35 639 35 q 415 31 500 35 q 331 28 361 28 q 284 3 316 28 q 236 -46 253 -21 q 220 -97 220 -71 q 266 -168 220 -138 q 387 -197 312 -197 m 463 1034 q 392 953 392 1000 q 441 927 422 949 q 461 878 461 905 q 442 829 461 849 q 395 808 422 808 q 338 835 361 808 q 314 900 314 862 q 440 1076 314 1011 l 463 1034 z "},"Ĥ":{"ha":833,"x_min":142,"x_max":692,"o":"m 692 0 l 581 0 l 581 475 l 253 475 l 253 0 l 142 0 l 142 957 l 253 957 l 253 572 l 581 572 l 581 957 l 692 957 l 692 0 m 629 1053 l 553 1053 l 418 1184 l 283 1053 l 207 1053 l 342 1257 l 494 1257 l 629 1053 z "},"ĥ":{"ha":833,"x_min":146,"x_max":690,"o":"m 690 0 l 585 0 l 585 453 q 554 590 585 547 q 460 632 524 632 q 252 511 363 632 l 252 0 l 146 0 l 146 957 l 252 957 l 252 603 q 492 724 366 724 q 690 484 690 724 l 690 0 m 635 1053 l 558 1053 l 424 1184 l 289 1053 l 212 1053 l 347 1257 l 500 1257 l 635 1053 z "},"Ħ":{"ha":833,"x_min":43,"x_max":787,"o":"m 787 708 l 692 708 l 692 0 l 581 0 l 581 475 l 253 475 l 253 0 l 142 0 l 142 708 l 43 708 l 43 806 l 142 806 l 142 957 l 253 957 l 253 806 l 581 806 l 581 957 l 692 957 l 692 806 l 787 806 l 787 708 m 581 572 l 581 708 l 253 708 l 253 572 l 581 572 z "},"ħ":{"ha":833,"x_min":35,"x_max":690,"o":"m 690 0 l 585 0 l 585 453 q 554 590 585 547 q 460 632 524 632 q 252 511 363 632 l 252 0 l 146 0 l 146 783 l 35 783 l 35 867 l 146 867 l 146 957 l 252 957 l 252 867 l 401 867 l 401 783 l 252 783 l 252 603 q 492 724 366 724 q 690 484 690 724 l 690 0 z "},"Ĩ":{"ha":833,"x_min":172,"x_max":644,"o":"m 629 0 l 195 0 l 195 97 l 359 97 l 359 860 l 195 860 l 195 957 l 629 957 l 629 860 l 471 860 l 471 97 l 629 97 l 629 0 m 644 1208 q 513 1053 621 1053 q 395 1091 475 1053 q 299 1124 327 1124 q 253 1103 273 1124 q 229 1053 233 1083 l 172 1053 q 302 1208 195 1208 q 420 1170 340 1208 q 516 1137 488 1137 q 562 1158 543 1137 q 587 1208 582 1178 l 644 1208 z "},"ĩ":{"ha":833,"x_min":142,"x_max":614,"o":"m 514 0 l 408 0 l 408 615 l 200 615 l 200 707 l 514 707 l 514 0 m 614 970 q 484 814 591 814 q 366 852 446 814 q 269 885 297 885 q 223 865 243 885 q 199 814 203 844 l 142 814 q 272 970 165 970 q 390 931 310 970 q 486 899 458 899 q 532 919 513 899 q 557 970 552 939 l 614 970 z "},"Ī":{"ha":833,"x_min":182,"x_max":642,"o":"m 629 0 l 195 0 l 195 97 l 359 97 l 359 860 l 195 860 l 195 957 l 629 957 l 629 860 l 471 860 l 471 97 l 629 97 l 629 0 m 642 1054 l 182 1054 l 182 1141 l 642 1141 l 642 1054 z "},"ī":{"ha":833,"x_min":182,"x_max":642,"o":"m 514 0 l 408 0 l 408 615 l 200 615 l 200 707 l 514 707 l 514 0 m 642 829 l 182 829 l 182 916 l 642 916 l 642 829 z "},"Ĭ":{"ha":833,"x_min":195,"x_max":629,"o":"m 629 0 l 195 0 l 195 97 l 359 97 l 359 860 l 195 860 l 195 957 l 629 957 l 629 860 l 471 860 l 471 97 l 629 97 l 629 0 m 610 1233 q 543 1099 593 1145 q 415 1053 492 1053 q 216 1233 251 1053 l 310 1233 q 416 1147 330 1147 q 515 1233 496 1147 l 610 1233 z "},"ĭ":{"ha":833,"x_min":200,"x_max":637,"o":"m 514 0 l 408 0 l 408 615 l 200 615 l 200 707 l 514 707 l 514 0 m 637 970 q 570 836 621 882 q 442 790 519 790 q 243 970 278 790 l 337 970 q 444 884 357 884 q 543 970 524 884 l 637 970 z "},"Į":{"ha":833,"x_min":195,"x_max":629,"o":"m 549 -227 q 447 -249 499 -249 q 346 -214 385 -249 q 307 -123 307 -179 q 368 0 307 -62 l 195 0 l 195 97 l 359 97 l 359 860 l 195 860 l 195 957 l 629 957 l 629 860 l 471 860 l 471 97 l 629 97 l 629 0 l 437 0 q 389 -96 389 -60 q 472 -182 389 -182 q 549 -167 494 -182 l 549 -227 z "},"į":{"ha":833,"x_min":200,"x_max":589,"o":"m 589 -227 q 488 -249 540 -249 q 386 -214 425 -249 q 347 -123 347 -179 q 408 0 347 -62 l 408 615 l 200 615 l 200 707 l 514 707 l 514 0 l 478 0 q 429 -96 429 -60 q 513 -182 429 -182 q 589 -167 535 -182 l 589 -227 m 463 974 q 513 952 492 974 q 534 901 534 931 q 514 849 534 870 q 463 828 493 828 q 413 850 435 828 q 392 901 392 872 q 413 952 392 930 q 463 974 435 974 z "},"İ":{"ha":833,"x_min":195,"x_max":629,"o":"m 629 0 l 195 0 l 195 97 l 359 97 l 359 860 l 195 860 l 195 957 l 629 957 l 629 860 l 471 860 l 471 97 l 629 97 l 629 0 m 416 1182 q 462 1163 444 1182 q 481 1118 481 1145 q 462 1072 481 1090 q 416 1053 444 1053 q 371 1072 390 1053 q 351 1118 351 1091 q 370 1163 351 1145 q 416 1182 389 1182 z "},"Ĳ":{"ha":833,"x_min":56,"x_max":743,"o":"m 351 0 l 56 0 l 56 97 l 151 97 l 151 860 l 56 860 l 56 957 l 351 957 l 351 860 l 262 860 l 262 97 l 351 97 l 351 0 m 743 254 q 528 -18 743 -18 q 393 17 464 -18 l 427 106 q 528 79 486 79 q 608 123 585 79 q 632 262 632 166 l 632 957 l 743 957 l 743 254 z "},"ĳ":{"ha":833,"x_min":37,"x_max":697,"o":"m 244 974 q 296 952 275 974 q 317 901 317 931 q 296 849 317 870 q 244 828 275 828 q 195 850 216 828 q 174 901 174 872 q 195 952 174 930 q 244 974 216 974 m 625 974 q 676 952 655 974 q 697 901 697 931 q 676 849 697 870 q 625 828 655 828 q 575 850 597 828 q 554 901 554 872 q 575 952 554 930 q 625 974 597 974 m 296 0 l 191 0 l 191 615 l 37 615 l 37 707 l 296 707 l 296 0 m 676 -36 q 631 -224 676 -169 q 471 -279 585 -279 q 336 -253 410 -279 l 364 -168 q 471 -187 431 -187 q 550 -155 528 -187 q 571 -25 571 -123 l 571 615 l 418 615 l 418 707 l 676 707 l 676 -36 z "},"Ĵ":{"ha":833,"x_min":106,"x_max":616,"o":"m 587 254 q 518 52 587 123 q 317 -18 450 -18 q 106 31 201 -18 l 139 119 q 317 79 220 79 q 438 124 401 79 q 476 262 476 168 l 476 957 l 587 957 l 587 254 m 616 1053 l 539 1053 l 405 1184 l 270 1053 l 193 1053 l 328 1257 l 481 1257 l 616 1053 z "},"ĵ":{"ha":833,"x_min":146,"x_max":604,"o":"m 604 790 l 528 790 l 393 921 l 258 790 l 182 790 l 317 994 l 469 994 l 604 790 m 514 -36 q 468 -224 514 -169 q 309 -279 422 -279 q 146 -252 235 -279 l 174 -165 q 309 -187 249 -187 q 387 -155 366 -187 q 408 -25 408 -123 l 408 615 l 200 615 l 200 707 l 514 707 l 514 -36 z "},"Ķ":{"ha":833,"x_min":142,"x_max":818,"o":"m 818 0 l 677 0 l 354 469 l 253 359 l 253 0 l 142 0 l 142 957 l 253 957 l 253 498 l 677 957 l 806 957 l 432 553 l 818 0 m 455 -191 q 410 -169 428 -188 q 393 -124 393 -149 q 410 -80 393 -98 q 452 -61 427 -61 q 504 -85 482 -61 q 525 -144 525 -109 q 412 -302 525 -244 l 391 -264 q 455 -191 455 -233 z "},"ķ":{"ha":833,"x_min":146,"x_max":760,"o":"m 760 0 l 621 0 l 321 351 l 252 292 l 252 0 l 146 0 l 146 957 l 252 957 l 252 408 l 583 707 l 718 707 l 396 418 l 760 0 m 428 -191 q 383 -169 401 -188 q 366 -124 366 -149 q 383 -80 366 -98 q 425 -61 400 -61 q 476 -85 455 -61 q 498 -144 498 -109 q 385 -302 498 -244 l 364 -264 q 428 -191 428 -233 z "},"ĸ":{"ha":833,"x_min":146,"x_max":742,"o":"m 742 0 l 611 0 l 343 345 l 252 248 l 252 0 l 146 0 l 146 707 l 252 707 l 252 374 l 480 622 q 568 694 527 671 q 667 717 608 717 l 679 717 l 679 628 l 663 628 q 599 608 632 628 q 410 415 566 588 l 742 0 z "},"Ĺ":{"ha":833,"x_min":174,"x_max":694,"o":"m 694 0 l 174 0 l 174 957 l 285 957 l 285 97 l 694 97 l 694 0 m 574 1255 l 362 1051 l 286 1051 l 420 1255 l 574 1255 z "},"ĺ":{"ha":833,"x_min":165,"x_max":639,"o":"m 639 0 l 350 0 l 350 865 l 165 865 l 165 957 l 456 957 l 456 92 l 639 92 l 639 0 m 599 1257 l 387 1053 l 311 1053 l 446 1257 l 599 1257 z "},"Ļ":{"ha":833,"x_min":174,"x_max":694,"o":"m 694 0 l 174 0 l 174 957 l 285 957 l 285 97 l 694 97 l 694 0 m 433 -191 q 389 -169 406 -188 q 371 -124 371 -149 q 388 -80 371 -98 q 431 -61 406 -61 q 482 -85 460 -61 q 503 -144 503 -109 q 390 -302 503 -244 l 370 -264 q 433 -191 433 -233 z "},"ļ":{"ha":833,"x_min":165,"x_max":639,"o":"m 639 0 l 350 0 l 350 865 l 165 865 l 165 957 l 456 957 l 456 92 l 639 92 l 639 0 m 406 -191 q 361 -169 379 -188 q 344 -124 344 -149 q 361 -80 344 -98 q 404 -61 378 -61 q 455 -85 433 -61 q 476 -144 476 -109 q 363 -302 476 -244 l 342 -264 q 406 -191 406 -233 z "},"Ľ":{"ha":833,"x_min":174,"x_max":694,"o":"m 694 0 l 174 0 l 174 957 l 285 957 l 285 97 l 694 97 l 694 0 m 608 876 q 564 898 581 879 q 546 943 546 918 q 563 987 546 968 q 606 1006 581 1006 q 657 982 635 1006 q 678 923 678 958 q 565 764 678 823 l 545 803 q 608 876 608 833 z "},"ľ":{"ha":833,"x_min":165,"x_max":746,"o":"m 639 0 l 350 0 l 350 865 l 165 865 l 165 957 l 456 957 l 456 92 l 639 92 l 639 0 m 676 876 q 631 898 649 879 q 614 943 614 918 q 631 987 614 968 q 673 1006 648 1006 q 725 982 703 1006 q 746 923 746 958 q 633 764 746 823 l 612 803 q 676 876 676 833 z "},"Ŀ":{"ha":833,"x_min":174,"x_max":694,"o":"m 694 0 l 174 0 l 174 957 l 285 957 l 285 97 l 694 97 l 694 0 m 490 522 q 535 504 517 522 q 554 458 554 485 q 535 412 554 431 q 490 393 517 393 q 444 412 463 393 q 425 458 425 431 q 444 504 425 485 q 490 522 463 522 z "},"ŀ":{"ha":833,"x_min":165,"x_max":706,"o":"m 639 0 l 350 0 l 350 865 l 165 865 l 165 957 l 456 957 l 456 92 l 639 92 l 639 0 m 642 525 q 687 506 669 525 q 706 460 706 488 q 687 414 706 433 q 642 395 669 395 q 596 415 615 395 q 576 460 576 434 q 595 506 576 488 q 642 525 614 525 z "},"Ń":{"ha":833,"x_min":127,"x_max":705,"o":"m 705 0 l 582 0 l 239 755 l 239 0 l 127 0 l 127 957 l 252 957 l 596 208 l 596 957 l 705 957 l 705 0 m 599 1257 l 387 1053 l 311 1053 l 446 1257 l 599 1257 z "},"ń":{"ha":833,"x_min":146,"x_max":690,"o":"m 690 0 l 585 0 l 585 453 q 554 590 585 547 q 460 632 524 632 q 252 511 363 632 l 252 0 l 146 0 l 146 707 l 252 707 l 252 603 q 492 724 366 724 q 690 484 690 724 l 690 0 m 599 994 l 387 790 l 311 790 l 446 994 l 599 994 z "},"Ņ":{"ha":833,"x_min":127,"x_max":705,"o":"m 705 0 l 582 0 l 239 755 l 239 0 l 127 0 l 127 957 l 252 957 l 596 208 l 596 957 l 705 957 l 705 0 m 428 -191 q 383 -169 401 -188 q 366 -124 366 -149 q 383 -80 366 -98 q 425 -61 400 -61 q 476 -85 455 -61 q 498 -144 498 -109 q 385 -302 498 -244 l 364 -264 q 428 -191 428 -233 z "},"ņ":{"ha":833,"x_min":146,"x_max":690,"o":"m 690 0 l 585 0 l 585 453 q 554 590 585 547 q 460 632 524 632 q 252 511 363 632 l 252 0 l 146 0 l 146 707 l 252 707 l 252 603 q 492 724 366 724 q 690 484 690 724 l 690 0 m 420 -191 q 375 -169 393 -188 q 357 -124 357 -149 q 375 -80 357 -98 q 417 -61 392 -61 q 468 -85 447 -61 q 490 -144 490 -109 q 376 -302 490 -244 l 356 -264 q 420 -191 420 -233 z "},"Ň":{"ha":833,"x_min":127,"x_max":705,"o":"m 705 0 l 582 0 l 239 755 l 239 0 l 127 0 l 127 957 l 252 957 l 596 208 l 596 957 l 705 957 l 705 0 m 625 1257 l 490 1053 l 338 1053 l 203 1257 l 279 1257 l 414 1126 l 549 1257 l 625 1257 z "},"ň":{"ha":833,"x_min":146,"x_max":690,"o":"m 690 0 l 585 0 l 585 453 q 554 590 585 547 q 460 632 524 632 q 252 511 363 632 l 252 0 l 146 0 l 146 707 l 252 707 l 252 603 q 492 724 366 724 q 690 484 690 724 l 690 0 m 621 994 l 486 790 l 334 790 l 199 994 l 275 994 l 410 864 l 545 994 l 621 994 z "},"ŉ":{"ha":833,"x_min":6,"x_max":690,"o":"m 70 964 q 25 987 43 968 q 7 1031 7 1006 q 25 1076 7 1057 q 67 1095 42 1095 q 118 1070 97 1095 q 140 1012 140 1046 q 26 853 140 911 l 6 892 q 70 964 70 922 m 690 0 l 585 0 l 585 453 q 554 590 585 547 q 460 632 524 632 q 252 511 363 632 l 252 0 l 146 0 l 146 707 l 252 707 l 252 603 q 492 724 366 724 q 690 484 690 724 l 690 0 z "},"Ŋ":{"ha":833,"x_min":127,"x_max":705,"o":"m 705 -36 q 661 -224 705 -169 q 501 -279 616 -279 q 339 -252 429 -279 l 367 -165 q 501 -187 442 -187 q 578 -151 555 -187 q 600 -8 600 -115 l 235 762 l 235 0 l 127 0 l 127 957 l 252 957 l 600 218 l 600 957 l 705 957 l 705 -36 z "},"ŋ":{"ha":833,"x_min":146,"x_max":690,"o":"m 690 -36 q 645 -224 690 -169 q 485 -279 599 -279 q 322 -252 412 -279 l 350 -165 q 485 -187 426 -187 q 563 -155 542 -187 q 585 -25 585 -123 l 585 453 q 554 590 585 547 q 460 632 524 632 q 252 511 363 632 l 252 0 l 146 0 l 146 707 l 252 707 l 252 603 q 492 724 366 724 q 690 484 690 724 l 690 -36 z "},"Ō":{"ha":833,"x_min":86,"x_max":745,"o":"m 415 975 q 660 848 576 975 q 745 478 745 721 q 661 109 745 237 q 415 -18 576 -18 q 171 109 255 -18 q 86 478 86 236 q 170 848 86 720 q 415 975 254 975 m 415 79 q 627 478 627 79 q 415 878 627 878 q 258 774 312 878 q 204 478 204 671 q 258 181 204 283 q 415 79 311 79 m 647 1054 l 187 1054 l 187 1141 l 647 1141 l 647 1054 z "},"ō":{"ha":833,"x_min":98,"x_max":734,"o":"m 416 724 q 648 622 562 724 q 734 354 734 520 q 648 84 734 186 q 416 -18 562 -18 q 184 84 270 -18 q 98 354 98 186 q 184 622 98 521 q 416 724 271 724 m 416 74 q 568 155 513 74 q 624 353 624 237 q 569 553 624 475 q 416 632 514 632 q 264 554 318 632 q 210 353 210 477 q 264 154 210 235 q 416 74 319 74 m 647 829 l 187 829 l 187 916 l 647 916 l 647 829 z "},"Ŏ":{"ha":833,"x_min":86,"x_max":745,"o":"m 415 975 q 660 848 576 975 q 745 478 745 721 q 661 109 745 237 q 415 -18 576 -18 q 171 109 255 -18 q 86 478 86 236 q 170 848 86 720 q 415 975 254 975 m 415 79 q 627 478 627 79 q 415 878 627 878 q 258 774 312 878 q 204 478 204 671 q 258 181 204 283 q 415 79 311 79 m 610 1233 q 543 1099 593 1145 q 415 1053 492 1053 q 216 1233 251 1053 l 310 1233 q 416 1147 330 1147 q 515 1233 496 1147 l 610 1233 z "},"ŏ":{"ha":833,"x_min":98,"x_max":734,"o":"m 416 724 q 648 622 562 724 q 734 354 734 520 q 648 84 734 186 q 416 -18 562 -18 q 184 84 270 -18 q 98 354 98 186 q 184 622 98 521 q 416 724 271 724 m 416 74 q 568 155 513 74 q 624 353 624 237 q 569 553 624 475 q 416 632 514 632 q 264 554 318 632 q 210 353 210 477 q 264 154 210 235 q 416 74 319 74 m 610 970 q 543 836 593 882 q 415 790 492 790 q 216 970 251 790 l 310 970 q 416 884 330 884 q 515 970 496 884 l 610 970 z "},"Ő":{"ha":833,"x_min":86,"x_max":745,"o":"m 415 975 q 660 848 576 975 q 745 478 745 721 q 661 109 745 237 q 415 -18 576 -18 q 171 109 255 -18 q 86 478 86 236 q 170 848 86 720 q 415 975 254 975 m 415 79 q 627 478 627 79 q 415 878 627 878 q 258 774 312 878 q 204 478 204 671 q 258 181 204 283 q 415 79 311 79 m 683 1257 l 528 1053 l 451 1053 l 545 1257 l 683 1257 m 461 1257 l 305 1053 l 229 1053 l 322 1257 l 461 1257 z "},"ő":{"ha":833,"x_min":98,"x_max":734,"o":"m 416 724 q 648 622 562 724 q 734 354 734 520 q 648 84 734 186 q 416 -18 562 -18 q 184 84 270 -18 q 98 354 98 186 q 184 622 98 521 q 416 724 271 724 m 416 74 q 568 155 513 74 q 624 353 624 237 q 569 553 624 475 q 416 632 514 632 q 264 554 318 632 q 210 353 210 477 q 264 154 210 235 q 416 74 319 74 m 683 994 l 528 790 l 451 790 l 545 994 l 683 994 m 461 994 l 305 790 l 229 790 l 322 994 l 461 994 z "},"Ŕ":{"ha":833,"x_min":142,"x_max":796,"o":"m 796 0 l 657 0 l 376 435 l 253 435 l 253 0 l 142 0 l 142 957 l 412 957 q 628 891 549 957 q 707 707 707 825 q 649 551 707 619 q 490 458 591 483 l 796 0 m 253 532 l 393 532 q 536 579 481 532 q 591 700 591 627 q 396 860 591 860 l 253 860 l 253 532 m 571 1257 l 359 1053 l 283 1053 l 418 1257 l 571 1257 z "},"ŕ":{"ha":833,"x_min":221,"x_max":701,"o":"m 701 688 l 659 586 q 538 616 589 616 q 446 590 491 616 q 364 513 401 563 q 326 457 326 463 l 326 0 l 221 0 l 221 707 l 326 707 l 326 564 q 546 724 411 724 q 701 688 626 724 m 612 994 l 401 790 l 325 790 l 459 994 l 612 994 z "},"Ŗ":{"ha":833,"x_min":142,"x_max":796,"o":"m 796 0 l 657 0 l 376 435 l 253 435 l 253 0 l 142 0 l 142 957 l 412 957 q 628 891 549 957 q 707 707 707 825 q 649 551 707 619 q 490 458 591 483 l 796 0 m 253 532 l 393 532 q 536 579 481 532 q 591 700 591 627 q 396 860 591 860 l 253 860 l 253 532 m 425 -191 q 380 -169 398 -188 q 363 -124 363 -149 q 380 -80 363 -98 q 422 -61 397 -61 q 474 -85 452 -61 q 495 -144 495 -109 q 382 -302 495 -244 l 361 -264 q 425 -191 425 -233 z "},"ŗ":{"ha":833,"x_min":221,"x_max":701,"o":"m 701 688 l 659 586 q 538 616 589 616 q 446 590 491 616 q 364 513 401 563 q 326 457 326 463 l 326 0 l 221 0 l 221 707 l 326 707 l 326 564 q 546 724 411 724 q 701 688 626 724 m 455 -191 q 410 -169 428 -188 q 393 -124 393 -149 q 410 -80 393 -98 q 452 -61 427 -61 q 504 -85 482 -61 q 525 -144 525 -109 q 412 -302 525 -244 l 391 -264 q 455 -191 455 -233 z "},"Ř":{"ha":833,"x_min":142,"x_max":796,"o":"m 796 0 l 657 0 l 376 435 l 253 435 l 253 0 l 142 0 l 142 957 l 412 957 q 628 891 549 957 q 707 707 707 825 q 649 551 707 619 q 490 458 591 483 l 796 0 m 253 532 l 393 532 q 536 579 481 532 q 591 700 591 627 q 396 860 591 860 l 253 860 l 253 532 m 604 1257 l 469 1053 l 317 1053 l 182 1257 l 258 1257 l 393 1126 l 528 1257 l 604 1257 z "},"ř":{"ha":833,"x_min":221,"x_max":701,"o":"m 701 688 l 659 586 q 538 616 589 616 q 446 590 491 616 q 364 513 401 563 q 326 457 326 463 l 326 0 l 221 0 l 221 707 l 326 707 l 326 564 q 546 724 411 724 q 701 688 626 724 m 657 994 l 522 790 l 370 790 l 235 994 l 311 994 l 446 864 l 581 994 l 657 994 z "},"Ś":{"ha":833,"x_min":154,"x_max":693,"o":"m 621 851 q 458 880 535 880 q 317 841 372 880 q 262 728 262 801 q 406 575 262 641 q 546 507 511 526 q 615 455 580 488 q 672 377 650 422 q 693 275 693 332 q 599 59 693 136 q 378 -18 505 -18 q 161 31 254 -18 l 184 126 q 375 77 294 77 q 527 126 470 77 q 585 261 585 175 q 547 369 585 325 q 410 460 510 414 q 276 525 307 507 q 216 572 246 542 q 170 641 186 603 q 154 724 154 679 q 239 909 154 842 q 456 975 325 975 q 646 946 551 975 l 621 851 m 608 1257 l 397 1053 l 321 1053 l 455 1257 l 608 1257 z "},"ś":{"ha":833,"x_min":158,"x_max":681,"o":"m 616 606 q 449 635 528 635 q 313 606 363 635 q 262 529 262 577 q 286 476 262 498 q 378 433 309 453 l 479 404 q 593 357 549 385 q 659 291 637 330 q 681 200 681 252 q 596 40 681 99 q 380 -18 511 -18 q 165 21 250 -18 l 186 113 q 376 71 275 71 q 520 103 465 71 q 575 191 575 136 q 548 256 575 227 q 418 316 520 285 q 298 354 336 341 q 226 391 259 366 q 175 449 193 415 q 158 525 158 483 q 238 670 158 616 q 450 724 318 724 q 640 694 536 724 l 616 606 m 599 994 l 387 790 l 311 790 l 446 994 l 599 994 z "},"Ŝ":{"ha":833,"x_min":154,"x_max":693,"o":"m 621 851 q 458 880 535 880 q 317 841 372 880 q 262 728 262 801 q 406 575 262 641 q 546 507 511 526 q 615 455 580 488 q 672 377 650 422 q 693 275 693 332 q 599 59 693 136 q 378 -18 505 -18 q 161 31 254 -18 l 184 126 q 375 77 294 77 q 527 126 470 77 q 585 261 585 175 q 547 369 585 325 q 410 460 510 414 q 276 525 307 507 q 216 572 246 542 q 170 641 186 603 q 154 724 154 679 q 239 909 154 842 q 456 975 325 975 q 646 946 551 975 l 621 851 m 632 1053 l 555 1053 l 421 1184 l 286 1053 l 210 1053 l 345 1257 l 497 1257 l 632 1053 z "},"ŝ":{"ha":833,"x_min":158,"x_max":681,"o":"m 616 606 q 449 635 528 635 q 313 606 363 635 q 262 529 262 577 q 286 476 262 498 q 378 433 309 453 l 479 404 q 593 357 549 385 q 659 291 637 330 q 681 200 681 252 q 596 40 681 99 q 380 -18 511 -18 q 165 21 250 -18 l 186 113 q 376 71 275 71 q 520 103 465 71 q 575 191 575 136 q 548 256 575 227 q 418 316 520 285 q 298 354 336 341 q 226 391 259 366 q 175 449 193 415 q 158 525 158 483 q 238 670 158 616 q 450 724 318 724 q 640 694 536 724 l 616 606 m 632 790 l 555 790 l 421 921 l 286 790 l 210 790 l 345 994 l 497 994 l 632 790 z "},"Ş":{"ha":833,"x_min":154,"x_max":693,"o":"m 621 851 q 458 880 535 880 q 317 841 372 880 q 262 728 262 801 q 406 575 262 641 q 546 507 511 526 q 615 455 580 488 q 672 377 650 422 q 693 275 693 332 q 599 59 693 136 q 378 -18 505 -18 q 161 31 254 -18 l 184 126 q 375 77 294 77 q 527 126 470 77 q 585 261 585 175 q 547 369 585 325 q 410 460 510 414 q 276 525 307 507 q 216 572 246 542 q 170 641 186 603 q 154 724 154 679 q 239 909 154 842 q 456 975 325 975 q 646 946 551 975 l 621 851 m 420 -191 q 376 -169 393 -188 q 358 -124 358 -149 q 375 -80 358 -98 q 418 -61 393 -61 q 469 -85 448 -61 q 490 -144 490 -109 q 377 -302 490 -244 l 357 -264 q 420 -191 420 -233 z "},"ş":{"ha":833,"x_min":158,"x_max":681,"o":"m 616 606 q 449 635 528 635 q 313 606 363 635 q 262 529 262 577 q 286 476 262 498 q 378 433 309 453 l 479 404 q 593 357 549 385 q 659 291 637 330 q 681 200 681 252 q 596 40 681 99 q 380 -18 511 -18 q 165 21 250 -18 l 186 113 q 376 71 275 71 q 520 103 465 71 q 575 191 575 136 q 548 256 575 227 q 418 316 520 285 q 298 354 336 341 q 226 391 259 366 q 175 449 193 415 q 158 525 158 483 q 238 670 158 616 q 450 724 318 724 q 640 694 536 724 l 616 606 m 420 -191 q 376 -169 393 -188 q 358 -124 358 -149 q 375 -80 358 -98 q 418 -61 393 -61 q 469 -85 448 -61 q 490 -144 490 -109 q 377 -302 490 -244 l 357 -264 q 420 -191 420 -233 z "},"Ţ":{"ha":833,"x_min":66,"x_max":768,"o":"m 768 867 l 473 867 l 473 0 l 363 0 l 363 867 l 66 867 l 66 957 l 768 957 l 768 867 m 415 -191 q 370 -169 388 -188 q 353 -124 353 -149 q 370 -80 353 -98 q 412 -61 387 -61 q 464 -85 442 -61 q 485 -144 485 -109 q 372 -302 485 -244 l 351 -264 q 415 -191 415 -233 z "},"ţ":{"ha":833,"x_min":163,"x_max":697,"o":"m 697 32 q 488 -17 591 -17 q 298 183 298 -17 l 298 615 l 163 615 l 163 707 l 298 707 l 298 900 l 401 900 l 401 707 l 642 707 l 642 615 l 401 615 l 401 211 q 430 111 401 146 q 507 75 458 75 q 679 114 594 75 l 697 32 m 463 -191 q 418 -169 435 -188 q 400 -124 400 -149 q 417 -80 400 -98 q 460 -61 435 -61 q 511 -85 490 -61 q 532 -144 532 -109 q 419 -302 532 -244 l 399 -264 q 463 -191 463 -233 z "},"Ť":{"ha":833,"x_min":66,"x_max":768,"o":"m 768 867 l 473 867 l 473 0 l 363 0 l 363 867 l 66 867 l 66 957 l 768 957 l 768 867 m 628 1257 l 493 1053 l 340 1053 l 205 1257 l 282 1257 l 416 1126 l 551 1257 l 628 1257 z "},"ť":{"ha":833,"x_min":61,"x_max":814,"o":"m 595 32 q 386 -17 489 -17 q 197 183 197 -17 l 197 615 l 61 615 l 61 707 l 197 707 l 197 900 l 300 900 l 300 707 l 540 707 l 540 615 l 300 615 l 300 211 q 328 111 300 146 q 406 75 357 75 q 577 114 492 75 l 595 32 m 744 876 q 699 898 717 879 q 682 943 682 918 q 699 987 682 968 q 741 1006 716 1006 q 792 982 771 1006 q 814 923 814 958 q 701 764 814 823 l 680 803 q 744 876 744 833 z "},"Ŧ":{"ha":833,"x_min":66,"x_max":768,"o":"m 768 867 l 473 867 l 473 606 l 676 606 l 676 509 l 473 509 l 473 0 l 363 0 l 363 509 l 160 509 l 160 606 l 363 606 l 363 867 l 66 867 l 66 957 l 768 957 l 768 867 z "},"ŧ":{"ha":833,"x_min":163,"x_max":697,"o":"m 697 32 q 488 -17 591 -17 q 298 183 298 -17 l 298 378 l 171 378 l 171 461 l 298 461 l 298 615 l 163 615 l 163 707 l 298 707 l 298 900 l 401 900 l 401 707 l 642 707 l 642 615 l 401 615 l 401 461 l 629 461 l 629 378 l 401 378 l 401 211 q 430 111 401 146 q 507 75 458 75 q 679 114 594 75 l 697 32 z "},"Ũ":{"ha":833,"x_min":142,"x_max":692,"o":"m 692 301 q 624 58 692 135 q 419 -18 557 -18 q 142 298 142 -18 l 142 957 l 253 957 l 253 309 q 419 79 253 79 q 542 134 503 79 q 581 310 581 188 l 581 957 l 692 957 l 692 301 m 657 1208 q 527 1053 634 1053 q 409 1091 489 1053 q 313 1124 340 1124 q 267 1103 286 1124 q 242 1053 247 1083 l 185 1053 q 315 1208 208 1208 q 433 1170 353 1208 q 530 1137 502 1137 q 576 1158 556 1137 q 600 1208 595 1178 l 657 1208 z "},"ũ":{"ha":833,"x_min":144,"x_max":689,"o":"m 689 0 l 583 0 l 583 104 q 343 -17 469 -17 q 144 224 144 -17 l 144 707 l 250 707 l 250 254 q 279 120 250 164 q 375 75 307 75 q 583 196 472 75 l 583 707 l 689 707 l 689 0 m 657 970 q 527 814 634 814 q 409 852 489 814 q 313 885 340 885 q 267 865 286 885 q 242 814 247 844 l 185 814 q 315 970 208 970 q 433 931 353 970 q 530 899 502 899 q 576 919 556 899 q 600 970 595 939 l 657 970 z "},"Ū":{"ha":833,"x_min":142,"x_max":692,"o":"m 692 301 q 624 58 692 135 q 419 -18 557 -18 q 142 298 142 -18 l 142 957 l 253 957 l 253 309 q 419 79 253 79 q 542 134 503 79 q 581 310 581 188 l 581 957 l 692 957 l 692 301 m 647 1054 l 187 1054 l 187 1141 l 647 1141 l 647 1054 z "},"ū":{"ha":833,"x_min":144,"x_max":689,"o":"m 689 0 l 583 0 l 583 104 q 343 -17 469 -17 q 144 224 144 -17 l 144 707 l 250 707 l 250 254 q 279 120 250 164 q 375 75 307 75 q 583 196 472 75 l 583 707 l 689 707 l 689 0 m 647 829 l 187 829 l 187 916 l 647 916 l 647 829 z "},"Ŭ":{"ha":833,"x_min":142,"x_max":692,"o":"m 692 301 q 624 58 692 135 q 419 -18 557 -18 q 142 298 142 -18 l 142 957 l 253 957 l 253 309 q 419 79 253 79 q 542 134 503 79 q 581 310 581 188 l 581 957 l 692 957 l 692 301 m 610 1233 q 543 1099 593 1145 q 415 1053 492 1053 q 216 1233 251 1053 l 310 1233 q 416 1147 330 1147 q 515 1233 496 1147 l 610 1233 z "},"ŭ":{"ha":833,"x_min":144,"x_max":689,"o":"m 689 0 l 583 0 l 583 104 q 343 -17 469 -17 q 144 224 144 -17 l 144 707 l 250 707 l 250 254 q 279 120 250 164 q 375 75 307 75 q 583 196 472 75 l 583 707 l 689 707 l 689 0 m 610 970 q 543 836 593 882 q 415 790 492 790 q 216 970 251 790 l 310 970 q 416 884 330 884 q 515 970 496 884 l 610 970 z "},"Ů":{"ha":833,"x_min":142,"x_max":692,"o":"m 692 301 q 624 58 692 135 q 419 -18 557 -18 q 142 298 142 -18 l 142 957 l 253 957 l 253 309 q 419 79 253 79 q 542 134 503 79 q 581 310 581 188 l 581 957 l 692 957 l 692 301 m 416 1311 q 508 1273 469 1311 q 546 1182 546 1234 q 508 1091 546 1129 q 416 1053 469 1053 q 326 1091 363 1053 q 288 1182 288 1129 q 326 1273 288 1234 q 416 1311 363 1311 m 416 1105 q 470 1128 448 1105 q 493 1182 493 1151 q 470 1235 493 1213 q 416 1258 448 1258 q 363 1235 386 1258 q 340 1182 340 1213 q 363 1128 340 1150 q 416 1105 385 1105 z "},"ů":{"ha":833,"x_min":144,"x_max":689,"o":"m 689 0 l 583 0 l 583 104 q 343 -17 469 -17 q 144 224 144 -17 l 144 707 l 250 707 l 250 254 q 279 120 250 164 q 375 75 307 75 q 583 196 472 75 l 583 707 l 689 707 l 689 0 m 416 1042 q 508 1003 469 1042 q 546 913 546 965 q 508 822 546 860 q 416 783 469 783 q 326 822 363 783 q 288 913 288 860 q 326 1003 288 965 q 416 1042 363 1042 m 416 836 q 470 859 448 836 q 493 913 493 882 q 470 966 493 943 q 416 989 448 989 q 363 966 386 989 q 340 913 340 943 q 363 859 340 881 q 416 836 385 836 z "},"Ű":{"ha":833,"x_min":142,"x_max":692,"o":"m 692 301 q 624 58 692 135 q 419 -18 557 -18 q 142 298 142 -18 l 142 957 l 253 957 l 253 309 q 419 79 253 79 q 542 134 503 79 q 581 310 581 188 l 581 957 l 692 957 l 692 301 m 673 1257 l 518 1053 l 441 1053 l 535 1257 l 673 1257 m 452 1257 l 296 1053 l 220 1053 l 313 1257 l 452 1257 z "},"ű":{"ha":833,"x_min":144,"x_max":689,"o":"m 689 0 l 583 0 l 583 104 q 343 -17 469 -17 q 144 224 144 -17 l 144 707 l 250 707 l 250 254 q 279 120 250 164 q 375 75 307 75 q 583 196 472 75 l 583 707 l 689 707 l 689 0 m 673 994 l 518 790 l 441 790 l 535 994 l 673 994 m 452 994 l 296 790 l 220 790 l 313 994 l 452 994 z "},"Ų":{"ha":833,"x_min":142,"x_max":692,"o":"m 562 -227 q 461 -249 513 -249 q 360 -214 399 -249 q 321 -123 321 -179 q 368 -16 321 -68 q 142 298 142 12 l 142 957 l 253 957 l 253 309 q 419 79 253 79 q 542 134 503 79 q 581 310 581 188 l 581 957 l 692 957 l 692 301 q 628 64 692 140 q 437 -18 564 -13 q 403 -96 403 -66 q 486 -182 403 -182 q 562 -167 509 -182 l 562 -227 z "},"ų":{"ha":833,"x_min":144,"x_max":764,"o":"m 764 -227 q 663 -249 715 -249 q 561 -214 600 -249 q 522 -123 522 -179 q 583 0 522 -62 l 583 104 q 343 -17 469 -17 q 144 224 144 -17 l 144 707 l 250 707 l 250 254 q 279 120 250 164 q 375 75 307 75 q 583 196 472 75 l 583 707 l 689 707 l 689 0 l 653 0 q 604 -96 604 -60 q 688 -182 604 -182 q 764 -167 710 -182 l 764 -227 z "},"Ŵ":{"ha":833,"x_min":29,"x_max":804,"o":"m 804 957 l 682 0 l 579 0 l 416 539 l 254 0 l 149 0 l 29 957 l 139 957 l 220 179 l 361 650 l 472 650 l 614 178 l 696 957 l 804 957 m 632 1053 l 555 1053 l 421 1184 l 286 1053 l 210 1053 l 345 1257 l 497 1257 l 632 1053 z "},"ŵ":{"ha":833,"x_min":78,"x_max":774,"o":"m 774 707 l 672 0 l 591 0 l 425 400 l 258 0 l 178 0 l 78 707 l 183 707 q 241 187 239 212 l 371 494 l 479 494 l 608 189 l 665 707 l 774 707 m 632 790 l 555 790 l 421 921 l 286 790 l 210 790 l 345 994 l 497 994 l 632 790 z "},"Ŷ":{"ha":833,"x_min":64,"x_max":772,"o":"m 772 957 l 473 410 l 473 0 l 363 0 l 363 410 l 64 957 l 189 957 l 418 526 l 647 957 l 772 957 m 632 1053 l 555 1053 l 421 1184 l 286 1053 l 210 1053 l 345 1257 l 497 1257 l 632 1053 z "},"ŷ":{"ha":833,"x_min":79,"x_max":722,"o":"m 722 707 l 454 0 q 339 -218 396 -156 q 208 -279 281 -279 q 79 -256 143 -279 l 97 -171 q 189 -187 149 -187 q 283 -143 246 -187 q 357 1 319 -99 l 92 707 l 207 707 l 407 143 l 607 707 l 722 707 m 632 790 l 555 790 l 421 921 l 286 790 l 210 790 l 345 994 l 497 994 l 632 790 z "},"Ź":{"ha":833,"x_min":123,"x_max":705,"o":"m 705 878 l 250 97 l 697 97 l 697 0 l 123 0 l 123 78 l 576 860 l 143 860 l 143 957 l 705 957 l 705 878 m 599 1257 l 387 1053 l 311 1053 l 446 1257 l 599 1257 z "},"ź":{"ha":833,"x_min":138,"x_max":681,"o":"m 681 0 l 138 0 l 138 57 l 541 614 l 147 614 l 147 707 l 681 707 l 681 654 l 278 93 l 681 93 l 681 0 m 585 994 l 373 790 l 297 790 l 431 994 l 585 994 z "},"Ż":{"ha":833,"x_min":123,"x_max":705,"o":"m 705 878 l 250 97 l 697 97 l 697 0 l 123 0 l 123 78 l 576 860 l 143 860 l 143 957 l 705 957 l 705 878 m 416 1182 q 462 1163 444 1182 q 481 1118 481 1145 q 462 1072 481 1090 q 416 1053 444 1053 q 371 1072 390 1053 q 351 1118 351 1091 q 370 1163 351 1145 q 416 1182 389 1182 z "},"ż":{"ha":833,"x_min":138,"x_max":681,"o":"m 681 0 l 138 0 l 138 57 l 541 614 l 147 614 l 147 707 l 681 707 l 681 654 l 278 93 l 681 93 l 681 0 m 416 975 q 462 957 444 975 q 481 911 481 938 q 462 865 481 884 q 416 846 444 846 q 371 865 390 846 q 351 911 351 884 q 370 957 351 938 q 416 975 389 975 z "},"ſ":{"ha":833,"x_min":245,"x_max":697,"o":"m 697 946 l 669 860 q 534 882 594 882 q 456 849 477 882 q 435 720 435 817 l 435 0 l 329 0 l 329 615 l 245 615 l 245 707 l 329 707 l 329 730 q 375 920 329 865 q 534 974 421 974 q 697 946 608 974 z "},";":{"ha":833,"x_min":335,"x_max":509,"o":"m 416 717 q 475 693 451 717 q 498 636 498 670 q 475 578 498 602 q 416 555 451 555 q 359 579 382 555 q 336 636 336 602 q 359 693 336 670 q 416 717 382 717 m 418 -18 q 359 11 382 -14 q 336 68 336 36 q 359 126 336 102 q 415 150 381 150 q 481 119 453 150 q 509 45 509 88 q 361 -163 509 -88 l 335 -114 q 418 -18 418 -73 z "},"΄":{"ha":833,"x_min":350,"x_max":484,"o":"m 484 1014 l 446 810 l 387 810 l 350 1014 l 484 1014 z "},"΅":{"ha":833,"x_min":189,"x_max":643,"o":"m 484 1122 l 446 918 l 387 918 l 350 1122 l 484 1122 m 262 954 q 314 933 294 954 q 335 880 335 913 q 314 829 335 850 q 262 807 293 807 q 211 829 233 807 q 189 880 189 851 q 211 933 189 912 q 262 954 232 954 m 572 954 q 623 933 603 954 q 643 880 643 912 q 622 829 643 851 q 572 807 602 807 q 520 829 542 807 q 498 880 498 851 q 519 933 498 912 q 572 954 541 954 z "},"Ά":{"ha":833,"x_min":39,"x_max":798,"o":"m 798 0 l 681 0 l 575 335 l 261 335 l 154 0 l 39 0 l 351 957 l 485 957 l 798 0 m 543 432 l 418 828 l 293 432 l 543 432 m 223 957 l 185 753 l 127 753 l 90 957 l 223 957 z "},"·":{"ha":833,"x_min":329,"x_max":497,"o":"m 412 545 q 473 520 448 545 q 497 460 497 496 q 472 397 497 423 q 412 371 448 371 q 353 397 378 371 q 329 460 329 423 q 353 520 329 496 q 412 545 377 545 z "},"Έ":{"ha":833,"x_min":22,"x_max":673,"o":"m 673 0 l 174 0 l 174 957 l 669 957 l 669 860 l 285 860 l 285 564 l 654 564 l 654 467 l 285 467 l 285 97 l 673 97 l 673 0 m 155 957 l 117 753 l 59 753 l 22 957 l 155 957 z "},"Ή":{"ha":833,"x_min":0,"x_max":692,"o":"m 692 0 l 581 0 l 581 475 l 253 475 l 253 0 l 142 0 l 142 957 l 253 957 l 253 572 l 581 572 l 581 957 l 692 957 l 692 0 m 134 957 l 96 753 l 37 753 l 0 957 l 134 957 z "},"Ί":{"ha":833,"x_min":24,"x_max":629,"o":"m 629 0 l 195 0 l 195 97 l 359 97 l 359 860 l 195 860 l 195 957 l 629 957 l 629 860 l 471 860 l 471 97 l 629 97 l 629 0 m 158 957 l 120 753 l 62 753 l 24 957 l 158 957 z "},"Ό":{"ha":833,"x_min":0,"x_max":745,"o":"m 415 975 q 660 848 576 975 q 745 478 745 721 q 661 109 745 237 q 415 -18 576 -18 q 171 109 255 -18 q 86 478 86 236 q 170 848 86 720 q 415 975 254 975 m 415 79 q 627 478 627 79 q 415 878 627 878 q 258 774 312 878 q 204 478 204 671 q 258 181 204 283 q 415 79 311 79 m 134 957 l 96 753 l 37 753 l 0 957 l 134 957 z "},"Ύ":{"ha":833,"x_min":0,"x_max":833,"o":"m 833 957 l 534 410 l 534 0 l 424 0 l 424 410 l 125 957 l 250 957 l 479 526 l 708 957 l 833 957 m 134 957 l 96 753 l 37 753 l 0 957 l 134 957 z "},"Ώ":{"ha":833,"x_min":0,"x_max":745,"o":"m 134 957 l 96 753 l 37 753 l 0 957 l 134 957 z "},"ΐ":{"ha":833,"x_min":127,"x_max":656,"o":"m 656 32 q 476 -17 552 -17 q 296 183 296 -17 l 296 707 l 401 707 l 401 211 q 496 75 401 75 q 637 113 547 75 l 656 32 m 421 1122 l 383 918 l 325 918 l 288 1122 l 421 1122 m 200 954 q 252 933 231 954 q 273 880 273 913 q 252 829 273 850 q 200 807 231 807 q 149 829 170 807 q 127 880 127 851 q 148 933 127 912 q 200 954 170 954 m 510 954 q 561 933 541 954 q 581 880 581 912 q 560 829 581 851 q 510 807 539 807 q 458 829 479 807 q 436 880 436 851 q 457 933 436 912 q 510 954 478 954 z "},"Α":{"ha":833,"x_min":39,"x_max":798,"o":"m 798 0 l 681 0 l 575 335 l 261 335 l 154 0 l 39 0 l 351 957 l 485 957 l 798 0 m 543 432 l 418 828 l 293 432 l 543 432 z "},"Β":{"ha":833,"x_min":142,"x_max":736,"o":"m 532 525 q 682 438 627 503 q 736 285 736 374 q 641 77 736 155 q 414 0 547 0 l 142 0 l 142 957 l 407 957 q 623 896 545 957 q 701 725 701 836 q 656 604 701 657 q 532 528 611 551 l 532 525 m 253 576 l 383 576 q 587 722 587 576 q 537 824 587 789 q 390 860 487 860 l 253 860 l 253 576 m 253 97 l 379 97 q 554 147 490 97 q 619 285 619 197 q 555 429 619 378 q 371 479 492 479 l 253 479 l 253 97 z "},"Γ":{"ha":833,"x_min":174,"x_max":694,"o":"m 694 860 l 285 860 l 285 0 l 174 0 l 174 957 l 694 957 l 694 860 z "},"Δ":{"ha":833,"x_min":39,"x_max":798,"o":"m 798 0 l 39 0 l 351 957 l 485 957 l 798 0 m 650 97 l 418 828 l 184 97 l 650 97 z "},"Ε":{"ha":833,"x_min":174,"x_max":673,"o":"m 673 0 l 174 0 l 174 957 l 669 957 l 669 860 l 285 860 l 285 564 l 654 564 l 654 467 l 285 467 l 285 97 l 673 97 l 673 0 z "},"Ζ":{"ha":833,"x_min":123,"x_max":705,"o":"m 705 878 l 250 97 l 697 97 l 697 0 l 123 0 l 123 78 l 576 860 l 143 860 l 143 957 l 705 957 l 705 878 z "},"Η":{"ha":833,"x_min":142,"x_max":692,"o":"m 692 0 l 581 0 l 581 475 l 253 475 l 253 0 l 142 0 l 142 957 l 253 957 l 253 572 l 581 572 l 581 957 l 692 957 l 692 0 z "},"Θ":{"ha":833,"x_min":86,"x_max":745,"o":"m 415 975 q 660 848 576 975 q 745 478 745 721 q 661 109 745 237 q 415 -18 576 -18 q 171 109 255 -18 q 86 478 86 236 q 170 848 86 720 q 415 975 254 975 m 415 79 q 627 478 627 79 q 415 878 627 878 q 258 774 312 878 q 204 478 204 671 q 258 181 204 283 q 415 79 311 79 m 539 432 l 294 432 l 294 529 l 539 529 l 539 432 z "},"Ι":{"ha":833,"x_min":195,"x_max":629,"o":"m 629 0 l 195 0 l 195 97 l 359 97 l 359 860 l 195 860 l 195 957 l 629 957 l 629 860 l 471 860 l 471 97 l 629 97 l 629 0 z "},"Κ":{"ha":833,"x_min":142,"x_max":818,"o":"m 818 0 l 677 0 l 354 469 l 253 359 l 253 0 l 142 0 l 142 957 l 253 957 l 253 498 l 677 957 l 806 957 l 432 553 l 818 0 z "},"Λ":{"ha":833,"x_min":36,"x_max":794,"o":"m 794 0 l 679 0 l 415 828 l 153 0 l 36 0 l 349 957 l 482 957 l 794 0 z "},"Μ":{"ha":833,"x_min":117,"x_max":725,"o":"m 725 0 l 618 0 l 618 821 l 473 428 l 368 428 l 224 821 l 224 0 l 117 0 l 117 957 l 261 957 l 421 521 l 581 957 l 725 957 l 725 0 z "},"Ν":{"ha":833,"x_min":127,"x_max":705,"o":"m 705 0 l 582 0 l 239 755 l 239 0 l 127 0 l 127 957 l 252 957 l 596 208 l 596 957 l 705 957 l 705 0 z "},"Ξ":{"ha":833,"x_min":139,"x_max":694,"o":"m 669 860 l 164 860 l 164 957 l 669 957 l 669 860 m 612 467 l 221 467 l 221 564 l 612 564 l 612 467 m 694 0 l 139 0 l 139 97 l 694 97 l 694 0 z "},"Ο":{"ha":833,"x_min":86,"x_max":745,"o":"m 415 975 q 660 848 576 975 q 745 478 745 721 q 661 109 745 237 q 415 -18 576 -18 q 171 109 255 -18 q 86 478 86 236 q 170 848 86 720 q 415 975 254 975 m 415 79 q 627 478 627 79 q 415 878 627 878 q 258 774 312 878 q 204 478 204 671 q 258 181 204 283 q 415 79 311 79 z "},"Π":{"ha":833,"x_min":142,"x_max":692,"o":"m 692 0 l 581 0 l 581 860 l 253 860 l 253 0 l 142 0 l 142 957 l 692 957 l 692 0 z "},"Ρ":{"ha":833,"x_min":174,"x_max":720,"o":"m 174 957 l 416 957 q 637 888 554 957 q 720 697 720 819 q 637 502 720 575 q 421 429 555 429 l 285 429 l 285 0 l 174 0 l 174 957 m 285 526 l 406 526 q 602 690 602 526 q 548 813 602 766 q 411 860 495 860 l 285 860 l 285 526 z "},"Σ":{"ha":833,"x_min":114,"x_max":710,"o":"m 710 0 l 114 0 l 114 81 l 424 503 l 131 872 l 131 957 l 684 957 l 684 860 l 261 860 l 541 509 l 237 97 l 710 97 l 710 0 z "},"Τ":{"ha":833,"x_min":66,"x_max":768,"o":"m 768 867 l 473 867 l 473 0 l 363 0 l 363 867 l 66 867 l 66 957 l 768 957 l 768 867 z "},"Υ":{"ha":833,"x_min":64,"x_max":772,"o":"m 772 957 l 473 410 l 473 0 l 363 0 l 363 410 l 64 957 l 189 957 l 418 526 l 647 957 l 772 957 z "},"Φ":{"ha":833,"x_min":37,"x_max":796,"o":"m 472 847 q 712 731 629 831 q 796 492 796 632 q 712 254 796 353 q 472 139 629 155 l 472 0 l 361 0 l 361 139 q 120 251 203 153 q 37 492 37 349 q 121 733 37 634 q 361 847 204 833 l 361 957 l 472 957 l 472 847 m 361 228 l 361 755 q 154 492 154 736 q 207 299 154 360 q 361 228 260 237 m 472 229 q 679 492 679 255 q 627 670 679 597 q 472 755 575 742 l 472 229 z "},"Χ":{"ha":833,"x_min":58,"x_max":789,"o":"m 789 0 l 665 0 l 422 392 l 182 0 l 58 0 l 364 488 l 60 957 l 187 957 l 422 578 l 660 957 l 782 957 l 482 488 l 789 0 z "},"Ψ":{"ha":833,"x_min":7,"x_max":827,"o":"m 827 872 l 821 872 q 771 853 787 872 q 751 798 756 835 q 736 648 745 762 q 471 393 715 393 l 471 0 l 359 0 l 359 393 q 97 648 118 393 q 82 798 88 762 q 61 853 76 835 q 12 872 45 872 l 7 872 l 7 960 l 17 960 q 109 949 75 960 q 162 908 142 938 q 188 834 181 879 q 203 672 195 789 q 244 529 208 574 q 359 484 279 484 l 359 957 l 471 957 l 471 484 q 544 496 513 484 q 595 539 575 509 q 622 606 616 569 q 635 741 629 642 q 672 911 642 863 q 817 960 702 960 l 827 960 l 827 872 z "},"Ω":{"ha":833,"x_min":86,"x_max":745,"o":"m 248 90 q 135 247 184 134 q 86 493 86 359 q 173 844 86 713 q 415 975 260 975 q 656 846 568 975 q 745 493 745 717 q 696 248 745 360 q 585 90 648 136 l 726 90 l 726 0 l 468 0 l 468 89 q 588 233 542 121 q 633 493 633 344 q 576 782 633 678 q 415 885 518 885 q 255 782 312 885 q 197 493 197 679 q 247 235 197 349 q 371 89 296 120 l 371 0 l 104 0 l 104 90 l 248 90 z "},"Ϊ":{"ha":833,"x_min":195,"x_max":629,"o":"m 629 0 l 195 0 l 195 97 l 359 97 l 359 860 l 195 860 l 195 957 l 629 957 l 629 860 l 471 860 l 471 97 l 629 97 l 629 0 m 551 1193 q 602 1172 582 1193 q 623 1119 623 1151 q 602 1068 623 1090 q 551 1046 581 1046 q 499 1068 521 1046 q 478 1119 478 1090 q 499 1172 478 1151 q 551 1193 520 1193 m 283 1193 q 335 1172 315 1193 q 355 1119 355 1152 q 334 1067 355 1089 q 283 1046 313 1046 q 232 1068 254 1046 q 210 1119 210 1090 q 231 1172 210 1151 q 283 1193 253 1193 z "},"Ϋ":{"ha":833,"x_min":64,"x_max":772,"o":"m 772 957 l 473 410 l 473 0 l 363 0 l 363 410 l 64 957 l 189 957 l 418 526 l 647 957 l 772 957 m 551 1193 q 602 1172 582 1193 q 623 1119 623 1151 q 602 1068 623 1090 q 551 1046 581 1046 q 499 1068 521 1046 q 478 1119 478 1090 q 499 1172 478 1151 q 551 1193 520 1193 m 283 1193 q 335 1172 315 1193 q 355 1119 355 1152 q 334 1067 355 1089 q 283 1046 313 1046 q 232 1068 254 1046 q 210 1119 210 1090 q 231 1172 210 1151 q 283 1193 253 1193 z "},"ά":{"ha":833,"x_min":98,"x_max":786,"o":"m 786 707 q 744 596 780 687 l 628 310 q 739 0 689 74 l 631 0 q 568 168 604 39 q 335 -18 488 -18 q 164 73 230 -18 q 98 313 98 164 q 177 609 98 494 q 379 724 255 724 q 509 659 458 724 q 593 454 559 594 q 684 707 669 661 l 786 707 m 532 304 q 483 507 496 461 q 441 592 471 552 q 366 632 412 632 q 257 542 304 632 q 210 326 210 452 q 248 146 210 218 q 349 74 286 74 q 532 304 445 74 m 462 1014 l 424 810 l 366 810 l 328 1014 l 462 1014 z "},"έ":{"ha":833,"x_min":119,"x_max":688,"o":"m 688 24 q 485 -18 595 -18 q 219 83 318 -18 q 119 353 119 184 q 219 622 119 521 q 482 724 319 724 q 685 686 589 724 l 657 599 q 484 632 561 632 q 315 573 382 632 q 233 407 249 515 l 590 407 l 590 315 l 232 315 q 315 139 245 205 q 485 74 385 74 q 669 109 574 74 l 688 24 m 530 1014 l 492 810 l 433 810 l 396 1014 l 530 1014 z "},"ή":{"ha":833,"x_min":125,"x_max":690,"o":"m 690 -279 l 585 -279 l 585 453 q 554 590 585 547 q 460 632 524 632 q 252 511 363 632 l 252 0 l 146 0 l 146 539 q 125 707 146 646 l 233 707 q 252 607 252 663 l 252 603 q 492 724 366 724 q 690 484 690 724 l 690 -279 m 484 1014 l 446 810 l 387 810 l 350 1014 l 484 1014 z "},"ί":{"ha":833,"x_min":285,"x_max":656,"o":"m 656 32 q 476 -17 552 -17 q 296 183 296 -17 l 296 707 l 401 707 l 401 211 q 496 75 401 75 q 637 113 547 75 l 656 32 m 418 1014 l 380 810 l 322 810 l 285 1014 l 418 1014 z "},"ΰ":{"ha":833,"x_min":146,"x_max":734,"o":"m 669 707 q 734 358 734 525 q 652 89 734 196 q 429 -18 569 -18 q 222 70 298 -18 q 146 301 146 158 l 146 707 l 252 707 l 252 301 q 297 135 252 197 q 429 74 343 74 q 575 147 526 74 q 625 358 625 220 q 557 707 625 525 l 669 707 m 484 1122 l 446 918 l 387 918 l 350 1122 l 484 1122 m 262 954 q 314 933 294 954 q 335 880 335 913 q 314 829 335 850 q 262 807 293 807 q 211 829 233 807 q 189 880 189 851 q 211 933 189 912 q 262 954 232 954 m 572 954 q 623 933 603 954 q 643 880 643 912 q 622 829 643 851 q 572 807 602 807 q 520 829 542 807 q 498 880 498 851 q 519 933 498 912 q 572 954 541 954 z "},"α":{"ha":833,"x_min":98,"x_max":786,"o":"m 786 707 q 744 596 780 687 l 628 310 q 739 0 689 74 l 631 0 q 568 168 604 39 q 335 -18 488 -18 q 164 73 230 -18 q 98 313 98 164 q 177 609 98 494 q 379 724 255 724 q 509 659 458 724 q 593 454 559 594 q 684 707 669 661 l 786 707 m 532 304 q 483 507 496 461 q 441 592 471 552 q 366 632 412 632 q 257 542 304 632 q 210 326 210 452 q 248 146 210 218 q 349 74 286 74 q 532 304 445 74 z "},"β":{"ha":833,"x_min":146,"x_max":739,"o":"m 472 525 q 739 265 739 478 q 661 65 739 145 q 463 -16 583 -16 q 309 9 379 -16 l 326 97 q 461 77 395 77 q 586 128 536 77 q 636 264 636 180 q 567 403 636 352 q 326 473 498 454 l 326 562 l 332 562 q 489 613 427 562 q 551 743 551 663 q 418 884 551 884 q 252 668 252 884 l 252 -279 l 146 -279 l 146 686 q 220 904 146 832 q 418 975 294 975 q 593 915 525 975 q 661 753 661 855 q 609 603 661 666 q 472 526 556 539 l 472 525 z "},"γ":{"ha":833,"x_min":92,"x_max":722,"o":"m 722 707 l 458 11 l 458 -279 l 353 -279 l 353 14 l 92 707 l 207 707 l 407 144 l 607 707 l 722 707 z "},"δ":{"ha":833,"x_min":98,"x_max":734,"o":"m 621 851 q 427 884 519 884 q 297 860 349 884 q 245 800 245 836 q 464 632 245 753 q 734 307 734 481 q 648 70 734 158 q 416 -18 561 -18 q 185 70 273 -18 q 98 307 98 158 q 159 483 98 404 q 321 607 219 562 q 135 804 135 728 q 218 928 135 881 q 425 975 300 975 q 650 939 528 975 l 621 851 m 408 554 q 210 306 210 469 q 267 143 210 212 q 416 74 323 74 q 567 143 510 74 q 624 306 624 212 q 408 554 624 440 z "},"ε":{"ha":833,"x_min":119,"x_max":688,"o":"m 688 24 q 485 -18 595 -18 q 219 83 318 -18 q 119 353 119 184 q 219 622 119 521 q 482 724 319 724 q 685 686 589 724 l 657 599 q 484 632 561 632 q 315 573 382 632 q 233 407 249 515 l 590 407 l 590 315 l 232 315 q 315 139 245 205 q 485 74 385 74 q 669 109 574 74 l 688 24 z "},"ζ":{"ha":833,"x_min":142,"x_max":732,"o":"m 685 872 l 480 666 q 306 458 359 545 q 253 296 253 371 q 315 156 253 204 q 493 107 378 107 l 525 107 q 683 69 635 107 q 732 -53 732 31 q 659 -215 732 -151 q 471 -279 587 -279 q 380 -273 417 -279 l 380 -182 q 463 -186 420 -186 q 588 -153 541 -186 q 635 -69 635 -120 q 600 -4 635 -24 q 490 16 564 16 l 456 16 q 225 89 309 16 q 142 294 142 162 q 201 468 142 374 q 387 684 261 562 l 567 860 l 296 860 l 296 957 l 685 957 l 685 872 z "},"η":{"ha":833,"x_min":125,"x_max":690,"o":"m 690 -279 l 585 -279 l 585 453 q 554 590 585 547 q 460 632 524 632 q 252 511 363 632 l 252 0 l 146 0 l 146 539 q 125 707 146 646 l 233 707 q 252 607 252 663 l 252 603 q 492 724 366 724 q 690 484 690 724 l 690 -279 z "},"θ":{"ha":833,"x_min":103,"x_max":711,"o":"m 407 975 q 633 847 555 975 q 711 479 711 718 q 632 115 711 248 q 407 -18 553 -18 q 182 115 261 -18 q 103 479 103 248 q 181 847 103 718 q 407 975 259 975 m 599 533 q 546 794 595 705 q 407 884 496 884 q 214 533 223 884 l 599 533 m 600 446 l 214 446 q 268 169 218 264 q 407 74 318 74 q 547 169 496 74 q 600 446 597 264 z "},"ι":{"ha":833,"x_min":296,"x_max":656,"o":"m 656 32 q 476 -17 552 -17 q 296 183 296 -17 l 296 707 l 401 707 l 401 211 q 496 75 401 75 q 637 113 547 75 l 656 32 z "},"κ":{"ha":833,"x_min":146,"x_max":742,"o":"m 742 0 l 611 0 l 343 345 l 252 248 l 252 0 l 146 0 l 146 707 l 252 707 l 252 374 l 480 622 q 568 694 527 671 q 667 717 608 717 l 679 717 l 679 628 l 663 628 q 599 608 632 628 q 410 415 566 588 l 742 0 z "},"λ":{"ha":833,"x_min":57,"x_max":798,"o":"m 798 87 l 762 -8 q 661 19 711 -8 q 577 132 612 45 l 437 471 l 182 0 l 57 0 l 387 590 q 295 811 307 785 q 260 861 283 838 q 203 884 237 884 q 82 860 149 884 l 57 945 q 208 975 127 975 q 335 943 295 975 q 397 856 374 911 l 676 180 q 798 87 714 91 z "},"μ":{"ha":833,"x_min":146,"x_max":710,"o":"m 710 0 l 600 0 q 585 79 585 39 l 585 92 q 516 12 566 41 q 416 -17 466 -17 q 316 7 361 -17 q 252 74 272 31 l 252 -279 l 146 -279 l 146 707 l 252 707 l 252 281 q 296 133 252 189 q 416 77 341 77 q 538 135 492 77 q 585 281 585 194 l 585 707 l 690 707 l 690 164 q 710 0 690 67 z "},"ν":{"ha":833,"x_min":92,"x_max":722,"o":"m 722 707 l 454 0 l 358 0 l 92 707 l 207 707 l 407 144 l 607 707 l 722 707 z "},"ξ":{"ha":833,"x_min":149,"x_max":737,"o":"m 553 525 q 319 375 378 439 q 260 245 260 311 q 316 144 260 180 q 472 107 372 107 l 530 107 q 687 68 637 107 q 737 -52 737 30 q 665 -215 737 -150 q 476 -279 592 -279 q 387 -275 429 -279 l 387 -182 q 468 -186 427 -186 q 591 -152 541 -186 q 642 -69 642 -117 q 505 16 642 16 l 450 16 q 231 78 313 16 q 149 248 149 140 q 207 394 149 326 q 429 542 264 462 q 324 597 370 551 q 278 703 278 642 q 439 864 278 818 l 256 864 l 256 957 l 643 957 l 643 865 l 599 865 q 436 799 494 841 q 378 704 378 756 q 429 629 378 659 q 553 596 480 600 l 553 525 z "},"ο":{"ha":833,"x_min":98,"x_max":734,"o":"m 416 724 q 648 622 562 724 q 734 354 734 520 q 648 84 734 186 q 416 -18 562 -18 q 184 84 270 -18 q 98 354 98 186 q 184 622 98 521 q 416 724 271 724 m 416 74 q 568 155 513 74 q 624 353 624 237 q 569 553 624 475 q 416 632 514 632 q 264 554 318 632 q 210 353 210 477 q 264 154 210 235 q 416 74 319 74 z "},"π":{"ha":833,"x_min":41,"x_max":791,"o":"m 791 615 l 667 615 l 667 0 l 561 0 l 561 615 l 292 615 l 292 0 l 186 0 l 186 615 l 138 615 q 41 600 94 615 l 41 693 q 134 707 85 707 l 791 707 l 791 615 z "},"ρ":{"ha":833,"x_min":98,"x_max":734,"o":"m 98 -279 l 98 354 q 184 622 98 521 q 416 724 271 724 q 648 622 562 724 q 734 354 734 520 q 648 84 734 186 q 416 -18 562 -18 q 204 62 288 -18 l 204 -279 l 98 -279 m 416 74 q 568 155 513 74 q 624 353 624 237 q 569 553 624 475 q 416 632 514 632 q 260 553 317 632 q 204 353 204 474 q 261 156 204 237 q 416 74 318 74 z "},"ς":{"ha":833,"x_min":127,"x_max":715,"o":"m 659 591 q 461 633 545 633 q 303 542 368 633 q 237 330 237 451 q 291 170 237 232 q 439 107 345 107 l 509 107 q 667 69 618 107 q 715 -53 715 31 q 643 -215 715 -151 q 454 -279 570 -279 q 364 -273 401 -279 l 364 -182 q 446 -186 404 -186 q 571 -153 524 -186 q 618 -69 618 -120 q 583 -3 618 -24 q 473 17 547 17 l 401 17 q 201 108 275 17 q 127 326 127 199 q 226 601 127 478 q 460 724 325 724 q 682 677 569 724 l 659 591 z "},"σ":{"ha":833,"x_min":98,"x_max":791,"o":"m 791 615 l 646 615 q 710 503 685 580 q 734 346 734 426 q 649 81 734 180 q 416 -18 563 -18 q 184 80 269 -18 q 98 346 98 179 q 184 609 98 511 q 416 707 269 707 l 791 707 l 791 615 m 624 345 q 602 504 624 426 q 546 615 580 581 l 416 615 q 263 541 317 615 q 210 345 210 467 q 264 151 210 228 q 416 74 319 74 q 569 152 513 74 q 624 345 624 230 z "},"τ":{"ha":833,"x_min":114,"x_max":720,"o":"m 720 615 l 473 615 l 473 0 l 368 0 l 368 615 l 210 615 q 114 600 165 615 l 114 693 q 205 707 158 707 l 720 707 l 720 615 z "},"υ":{"ha":833,"x_min":146,"x_max":734,"o":"m 669 707 q 734 358 734 525 q 652 89 734 196 q 429 -18 569 -18 q 222 70 298 -18 q 146 301 146 158 l 146 707 l 252 707 l 252 301 q 297 135 252 197 q 429 74 343 74 q 575 147 526 74 q 625 358 625 220 q 557 707 625 525 l 669 707 z "},"φ":{"ha":833,"x_min":69,"x_max":761,"o":"m 468 721 q 683 602 605 705 q 761 354 761 499 q 683 105 761 208 q 468 -12 605 3 l 468 -279 l 363 -279 l 363 -14 q 148 103 226 0 q 69 354 69 207 q 148 602 69 499 q 363 720 226 705 l 363 957 l 468 957 l 468 721 m 363 78 l 363 628 q 226 542 272 614 q 180 353 180 469 q 227 163 180 237 q 363 78 273 89 m 468 77 q 602 160 557 87 q 647 353 647 233 q 468 627 647 600 l 468 77 z "},"χ":{"ha":833,"x_min":72,"x_max":761,"o":"m 761 -184 l 737 -281 q 646 -252 694 -280 q 557 -146 599 -224 l 410 131 l 184 -279 l 77 -279 l 354 233 l 197 519 q 141 589 170 568 q 72 612 112 610 l 96 708 q 149 699 122 707 q 202 669 176 690 q 244 627 229 649 q 312 508 260 604 l 407 335 l 610 707 l 724 707 l 463 232 l 639 -94 q 691 -161 663 -140 q 761 -184 719 -183 z "},"ψ":{"ha":833,"x_min":58,"x_max":750,"o":"m 685 707 q 750 367 750 557 q 679 91 750 176 q 464 -7 608 5 l 464 -279 l 358 -279 l 358 -8 q 148 86 216 6 q 81 339 81 165 q 87 466 81 389 q 93 587 93 540 q 58 707 93 646 l 172 707 q 203 587 203 656 q 197 460 203 534 q 191 339 191 387 q 231 152 191 205 q 358 86 272 98 l 358 957 l 464 957 l 464 85 q 591 147 543 93 q 640 367 640 201 q 575 707 640 555 l 685 707 z "},"ω":{"ha":833,"x_min":58,"x_max":774,"o":"m 736 707 q 774 342 774 517 q 729 60 774 138 q 589 -18 685 -18 q 416 149 463 -18 q 241 -18 364 -18 q 102 58 146 -18 q 58 338 58 134 q 94 707 58 513 l 204 707 q 168 338 168 485 q 185 138 168 202 q 261 74 203 74 q 336 157 309 74 q 364 332 364 241 l 364 521 l 469 521 l 469 332 q 496 158 469 241 q 570 74 524 74 q 641 129 618 74 q 664 342 664 184 q 627 707 664 489 l 736 707 z "},"ϊ":{"ha":833,"x_min":161,"x_max":656,"o":"m 656 32 q 476 -17 552 -17 q 296 183 296 -17 l 296 707 l 401 707 l 401 211 q 496 75 401 75 q 637 113 547 75 l 656 32 m 503 954 q 553 933 533 954 q 574 880 574 912 q 553 829 574 851 q 503 807 532 807 q 451 829 472 807 q 429 880 429 851 q 450 933 429 912 q 503 954 471 954 m 235 954 q 286 933 266 954 q 307 880 307 913 q 286 829 307 850 q 235 807 264 807 q 183 829 205 807 q 161 880 161 851 q 182 933 161 912 q 235 954 204 954 z "},"ϋ":{"ha":833,"x_min":146,"x_max":734,"o":"m 669 707 q 734 358 734 525 q 652 89 734 196 q 429 -18 569 -18 q 222 70 298 -18 q 146 301 146 158 l 146 707 l 252 707 l 252 301 q 297 135 252 197 q 429 74 343 74 q 575 147 526 74 q 625 358 625 220 q 557 707 625 525 l 669 707 m 554 954 q 605 933 585 954 q 625 880 625 912 q 604 829 625 851 q 554 807 583 807 q 502 829 524 807 q 481 880 481 851 q 502 933 481 912 q 554 954 523 954 m 286 954 q 338 933 317 954 q 358 880 358 913 q 337 829 358 850 q 286 807 316 807 q 234 829 256 807 q 212 880 212 851 q 234 933 212 912 q 286 954 256 954 z "},"ό":{"ha":833,"x_min":98,"x_max":734,"o":"m 416 724 q 648 622 562 724 q 734 354 734 520 q 648 84 734 186 q 416 -18 562 -18 q 184 84 270 -18 q 98 354 98 186 q 184 622 98 521 q 416 724 271 724 m 416 74 q 568 155 513 74 q 624 353 624 237 q 569 553 624 475 q 416 632 514 632 q 264 554 318 632 q 210 353 210 477 q 264 154 210 235 q 416 74 319 74 m 484 1014 l 446 810 l 387 810 l 350 1014 l 484 1014 z "},"ύ":{"ha":833,"x_min":146,"x_max":734,"o":"m 669 707 q 734 358 734 525 q 652 89 734 196 q 429 -18 569 -18 q 222 70 298 -18 q 146 301 146 158 l 146 707 l 252 707 l 252 301 q 297 135 252 197 q 429 74 343 74 q 575 147 526 74 q 625 358 625 220 q 557 707 625 525 l 669 707 m 484 1014 l 446 810 l 387 810 l 350 1014 l 484 1014 z "},"ώ":{"ha":833,"x_min":58,"x_max":774,"o":"m 736 707 q 774 342 774 517 q 729 60 774 138 q 589 -18 685 -18 q 416 149 463 -18 q 241 -18 364 -18 q 102 58 146 -18 q 58 338 58 134 q 94 707 58 513 l 204 707 q 168 338 168 485 q 185 138 168 202 q 261 74 203 74 q 336 157 309 74 q 364 332 364 241 l 364 521 l 469 521 l 469 332 q 496 158 469 241 q 570 74 524 74 q 641 129 618 74 q 664 342 664 184 q 627 707 664 489 l 736 707 m 484 1014 l 446 810 l 387 810 l 350 1014 l 484 1014 z "},"Ё":{"ha":833,"x_min":174,"x_max":673,"o":"m 673 0 l 174 0 l 174 957 l 669 957 l 669 860 l 285 860 l 285 564 l 654 564 l 654 467 l 285 467 l 285 97 l 673 97 l 673 0 m 562 1196 q 613 1175 593 1196 q 633 1122 633 1154 q 612 1070 633 1093 q 562 1048 591 1048 q 510 1070 532 1048 q 489 1122 489 1093 q 510 1175 489 1154 q 562 1196 531 1196 m 294 1196 q 346 1175 326 1196 q 366 1122 366 1154 q 345 1070 366 1092 q 294 1048 324 1048 q 242 1070 264 1048 q 220 1122 220 1093 q 242 1175 220 1154 q 294 1196 264 1196 z "},"Ђ":{"ha":833,"x_min":4,"x_max":757,"o":"m 757 313 q 694 74 757 151 q 521 -3 632 -3 q 440 14 486 -3 l 471 96 q 528 89 506 89 q 614 145 583 89 q 646 311 646 202 l 646 317 q 481 529 646 529 q 314 471 399 529 l 314 0 l 203 0 l 203 867 l 4 867 l 4 957 l 511 957 l 511 867 l 314 867 l 314 566 q 494 621 397 621 q 686 542 616 621 q 757 319 757 463 l 757 313 z "},"Ѓ":{"ha":833,"x_min":174,"x_max":694,"o":"m 694 860 l 285 860 l 285 0 l 174 0 l 174 957 l 694 957 l 694 860 m 599 1244 l 387 1040 l 311 1040 l 446 1244 l 599 1244 z "},"Є":{"ha":833,"x_min":86,"x_max":726,"o":"m 726 60 q 465 -18 614 -18 q 183 109 279 -18 q 86 478 86 237 q 180 843 86 711 q 465 975 273 975 q 602 958 534 975 q 711 911 670 940 l 675 823 q 465 878 579 878 q 205 530 218 878 l 587 530 l 587 433 l 205 433 q 465 79 221 79 q 692 147 576 79 l 726 60 z "},"Ѕ":{"ha":833,"x_min":154,"x_max":693,"o":"m 621 851 q 458 880 535 880 q 317 841 372 880 q 262 728 262 801 q 406 575 262 641 q 546 507 511 526 q 615 455 580 488 q 672 377 650 422 q 693 275 693 332 q 599 59 693 136 q 378 -18 505 -18 q 161 31 254 -18 l 184 126 q 375 77 294 77 q 527 126 470 77 q 585 261 585 175 q 547 369 585 325 q 410 460 510 414 q 276 525 307 507 q 216 572 246 542 q 170 641 186 603 q 154 724 154 679 q 239 909 154 842 q 456 975 325 975 q 646 946 551 975 l 621 851 z "},"І":{"ha":833,"x_min":195,"x_max":629,"o":"m 629 0 l 195 0 l 195 97 l 359 97 l 359 860 l 195 860 l 195 957 l 629 957 l 629 860 l 471 860 l 471 97 l 629 97 l 629 0 z "},"Ї":{"ha":833,"x_min":195,"x_max":629,"o":"m 629 0 l 195 0 l 195 97 l 359 97 l 359 860 l 195 860 l 195 957 l 629 957 l 629 860 l 471 860 l 471 97 l 629 97 l 629 0 m 551 1193 q 602 1172 582 1193 q 623 1119 623 1151 q 602 1068 623 1090 q 551 1046 581 1046 q 499 1068 521 1046 q 478 1119 478 1090 q 499 1172 478 1151 q 551 1193 520 1193 m 283 1193 q 335 1172 315 1193 q 355 1119 355 1152 q 334 1067 355 1089 q 283 1046 313 1046 q 232 1068 254 1046 q 210 1119 210 1090 q 231 1172 210 1151 q 283 1193 253 1193 z "},"Ј":{"ha":833,"x_min":106,"x_max":587,"o":"m 587 254 q 518 52 587 123 q 317 -18 450 -18 q 106 31 201 -18 l 139 119 q 317 79 220 79 q 438 124 401 79 q 476 262 476 168 l 476 957 l 587 957 l 587 254 z "},"Љ":{"ha":833,"x_min":3,"x_max":807,"o":"m 497 572 l 519 572 q 807 283 807 572 q 741 73 807 146 q 554 0 674 0 l 386 0 l 386 860 l 195 860 l 195 212 q 158 34 195 76 q 29 -8 122 -8 l 3 -8 l 3 89 l 9 89 q 67 113 50 89 q 83 224 83 138 l 83 957 l 497 957 l 497 572 m 497 97 l 519 97 q 652 142 613 97 q 690 283 690 188 q 648 428 690 381 q 511 475 606 475 l 497 475 l 497 97 z "},"Њ":{"ha":833,"x_min":83,"x_max":807,"o":"m 497 572 l 519 572 q 807 283 807 572 q 741 73 807 146 q 554 0 674 0 l 386 0 l 386 475 l 195 475 l 195 0 l 83 0 l 83 957 l 195 957 l 195 572 l 386 572 l 386 957 l 497 957 l 497 572 m 497 97 l 519 97 q 651 143 612 97 q 690 283 690 189 q 648 428 690 381 q 511 475 606 475 l 497 475 l 497 97 z "},"Ћ":{"ha":833,"x_min":4,"x_max":757,"o":"m 757 0 l 646 0 l 646 317 q 481 529 646 529 q 314 471 399 529 l 314 0 l 203 0 l 203 867 l 4 867 l 4 957 l 511 957 l 511 867 l 314 867 l 314 566 q 494 621 397 621 q 686 542 616 621 q 757 319 757 463 l 757 0 z "},"Ќ":{"ha":833,"x_min":142,"x_max":818,"o":"m 818 0 l 677 0 l 354 469 l 253 359 l 253 0 l 142 0 l 142 957 l 253 957 l 253 498 l 677 957 l 806 957 l 432 553 l 818 0 m 612 1260 l 401 1056 l 325 1056 l 459 1260 l 612 1260 z "},"Ў":{"ha":833,"x_min":36,"x_max":794,"o":"m 794 957 l 463 208 q 335 38 410 89 q 138 -12 260 -12 l 115 -12 l 115 93 l 135 93 q 267 129 219 93 q 347 235 314 165 l 36 957 l 153 957 l 415 363 l 679 957 l 794 957 m 659 1226 q 421 1057 623 1057 q 264 1101 327 1057 q 183 1226 201 1145 l 279 1226 q 421 1149 309 1149 q 522 1170 495 1149 q 561 1226 548 1190 l 659 1226 z "},"Џ":{"ha":833,"x_min":142,"x_max":692,"o":"m 692 0 l 472 0 l 472 -201 l 361 -201 l 361 0 l 142 0 l 142 957 l 253 957 l 253 97 l 581 97 l 581 957 l 692 957 l 692 0 z "},"А":{"ha":833,"x_min":39,"x_max":798,"o":"m 798 0 l 681 0 l 575 335 l 261 335 l 154 0 l 39 0 l 351 957 l 485 957 l 798 0 m 543 432 l 418 828 l 293 432 l 543 432 z "},"Б":{"ha":833,"x_min":142,"x_max":736,"o":"m 253 576 l 379 576 q 640 499 545 576 q 736 285 736 421 q 641 77 736 155 q 414 0 547 0 l 142 0 l 142 957 l 664 957 l 664 860 l 253 860 l 253 576 m 253 97 l 379 97 q 554 147 490 97 q 619 285 619 197 q 554 429 619 378 q 371 479 488 479 l 253 479 l 253 97 z "},"В":{"ha":833,"x_min":142,"x_max":736,"o":"m 532 525 q 682 438 627 503 q 736 285 736 374 q 641 77 736 155 q 414 0 547 0 l 142 0 l 142 957 l 407 957 q 623 896 545 957 q 701 725 701 836 q 656 604 701 657 q 532 528 611 551 l 532 525 m 253 576 l 383 576 q 587 722 587 576 q 537 824 587 789 q 390 860 487 860 l 253 860 l 253 576 m 253 97 l 379 97 q 554 147 490 97 q 619 285 619 197 q 555 429 619 378 q 371 479 492 479 l 253 479 l 253 97 z "},"Г":{"ha":833,"x_min":174,"x_max":694,"o":"m 694 860 l 285 860 l 285 0 l 174 0 l 174 957 l 694 957 l 694 860 z "},"Д":{"ha":833,"x_min":9,"x_max":823,"o":"m 823 -182 l 713 -182 l 713 0 l 121 0 l 121 -182 l 9 -182 l 9 97 l 100 97 q 269 378 207 190 q 332 822 332 566 l 332 957 l 707 957 l 707 97 l 823 97 l 823 -182 m 596 97 l 596 860 l 441 860 l 441 840 q 383 388 441 587 q 236 97 325 189 l 596 97 z "},"Е":{"ha":833,"x_min":174,"x_max":673,"o":"m 673 0 l 174 0 l 174 957 l 669 957 l 669 860 l 285 860 l 285 564 l 654 564 l 654 467 l 285 467 l 285 97 l 673 97 l 673 0 z "},"Ж":{"ha":833,"x_min":3,"x_max":832,"o":"m 832 0 l 717 0 l 543 464 l 472 326 l 472 0 l 361 0 l 361 329 l 290 464 l 118 0 l 3 0 l 233 571 l 29 957 l 136 957 l 361 500 l 361 957 l 472 957 l 472 498 l 699 957 l 806 957 l 599 571 l 832 0 z "},"З":{"ha":833,"x_min":90,"x_max":724,"o":"m 515 510 q 665 425 606 488 q 724 282 724 361 q 618 64 724 146 q 361 -18 513 -18 q 90 78 210 -18 l 132 153 q 366 79 251 79 q 535 134 461 79 q 610 275 610 189 q 528 402 610 349 q 335 454 446 454 l 248 454 l 248 551 l 314 551 q 502 602 418 551 q 586 728 586 652 q 520 833 586 789 q 371 878 455 878 q 151 819 250 878 l 106 899 q 376 975 217 975 q 603 905 507 975 q 700 729 700 835 q 644 593 700 657 q 515 513 588 529 l 515 510 z "},"И":{"ha":833,"x_min":127,"x_max":705,"o":"m 705 0 l 599 0 l 599 777 l 252 0 l 127 0 l 127 957 l 233 957 l 233 187 l 582 957 l 705 957 l 705 0 z "},"Й":{"ha":833,"x_min":127,"x_max":705,"o":"m 705 0 l 599 0 l 599 777 l 252 0 l 127 0 l 127 957 l 233 957 l 233 187 l 582 957 l 705 957 l 705 0 m 659 1226 q 421 1057 623 1057 q 264 1101 327 1057 q 183 1226 201 1145 l 279 1226 q 421 1149 309 1149 q 522 1170 495 1149 q 561 1226 548 1190 l 659 1226 z "},"К":{"ha":833,"x_min":142,"x_max":818,"o":"m 818 0 l 677 0 l 354 469 l 253 359 l 253 0 l 142 0 l 142 957 l 253 957 l 253 498 l 677 957 l 806 957 l 432 553 l 818 0 z "},"Л":{"ha":833,"x_min":61,"x_max":692,"o":"m 692 0 l 581 0 l 581 860 l 253 860 l 253 212 q 217 34 253 76 q 87 -8 180 -8 l 61 -8 l 61 89 l 68 89 q 125 113 109 89 q 142 224 142 138 l 142 957 l 692 957 l 692 0 z "},"М":{"ha":833,"x_min":117,"x_max":725,"o":"m 725 0 l 618 0 l 618 821 l 473 428 l 368 428 l 224 821 l 224 0 l 117 0 l 117 957 l 261 957 l 421 521 l 581 957 l 725 957 l 725 0 z "},"Н":{"ha":833,"x_min":142,"x_max":692,"o":"m 692 0 l 581 0 l 581 475 l 253 475 l 253 0 l 142 0 l 142 957 l 253 957 l 253 572 l 581 572 l 581 957 l 692 957 l 692 0 z "},"О":{"ha":833,"x_min":86,"x_max":745,"o":"m 415 975 q 660 848 576 975 q 745 478 745 721 q 661 109 745 237 q 415 -18 576 -18 q 171 109 255 -18 q 86 478 86 236 q 170 848 86 720 q 415 975 254 975 m 415 79 q 627 478 627 79 q 415 878 627 878 q 258 774 312 878 q 204 478 204 671 q 258 181 204 283 q 415 79 311 79 z "},"П":{"ha":833,"x_min":142,"x_max":692,"o":"m 692 0 l 581 0 l 581 860 l 253 860 l 253 0 l 142 0 l 142 957 l 692 957 l 692 0 z "},"Р":{"ha":833,"x_min":174,"x_max":720,"o":"m 174 957 l 416 957 q 637 888 554 957 q 720 697 720 819 q 637 502 720 575 q 421 429 555 429 l 285 429 l 285 0 l 174 0 l 174 957 m 285 526 l 406 526 q 602 690 602 526 q 548 813 602 766 q 411 860 495 860 l 285 860 l 285 526 z "},"С":{"ha":833,"x_min":86,"x_max":726,"o":"m 726 60 q 465 -18 614 -18 q 183 109 279 -18 q 86 478 86 237 q 180 843 86 711 q 465 975 273 975 q 602 958 534 975 q 711 911 670 940 l 675 823 q 465 878 579 878 q 269 782 333 878 q 204 478 204 686 q 465 79 204 79 q 692 147 576 79 l 726 60 z "},"Т":{"ha":833,"x_min":66,"x_max":768,"o":"m 768 867 l 473 867 l 473 0 l 363 0 l 363 867 l 66 867 l 66 957 l 768 957 l 768 867 z "},"У":{"ha":833,"x_min":36,"x_max":794,"o":"m 794 957 l 463 208 q 335 38 410 89 q 138 -12 260 -12 l 115 -12 l 115 93 l 135 93 q 267 129 219 93 q 347 235 314 165 l 36 957 l 153 957 l 415 363 l 679 957 l 794 957 z "},"Ф":{"ha":833,"x_min":37,"x_max":796,"o":"m 472 847 q 712 731 629 831 q 796 492 796 632 q 712 254 796 353 q 472 139 629 155 l 472 0 l 361 0 l 361 139 q 120 251 203 153 q 37 492 37 349 q 121 733 37 634 q 361 847 204 833 l 361 957 l 472 957 l 472 847 m 361 228 l 361 755 q 154 492 154 736 q 207 299 154 360 q 361 228 260 237 m 472 229 q 679 492 679 255 q 627 670 679 597 q 472 755 575 742 l 472 229 z "},"Х":{"ha":833,"x_min":58,"x_max":789,"o":"m 789 0 l 665 0 l 422 392 l 182 0 l 58 0 l 364 488 l 60 957 l 187 957 l 422 578 l 660 957 l 782 957 l 482 488 l 789 0 z "},"Ц":{"ha":833,"x_min":142,"x_max":754,"o":"m 754 -201 l 643 -201 l 643 0 l 142 0 l 142 957 l 253 957 l 253 97 l 581 97 l 581 957 l 692 957 l 692 97 l 754 97 l 754 -201 z "},"Ч":{"ha":833,"x_min":142,"x_max":692,"o":"m 692 0 l 581 0 l 581 392 q 400 336 498 336 q 211 415 280 336 q 142 637 142 494 l 142 957 l 253 957 l 253 640 q 414 428 253 428 q 581 486 495 428 l 581 957 l 692 957 l 692 0 z "},"Ш":{"ha":833,"x_min":61,"x_max":772,"o":"m 772 0 l 61 0 l 61 957 l 172 957 l 172 97 l 361 97 l 361 957 l 472 957 l 472 97 l 661 97 l 661 957 l 772 957 l 772 0 z "},"Щ":{"ha":833,"x_min":61,"x_max":833,"o":"m 722 0 l 61 0 l 61 957 l 172 957 l 172 97 l 361 97 l 361 957 l 472 957 l 472 97 l 661 97 l 661 957 l 772 957 l 772 97 l 833 97 l 833 -201 l 722 -201 l 722 0 z "},"Ъ":{"ha":833,"x_min":7,"x_max":746,"o":"m 318 576 l 389 576 q 650 499 554 576 q 746 285 746 421 q 653 79 746 158 q 424 0 559 0 l 207 0 l 207 860 l 7 860 l 7 957 l 318 957 l 318 576 m 318 97 l 389 97 q 564 147 499 97 q 629 285 629 197 q 564 429 629 378 q 380 479 498 479 l 318 479 l 318 97 z "},"Ы":{"ha":833,"x_min":61,"x_max":775,"o":"m 775 0 l 664 0 l 664 957 l 775 957 l 775 0 m 172 576 l 243 576 q 504 499 408 576 q 600 285 600 421 q 507 79 600 158 q 278 0 414 0 l 61 0 l 61 957 l 172 957 l 172 576 m 172 97 l 243 97 q 418 147 353 97 q 484 285 484 197 q 418 429 484 378 q 235 479 352 479 l 172 479 l 172 97 z "},"Ь":{"ha":833,"x_min":167,"x_max":705,"o":"m 278 576 l 349 576 q 610 499 514 576 q 705 285 705 421 q 611 77 705 155 q 383 0 516 0 l 167 0 l 167 957 l 278 957 l 278 576 m 278 97 l 349 97 q 524 147 459 97 q 589 285 589 197 q 523 429 589 378 q 340 479 458 479 l 278 479 l 278 97 z "},"Э":{"ha":833,"x_min":107,"x_max":747,"o":"m 122 911 q 231 958 163 940 q 368 975 299 975 q 651 847 554 975 q 747 478 747 720 q 651 109 747 237 q 368 -18 554 -18 q 107 60 220 -18 l 142 147 q 368 79 258 79 q 628 433 612 79 l 245 433 l 245 530 l 628 530 q 368 878 615 878 q 158 823 254 878 l 122 911 z "},"Ю":{"ha":833,"x_min":61,"x_max":783,"o":"m 278 529 q 530 975 290 975 q 721 852 659 975 q 783 478 783 730 q 530 -18 783 -18 q 345 93 407 -18 q 278 432 283 205 l 172 432 l 172 0 l 61 0 l 61 957 l 172 957 l 172 529 l 278 529 m 530 79 q 633 164 600 79 q 665 478 665 249 q 651 721 665 640 q 607 840 637 802 q 530 878 578 878 q 429 792 461 878 q 396 478 396 707 q 429 164 396 249 q 530 79 461 79 z "},"Я":{"ha":833,"x_min":37,"x_max":692,"o":"m 692 0 l 581 0 l 581 435 l 457 435 l 176 0 l 37 0 l 343 458 q 184 551 242 483 q 126 707 126 619 q 207 892 126 827 q 421 957 288 957 l 692 957 l 692 0 m 581 532 l 581 860 l 437 860 q 241 700 241 860 q 296 579 241 627 q 440 532 351 532 l 581 532 z "},"а":{"ha":833,"x_min":146,"x_max":708,"o":"m 708 0 l 603 0 q 590 114 590 43 q 345 -18 500 -18 q 206 38 266 -18 q 146 182 146 94 q 167 274 146 234 q 229 341 188 314 q 328 385 269 369 q 466 407 386 401 l 585 416 l 585 450 q 415 632 585 632 q 314 615 375 632 q 208 574 252 597 l 180 650 q 449 724 325 724 q 690 468 690 724 l 690 164 q 708 0 690 72 m 585 210 l 585 338 q 388 314 441 325 q 296 272 335 302 q 257 189 257 241 q 290 113 257 142 q 375 83 323 83 q 487 117 431 83 q 585 210 543 151 z "},"б":{"ha":833,"x_min":98,"x_max":734,"o":"m 224 646 q 416 724 292 724 q 648 622 562 724 q 734 354 734 520 q 648 84 734 186 q 416 -18 562 -18 q 184 84 270 -18 q 98 354 98 186 l 98 358 q 427 966 98 966 q 532 958 475 966 q 612 951 578 951 q 692 965 665 951 l 692 873 q 612 861 650 861 q 509 869 568 861 q 428 875 459 875 q 293 822 342 875 q 224 646 243 770 m 416 74 q 568 155 513 74 q 624 353 624 237 q 569 553 624 475 q 416 632 514 632 q 264 554 318 632 q 210 353 210 477 q 264 154 210 235 q 416 74 319 74 z "},"в":{"ha":833,"x_min":146,"x_max":711,"o":"m 564 375 q 669 316 627 361 q 711 220 711 271 q 638 57 711 115 q 469 0 566 0 l 146 0 l 146 707 l 427 707 q 605 656 537 707 q 673 519 673 605 q 642 428 673 469 q 564 375 610 387 m 252 416 l 429 416 q 562 515 562 416 q 524 588 562 562 q 425 615 486 615 l 252 615 l 252 416 m 252 92 l 450 92 q 557 125 515 92 q 599 216 599 158 q 553 296 599 268 q 433 325 507 325 l 252 325 l 252 92 z "},"г":{"ha":833,"x_min":243,"x_max":627,"o":"m 627 615 l 349 615 l 349 0 l 243 0 l 243 707 l 627 707 l 627 615 z "},"д":{"ha":833,"x_min":47,"x_max":754,"o":"m 754 -139 l 648 -139 l 648 0 l 153 0 l 153 -139 l 47 -139 l 47 92 l 104 92 q 236 288 185 161 q 286 578 286 416 l 286 707 l 676 707 l 676 92 l 754 92 l 754 -139 m 571 92 l 571 615 l 392 615 l 392 603 q 350 309 392 444 q 240 92 307 174 l 571 92 z "},"е":{"ha":833,"x_min":115,"x_max":711,"o":"m 711 350 l 227 350 q 296 152 227 230 q 467 74 366 74 q 665 109 563 74 l 684 24 q 465 -18 590 -18 q 212 83 308 -18 q 115 355 115 184 q 202 624 115 524 q 425 724 288 724 q 629 631 547 724 q 711 383 711 538 l 711 350 m 596 436 q 545 575 596 519 q 429 632 493 632 q 293 578 347 632 q 233 436 239 524 l 596 436 z "},"ж":{"ha":833,"x_min":1,"x_max":832,"o":"m 832 0 l 713 0 l 538 346 l 469 260 l 469 0 l 364 0 l 364 260 l 296 346 l 121 0 l 1 0 l 231 431 l 12 707 l 123 707 l 364 400 l 364 707 l 469 707 l 469 400 l 710 707 l 821 707 l 604 431 l 832 0 z "},"з":{"ha":833,"x_min":135,"x_max":679,"o":"m 522 378 q 633 320 587 368 q 679 210 679 271 q 589 46 679 111 q 374 -18 498 -18 q 135 49 252 -18 l 176 127 q 375 74 277 74 q 513 111 458 74 q 568 207 568 148 q 517 293 568 263 q 376 323 465 323 l 300 323 l 300 419 l 366 419 q 499 450 450 419 q 547 534 547 480 q 503 603 547 574 q 399 632 459 632 q 207 599 294 632 l 164 679 q 269 711 202 698 q 395 724 336 724 q 592 672 519 724 q 665 534 665 621 q 625 439 665 485 q 522 379 585 393 l 522 378 z "},"и":{"ha":833,"x_min":146,"x_max":688,"o":"m 688 0 l 581 0 l 581 547 l 267 0 l 146 0 l 146 707 l 252 707 l 252 157 l 567 707 l 688 707 l 688 0 z "},"й":{"ha":833,"x_min":146,"x_max":688,"o":"m 688 0 l 581 0 l 581 547 l 267 0 l 146 0 l 146 707 l 252 707 l 252 157 l 567 707 l 688 707 l 688 0 m 653 993 q 415 823 617 823 q 259 868 321 823 q 178 993 196 912 l 273 993 q 415 916 303 916 q 516 936 490 916 q 555 993 543 957 l 653 993 z "},"к":{"ha":833,"x_min":146,"x_max":760,"o":"m 760 0 l 621 0 l 321 351 l 252 292 l 252 0 l 146 0 l 146 707 l 252 707 l 252 408 l 583 707 l 718 707 l 396 418 l 760 0 z "},"л":{"ha":833,"x_min":33,"x_max":688,"o":"m 688 0 l 581 0 l 581 615 l 252 615 l 252 197 q 209 32 252 76 q 60 -12 165 -12 l 33 -12 l 33 79 l 40 79 q 125 109 104 79 q 146 208 146 139 l 146 707 l 688 707 l 688 0 z "},"м":{"ha":833,"x_min":79,"x_max":754,"o":"m 754 0 l 646 0 l 646 621 l 468 0 l 358 0 l 182 621 l 182 0 l 79 0 l 79 707 l 262 707 l 416 142 l 578 707 l 754 707 l 754 0 z "},"н":{"ha":833,"x_min":146,"x_max":688,"o":"m 688 0 l 581 0 l 581 349 l 252 349 l 252 0 l 146 0 l 146 707 l 252 707 l 252 440 l 581 440 l 581 707 l 688 707 l 688 0 z "},"о":{"ha":833,"x_min":98,"x_max":734,"o":"m 416 724 q 648 622 562 724 q 734 354 734 520 q 648 84 734 186 q 416 -18 562 -18 q 184 84 270 -18 q 98 354 98 186 q 184 622 98 521 q 416 724 271 724 m 416 74 q 568 155 513 74 q 624 353 624 237 q 569 553 624 475 q 416 632 514 632 q 264 554 318 632 q 210 353 210 477 q 264 154 210 235 q 416 74 319 74 z "},"п":{"ha":833,"x_min":146,"x_max":688,"o":"m 688 0 l 581 0 l 581 615 l 252 615 l 252 0 l 146 0 l 146 707 l 688 707 l 688 0 z "},"р":{"ha":833,"x_min":146,"x_max":734,"o":"m 252 615 q 347 694 287 664 q 473 724 407 724 q 665 623 595 724 q 734 361 734 522 q 662 90 734 198 q 465 -18 589 -18 q 342 15 399 -18 q 252 102 285 47 l 252 -279 l 146 -279 l 146 707 l 252 707 l 252 615 m 252 510 l 252 216 q 332 117 281 157 q 437 77 383 77 q 573 157 523 77 q 624 355 624 237 q 576 555 624 477 q 441 632 528 632 q 252 510 330 632 z "},"с":{"ha":833,"x_min":119,"x_max":688,"o":"m 688 24 q 485 -18 595 -18 q 219 83 318 -18 q 119 353 119 184 q 219 622 119 521 q 482 724 319 724 q 685 686 589 724 l 657 599 q 484 632 561 632 q 299 557 367 632 q 231 353 231 481 q 301 154 231 235 q 485 74 372 74 q 669 109 574 74 l 688 24 z "},"т":{"ha":833,"x_min":131,"x_max":703,"o":"m 703 615 l 469 615 l 469 0 l 364 0 l 364 615 l 131 615 l 131 707 l 703 707 l 703 615 z "},"у":{"ha":833,"x_min":79,"x_max":722,"o":"m 722 707 l 454 0 q 339 -218 396 -156 q 208 -279 281 -279 q 79 -256 143 -279 l 97 -171 q 189 -187 149 -187 q 283 -143 246 -187 q 357 1 319 -99 l 92 707 l 207 707 l 407 143 l 607 707 l 722 707 z "},"ф":{"ha":833,"x_min":33,"x_max":800,"o":"m 469 615 q 615 724 518 724 q 800 364 800 724 q 621 -18 800 -18 q 535 7 570 -18 q 469 102 500 33 l 469 -279 l 364 -279 l 364 102 q 298 7 333 33 q 212 -18 264 -18 q 33 364 33 -18 q 218 724 33 724 q 364 615 315 724 l 364 957 l 469 957 l 469 615 m 364 216 l 364 510 q 311 600 342 567 q 250 632 280 632 q 171 576 197 632 q 144 358 144 521 q 155 185 144 241 q 186 103 165 129 q 240 77 208 77 q 292 95 269 77 q 340 163 315 114 q 364 216 364 212 m 469 216 q 534 102 507 128 q 593 77 561 77 q 665 136 641 77 q 689 358 689 195 q 677 529 689 475 q 643 607 666 582 q 583 632 619 632 q 506 579 543 632 q 469 510 469 527 l 469 216 z "},"х":{"ha":833,"x_min":98,"x_max":715,"o":"m 715 0 l 596 0 l 407 277 l 211 0 l 98 0 l 350 354 l 98 707 l 220 707 l 410 432 l 603 707 l 715 707 l 465 358 l 715 0 z "},"ц":{"ha":833,"x_min":107,"x_max":768,"o":"m 768 -154 l 661 -154 l 661 0 l 107 0 l 107 707 l 212 707 l 212 92 l 583 92 l 583 707 l 690 707 l 690 92 l 768 92 l 768 -154 z "},"ч":{"ha":833,"x_min":115,"x_max":688,"o":"m 688 0 l 581 0 l 581 322 q 332 204 455 204 q 171 266 227 204 q 115 447 115 328 l 115 707 l 221 707 l 221 478 q 256 340 221 384 q 364 296 290 296 q 581 414 460 296 l 581 707 l 688 707 l 688 0 z "},"ш":{"ha":833,"x_min":79,"x_max":754,"o":"m 754 0 l 79 0 l 79 707 l 184 707 l 184 92 l 364 92 l 364 707 l 469 707 l 469 92 l 648 92 l 648 707 l 754 707 l 754 0 z "},"щ":{"ha":833,"x_min":79,"x_max":833,"o":"m 726 0 l 79 0 l 79 707 l 184 707 l 184 92 l 364 92 l 364 707 l 469 707 l 469 92 l 648 92 l 648 707 l 754 707 l 754 92 l 833 92 l 833 -154 l 726 -154 l 726 0 z "},"ъ":{"ha":833,"x_min":28,"x_max":710,"o":"m 351 440 l 425 440 q 636 382 562 440 q 710 218 710 323 q 637 57 710 115 q 427 0 565 0 l 245 0 l 245 615 l 28 615 l 28 707 l 351 707 l 351 440 m 351 92 l 425 92 q 553 124 507 92 q 599 218 599 157 q 548 318 599 288 q 425 349 498 349 l 351 349 l 351 92 z "},"ы":{"ha":833,"x_min":79,"x_max":750,"o":"m 750 0 l 644 0 l 644 707 l 750 707 l 750 0 m 184 440 l 258 440 q 468 381 393 440 q 543 218 543 321 q 470 57 543 113 q 260 0 397 0 l 79 0 l 79 707 l 184 707 l 184 440 m 184 92 l 258 92 q 385 124 340 92 q 431 218 431 156 q 385 315 431 282 q 258 349 339 349 l 184 349 l 184 92 z "},"ь":{"ha":833,"x_min":215,"x_max":679,"o":"m 321 440 l 395 440 q 605 382 532 440 q 679 218 679 324 q 607 56 679 112 q 396 0 534 0 l 215 0 l 215 707 l 321 707 l 321 440 m 321 92 l 395 92 q 568 218 568 92 q 395 349 568 349 l 321 349 l 321 92 z "},"э":{"ha":833,"x_min":146,"x_max":714,"o":"m 149 686 q 351 724 244 724 q 614 622 513 724 q 714 353 714 519 q 615 83 714 185 q 349 -18 516 -18 q 146 24 238 -18 l 164 109 q 349 74 259 74 q 516 138 447 74 q 600 311 585 202 l 330 311 l 330 403 l 600 403 q 519 572 585 513 q 350 632 453 632 q 176 599 273 632 l 149 686 z "},"ю":{"ha":833,"x_min":79,"x_max":786,"o":"m 262 403 q 524 724 277 724 q 718 626 650 724 q 786 354 786 528 q 720 83 786 185 q 524 -18 654 -18 q 262 311 275 -18 l 184 311 l 184 0 l 79 0 l 79 707 l 184 707 l 184 403 l 262 403 m 524 74 q 675 353 675 74 q 637 566 675 499 q 524 632 600 632 q 410 566 448 632 q 372 353 372 499 q 524 74 372 74 z "},"я":{"ha":833,"x_min":104,"x_max":650,"o":"m 650 0 l 545 0 l 545 289 l 429 289 l 227 0 l 104 0 l 328 315 q 218 389 258 336 q 178 507 178 442 q 241 653 178 600 q 414 707 304 707 l 650 707 l 650 0 m 545 380 l 545 614 l 427 614 q 322 586 359 614 q 285 507 285 557 q 328 418 285 455 q 432 380 372 380 l 545 380 z "},"ё":{"ha":833,"x_min":115,"x_max":711,"o":"m 711 350 l 227 350 q 296 152 227 230 q 467 74 366 74 q 665 109 563 74 l 684 24 q 465 -18 590 -18 q 212 83 308 -18 q 115 355 115 184 q 202 624 115 524 q 425 724 288 724 q 629 631 547 724 q 711 383 711 538 l 711 350 m 596 436 q 545 575 596 519 q 429 632 493 632 q 293 578 347 632 q 233 436 239 524 l 596 436 m 562 954 q 613 933 593 954 q 633 880 633 912 q 612 829 633 851 q 562 807 591 807 q 510 829 532 807 q 489 880 489 851 q 510 933 489 912 q 562 954 531 954 m 294 954 q 346 933 326 954 q 366 880 366 913 q 345 829 366 850 q 294 807 324 807 q 242 829 264 807 q 220 880 220 851 q 242 933 220 912 q 294 954 264 954 z "},"ђ":{"ha":833,"x_min":40,"x_max":690,"o":"m 690 -36 q 645 -224 690 -169 q 485 -279 599 -279 q 322 -252 412 -279 l 350 -165 q 485 -187 426 -187 q 563 -155 542 -187 q 585 -25 585 -123 l 585 453 q 554 590 585 547 q 460 632 524 632 q 252 511 363 632 l 252 0 l 146 0 l 146 807 l 40 807 l 40 899 l 146 899 l 146 957 l 252 957 l 252 899 l 375 899 l 375 807 l 252 807 l 252 603 q 492 724 366 724 q 690 484 690 724 l 690 -36 z "},"ѓ":{"ha":833,"x_min":243,"x_max":627,"o":"m 627 615 l 349 615 l 349 0 l 243 0 l 243 707 l 627 707 l 627 615 m 599 994 l 387 790 l 311 790 l 446 994 l 599 994 z "},"є":{"ha":833,"x_min":119,"x_max":688,"o":"m 688 24 q 485 -18 595 -18 q 219 83 318 -18 q 119 353 119 184 q 219 622 119 521 q 482 724 319 724 q 685 686 589 724 l 657 599 q 484 632 561 632 q 314 572 380 632 q 233 403 248 513 l 503 403 l 503 311 l 233 311 q 317 138 248 202 q 485 74 386 74 q 669 109 574 74 l 688 24 z "},"ѕ":{"ha":833,"x_min":158,"x_max":681,"o":"m 616 606 q 449 635 528 635 q 313 606 363 635 q 262 529 262 577 q 286 476 262 498 q 378 433 309 453 l 479 404 q 593 357 549 385 q 659 291 637 330 q 681 200 681 252 q 596 40 681 99 q 380 -18 511 -18 q 165 21 250 -18 l 186 113 q 376 71 275 71 q 520 103 465 71 q 575 191 575 136 q 548 256 575 227 q 418 316 520 285 q 298 354 336 341 q 226 391 259 366 q 175 449 193 415 q 158 525 158 483 q 238 670 158 616 q 450 724 318 724 q 640 694 536 724 l 616 606 z "},"і":{"ha":833,"x_min":200,"x_max":534,"o":"m 463 974 q 513 952 492 974 q 534 901 534 931 q 514 849 534 870 q 463 828 493 828 q 413 850 435 828 q 392 901 392 872 q 413 952 392 930 q 463 974 435 974 m 514 0 l 408 0 l 408 615 l 200 615 l 200 707 l 514 707 l 514 0 z "},"ї":{"ha":833,"x_min":200,"x_max":636,"o":"m 514 0 l 408 0 l 408 615 l 200 615 l 200 707 l 514 707 l 514 0 m 565 954 q 616 933 595 954 q 636 880 636 912 q 615 829 636 851 q 565 807 594 807 q 513 829 534 807 q 492 880 492 851 q 513 933 492 912 q 565 954 534 954 m 297 954 q 349 933 328 954 q 369 880 369 913 q 348 829 369 850 q 297 807 327 807 q 245 829 267 807 q 223 880 223 851 q 245 933 223 912 q 297 954 267 954 z "},"ј":{"ha":833,"x_min":146,"x_max":534,"o":"m 463 974 q 513 952 492 974 q 534 901 534 931 q 514 849 534 870 q 463 828 493 828 q 413 850 435 828 q 392 901 392 872 q 413 952 392 930 q 463 974 435 974 m 514 -36 q 468 -224 514 -169 q 309 -279 422 -279 q 146 -252 235 -279 l 174 -165 q 309 -187 249 -187 q 387 -155 366 -187 q 408 -25 408 -123 l 408 615 l 200 615 l 200 707 l 514 707 l 514 -36 z "},"љ":{"ha":833,"x_min":8,"x_max":800,"o":"m 504 440 l 518 440 q 727 382 654 440 q 800 218 800 325 q 519 0 800 0 l 397 0 l 397 615 l 199 615 l 199 197 q 164 37 199 85 q 35 -12 130 -12 l 8 -12 l 8 79 l 16 79 q 93 208 93 79 l 93 707 l 504 707 l 504 440 m 504 92 l 518 92 q 689 218 689 92 q 518 349 689 349 l 504 349 l 504 92 z "},"њ":{"ha":833,"x_min":75,"x_max":800,"o":"m 504 440 l 518 440 q 727 382 654 440 q 800 218 800 325 q 729 56 800 111 q 519 0 658 0 l 397 0 l 397 349 l 180 349 l 180 0 l 75 0 l 75 707 l 180 707 l 180 440 l 397 440 l 397 707 l 504 707 l 504 440 m 504 92 l 518 92 q 644 124 599 92 q 689 218 689 157 q 518 349 689 349 l 504 349 l 504 92 z "},"ћ":{"ha":833,"x_min":40,"x_max":690,"o":"m 690 0 l 585 0 l 585 453 q 554 590 585 547 q 460 632 524 632 q 252 511 363 632 l 252 0 l 146 0 l 146 807 l 40 807 l 40 899 l 146 899 l 146 957 l 252 957 l 252 899 l 375 899 l 375 807 l 252 807 l 252 603 q 492 724 366 724 q 690 484 690 724 l 690 0 z "},"ќ":{"ha":833,"x_min":146,"x_max":760,"o":"m 760 0 l 621 0 l 321 351 l 252 292 l 252 0 l 146 0 l 146 707 l 252 707 l 252 408 l 583 707 l 718 707 l 396 418 l 760 0 m 599 994 l 387 790 l 311 790 l 446 994 l 599 994 z "},"ў":{"ha":833,"x_min":79,"x_max":722,"o":"m 722 707 l 454 0 q 339 -218 396 -156 q 208 -279 281 -279 q 79 -256 143 -279 l 97 -171 q 189 -187 149 -187 q 283 -143 246 -187 q 357 1 319 -99 l 92 707 l 207 707 l 407 143 l 607 707 l 722 707 m 642 993 q 404 823 606 823 q 248 868 311 823 q 167 993 184 912 l 262 993 q 404 916 292 916 q 505 936 478 916 q 545 993 532 957 l 642 993 z "},"џ":{"ha":833,"x_min":107,"x_max":690,"o":"m 690 0 l 452 0 l 452 -154 l 345 -154 l 345 0 l 107 0 l 107 707 l 212 707 l 212 92 l 583 92 l 583 707 l 690 707 l 690 0 z "},"Ґ":{"ha":833,"x_min":174,"x_max":737,"o":"m 737 860 l 285 860 l 285 0 l 174 0 l 174 957 l 627 957 l 627 1139 l 737 1139 l 737 860 z "},"ґ":{"ha":833,"x_min":215,"x_max":668,"o":"m 668 615 l 321 615 l 321 0 l 215 0 l 215 707 l 562 707 l 562 861 l 668 861 l 668 615 z "},"Ẁ":{"ha":833,"x_min":29,"x_max":804,"o":"m 804 957 l 682 0 l 579 0 l 416 539 l 254 0 l 149 0 l 29 957 l 139 957 l 220 179 l 361 650 l 472 650 l 614 178 l 696 957 l 804 957 m 524 1030 l 447 1030 l 236 1234 l 389 1234 l 524 1030 z "},"ẁ":{"ha":833,"x_min":78,"x_max":774,"o":"m 774 707 l 672 0 l 591 0 l 425 400 l 258 0 l 178 0 l 78 707 l 183 707 q 241 187 239 212 l 371 494 l 479 494 l 608 189 l 665 707 l 774 707 m 524 790 l 447 790 l 236 994 l 389 994 l 524 790 z "},"Ẅ":{"ha":833,"x_min":29,"x_max":804,"o":"m 804 957 l 682 0 l 579 0 l 416 539 l 254 0 l 149 0 l 29 957 l 139 957 l 220 179 l 361 650 l 472 650 l 614 178 l 696 957 l 804 957 m 551 1194 q 602 1173 582 1194 q 623 1120 623 1152 q 602 1069 623 1091 q 551 1047 581 1047 q 499 1069 521 1047 q 478 1120 478 1091 q 499 1173 478 1152 q 551 1194 520 1194 m 283 1194 q 335 1174 315 1194 q 355 1120 355 1153 q 334 1069 355 1090 q 283 1047 313 1047 q 232 1069 254 1047 q 210 1120 210 1091 q 231 1173 210 1152 q 283 1194 253 1194 z "},"ẅ":{"ha":833,"x_min":78,"x_max":774,"o":"m 774 707 l 672 0 l 591 0 l 425 400 l 258 0 l 178 0 l 78 707 l 183 707 q 241 187 239 212 l 371 494 l 479 494 l 608 189 l 665 707 l 774 707 m 551 954 q 602 933 582 954 q 623 880 623 912 q 602 829 623 851 q 551 807 581 807 q 499 829 521 807 q 478 880 478 851 q 499 933 478 912 q 551 954 520 954 m 283 954 q 335 933 315 954 q 355 880 355 913 q 334 829 355 850 q 283 807 313 807 q 232 829 254 807 q 210 880 210 851 q 231 933 210 912 q 283 954 253 954 z "},"─":{"ha":833,"x_min":0,"x_max":833,"o":"m 0 426 l 0 531 l 833 531 l 833 426 l 0 426 z "},"│":{"ha":833,"x_min":364,"x_max":469,"o":"m 364 -302 l 364 1260 l 469 1260 l 469 -302 l 364 -302 z "},"┌":{"ha":833,"x_min":364,"x_max":833,"o":"m 364 -302 l 364 531 l 833 531 l 833 426 l 469 426 l 469 -302 l 364 -302 z "},"┐":{"ha":833,"x_min":0,"x_max":469,"o":"m 364 -302 l 364 426 l 0 426 l 0 531 l 469 531 l 469 -302 l 364 -302 z "},"└":{"ha":833,"x_min":364,"x_max":833,"o":"m 364 426 l 364 1260 l 469 1260 l 469 531 l 833 531 l 833 426 l 364 426 z "},"┘":{"ha":833,"x_min":0,"x_max":469,"o":"m 0 426 l 0 531 l 364 531 l 364 1260 l 469 1260 l 469 426 l 0 426 z "},"├":{"ha":833,"x_min":364,"x_max":833,"o":"m 364 -302 l 364 1260 l 469 1260 l 469 531 l 833 531 l 833 426 l 469 426 l 469 -302 l 364 -302 z "},"┤":{"ha":833,"x_min":0,"x_max":469,"o":"m 364 -302 l 364 426 l 0 426 l 0 531 l 364 531 l 364 1260 l 469 1260 l 469 -302 l 364 -302 z "},"┬":{"ha":833,"x_min":0,"x_max":833,"o":"m 364 -302 l 364 426 l 0 426 l 0 531 l 833 531 l 833 426 l 469 426 l 469 -302 l 364 -302 z "},"┴":{"ha":833,"x_min":0,"x_max":833,"o":"m 0 426 l 0 531 l 364 531 l 364 1260 l 469 1260 l 469 531 l 833 531 l 833 426 l 0 426 z "},"┼":{"ha":833,"x_min":0,"x_max":833,"o":"m 364 -302 l 364 426 l 0 426 l 0 531 l 364 531 l 364 1260 l 469 1260 l 469 531 l 833 531 l 833 426 l 469 426 l 469 -302 l 364 -302 z "},"═":{"ha":833,"x_min":0,"x_max":833,"o":"m 0 426 l 833 426 l 833 321 l 0 321 l 0 426 m 0 531 l 0 636 l 833 636 l 833 531 l 0 531 z "},"║":{"ha":833,"x_min":259,"x_max":574,"o":"m 364 -302 l 259 -302 l 259 1260 l 364 1260 l 364 -302 m 469 1260 l 574 1260 l 574 -302 l 469 -302 l 469 1260 z "},"╒":{"ha":833,"x_min":364,"x_max":833,"o":"m 364 -302 l 364 636 l 833 636 l 833 531 l 469 531 l 469 426 l 833 426 l 833 321 l 469 321 l 469 -302 l 364 -302 z "},"╓":{"ha":833,"x_min":259,"x_max":833,"o":"m 364 -302 l 259 -302 l 259 531 l 833 531 l 833 426 l 574 426 l 574 -302 l 469 -302 l 469 426 l 364 426 l 364 -302 z "},"╔":{"ha":833,"x_min":259,"x_max":833,"o":"m 364 -302 l 259 -302 l 259 636 l 833 636 l 833 531 l 364 531 l 364 -302 m 469 -302 l 469 426 l 833 426 l 833 321 l 574 321 l 574 -302 l 469 -302 z "},"╕":{"ha":833,"x_min":0,"x_max":469,"o":"m 364 -302 l 364 321 l 0 321 l 0 426 l 364 426 l 364 531 l 0 531 l 0 636 l 469 636 l 469 -302 l 364 -302 z "},"╖":{"ha":833,"x_min":0,"x_max":574,"o":"m 364 -302 l 259 -302 l 259 426 l 0 426 l 0 531 l 574 531 l 574 -302 l 469 -302 l 469 426 l 364 426 l 364 -302 z "},"╗":{"ha":833,"x_min":0,"x_max":574,"o":"m 364 -302 l 259 -302 l 259 321 l 0 321 l 0 426 l 364 426 l 364 -302 m 469 -302 l 469 531 l 0 531 l 0 636 l 574 636 l 574 -302 l 469 -302 z "},"╘":{"ha":833,"x_min":364,"x_max":833,"o":"m 364 321 l 364 1260 l 469 1260 l 469 636 l 833 636 l 833 531 l 469 531 l 469 426 l 833 426 l 833 321 l 364 321 z "},"╙":{"ha":833,"x_min":259,"x_max":833,"o":"m 259 426 l 259 1260 l 364 1260 l 364 531 l 469 531 l 469 1260 l 574 1260 l 574 531 l 833 531 l 833 426 l 259 426 z "},"╚":{"ha":833,"x_min":259,"x_max":833,"o":"m 259 321 l 259 1260 l 364 1260 l 364 426 l 833 426 l 833 321 l 259 321 m 833 531 l 469 531 l 469 1260 l 574 1260 l 574 636 l 833 636 l 833 531 z "},"╛":{"ha":833,"x_min":0,"x_max":469,"o":"m 0 426 l 364 426 l 364 531 l 0 531 l 0 636 l 364 636 l 364 1260 l 469 1260 l 469 321 l 0 321 l 0 426 z "},"╜":{"ha":833,"x_min":0,"x_max":574,"o":"m 0 426 l 0 531 l 259 531 l 259 1260 l 364 1260 l 364 531 l 469 531 l 469 1260 l 574 1260 l 574 426 l 0 426 z "},"╝":{"ha":833,"x_min":0,"x_max":574,"o":"m 0 426 l 469 426 l 469 1260 l 574 1260 l 574 321 l 0 321 l 0 426 m 0 531 l 0 636 l 259 636 l 259 1260 l 364 1260 l 364 532 l 0 531 z "},"╞":{"ha":833,"x_min":364,"x_max":833,"o":"m 364 -302 l 364 1260 l 469 1260 l 469 637 l 833 637 l 833 532 l 469 532 l 469 427 l 833 427 l 833 321 l 469 321 l 469 -302 l 364 -302 z "},"╟":{"ha":833,"x_min":259,"x_max":833,"o":"m 259 -302 l 259 1260 l 364 1260 l 364 -302 l 259 -302 m 469 -302 l 469 1260 l 574 1260 l 574 531 l 833 531 l 833 426 l 574 426 l 574 -302 l 469 -302 z "},"╠":{"ha":833,"x_min":259,"x_max":833,"o":"m 259 -302 l 259 1260 l 364 1260 l 364 -302 l 259 -302 m 469 -302 l 469 426 l 833 426 l 833 321 l 574 321 l 574 -302 l 469 -302 m 469 531 l 469 1260 l 574 1260 l 574 636 l 833 636 l 833 531 l 469 531 z "},"╡":{"ha":833,"x_min":0,"x_max":469,"o":"m 364 -302 l 364 321 l 0 321 l 0 426 l 364 426 l 364 531 l 0 531 l 0 636 l 364 636 l 364 1260 l 469 1260 l 469 -302 l 364 -302 z "},"╢":{"ha":833,"x_min":0,"x_max":574,"o":"m 259 -302 l 259 426 l 0 426 l 0 531 l 259 531 l 259 1259 l 364 1259 l 364 -303 l 259 -302 m 469 -303 l 469 1259 l 574 1259 l 574 -303 l 469 -303 z "},"╣":{"ha":833,"x_min":0,"x_max":574,"o":"m 259 -302 l 259 321 l 0 321 l 0 426 l 364 426 l 364 -302 l 259 -302 m 469 -302 l 469 1260 l 574 1260 l 574 -302 l 469 -302 m 0 531 l 0 636 l 259 636 l 259 1260 l 364 1260 l 364 532 l 0 531 z "},"╤":{"ha":833,"x_min":0,"x_max":833,"o":"m 0 426 l 833 426 l 833 321 l 469 321 l 469 -302 l 364 -302 l 364 321 l 0 321 l 0 426 m 0 531 l 0 636 l 833 636 l 833 531 l 0 531 z "},"╥":{"ha":833,"x_min":0,"x_max":833,"o":"m 0 426 l 0 531 l 833 531 l 833 426 l 574 426 l 574 -302 l 469 -302 l 469 426 l 364 426 l 364 -302 l 259 -302 l 259 426 l 0 426 z "},"╦":{"ha":833,"x_min":0,"x_max":833,"o":"m 0 426 l 364 426 l 364 -302 l 259 -302 l 259 321 l 0 321 l 0 426 m 0 531 l 0 636 l 833 636 l 833 531 l 0 531 m 833 426 l 833 321 l 574 321 l 574 -302 l 469 -302 l 469 426 l 833 426 z "},"╧":{"ha":833,"x_min":0,"x_max":833,"o":"m 0 426 l 833 426 l 833 321 l 0 321 l 0 426 m 0 531 l 0 636 l 364 636 l 364 1260 l 469 1260 l 469 636 l 833 636 l 833 531 l 0 531 z "},"╨":{"ha":833,"x_min":0,"x_max":833,"o":"m 0 426 l 0 531 l 259 531 l 259 1260 l 364 1260 l 364 531 l 469 531 l 469 1260 l 574 1260 l 574 531 l 833 531 l 833 426 l 0 426 z "},"╩":{"ha":833,"x_min":0,"x_max":833,"o":"m 0 426 l 833 426 l 833 321 l 0 321 l 0 426 m 0 531 l 0 636 l 259 636 l 259 1260 l 364 1260 l 364 531 l 0 531 m 469 531 l 469 1260 l 574 1260 l 574 636 l 833 636 l 833 531 l 469 531 z "},"╪":{"ha":833,"x_min":0,"x_max":833,"o":"m 0 426 l 364 426 l 364 531 l 0 531 l 0 636 l 364 636 l 364 1260 l 469 1260 l 469 636 l 833 636 l 833 531 l 469 531 l 469 426 l 833 426 l 833 321 l 469 321 l 469 -302 l 364 -302 l 364 321 l 0 321 l 0 426 z "},"╫":{"ha":833,"x_min":0,"x_max":833,"o":"m 0 426 l 0 531 l 259 531 l 259 1260 l 364 1260 l 364 531 l 469 531 l 469 1260 l 574 1260 l 574 531 l 833 531 l 833 426 l 574 426 l 574 -302 l 469 -302 l 469 426 l 364 426 l 364 -302 l 259 -302 l 259 426 l 0 426 z "},"╬":{"ha":833,"x_min":0,"x_max":833,"o":"m 0 426 l 364 426 l 364 -302 l 259 -302 l 259 321 l 0 321 l 0 426 m 0 531 l 0 636 l 259 636 l 259 1260 l 364 1260 l 364 531 l 0 531 m 469 531 l 469 1260 l 574 1260 l 574 636 l 833 636 l 833 531 l 469 531 m 833 426 l 833 321 l 574 321 l 574 -302 l 469 -302 l 469 426 l 833 426 z "},"₣":{"ha":833,"x_min":56,"x_max":681,"o":"m 174 282 l 174 957 l 681 957 l 681 860 l 285 860 l 285 547 l 646 547 l 646 450 l 285 450 l 285 282 l 494 282 l 494 184 l 285 184 l 285 0 l 174 0 l 174 184 l 56 184 l 56 282 l 174 282 z "},"‗":{"ha":833,"x_min":0,"x_max":833,"o":"m 833 -125 l 0 -125 l 0 -36 l 833 -36 l 833 -125 m 833 -302 l 0 -302 l 0 -214 l 833 -214 l 833 -302 z "},"‼":{"ha":833,"x_min":154,"x_max":678,"o":"m 296 646 l 264 288 l 205 288 l 174 646 l 174 957 l 296 957 l 296 646 m 237 155 q 298 131 273 155 q 322 71 322 106 q 297 8 322 35 q 237 -18 273 -18 q 178 8 203 -18 q 154 71 154 34 q 178 131 154 107 q 237 155 202 155 m 652 646 l 620 288 l 562 288 l 530 646 l 530 957 l 652 957 l 652 646 m 593 155 q 654 131 629 155 q 678 71 678 106 q 653 8 678 35 q 593 -18 629 -18 q 534 8 559 -18 q 510 71 510 34 q 534 131 510 107 q 593 155 558 155 z "},"ⁿ":{"ha":833,"x_min":233,"x_max":587,"o":"m 587 355 l 500 355 l 500 627 q 485 695 500 674 q 435 715 471 715 q 319 661 374 715 l 319 355 l 233 355 l 233 779 l 319 779 l 319 717 q 454 789 384 789 q 587 644 587 789 l 587 355 z "},"₧":{"ha":833,"x_min":62,"x_max":800,"o":"m 361 507 l 410 507 l 410 407 l 515 407 l 515 334 l 410 334 l 410 127 q 447 66 410 66 q 533 92 474 66 l 549 25 q 437 -7 487 -7 q 330 113 330 -7 l 330 334 l 262 334 l 262 407 l 330 407 l 330 489 q 180 457 264 457 l 160 457 l 160 0 l 62 0 l 62 957 l 170 957 q 386 893 307 957 q 464 713 464 829 q 361 507 464 577 m 160 549 l 165 549 q 359 711 359 549 q 311 826 359 787 q 171 865 262 865 l 160 865 l 160 549 m 771 334 q 689 350 722 350 q 643 337 660 350 q 627 304 627 325 q 638 276 627 285 q 708 243 650 267 q 800 125 800 205 q 760 29 800 64 q 660 -7 720 -7 q 554 25 605 -7 l 570 96 q 657 66 613 66 q 707 81 688 66 q 726 119 726 96 q 711 156 726 144 q 665 182 696 169 q 591 217 608 205 q 563 250 574 229 q 553 301 553 272 q 590 390 553 357 q 690 422 628 422 q 786 404 724 422 l 771 334 z "},"∩":{"ha":833,"x_min":118,"x_max":715,"o":"m 118 673 q 202 884 118 793 q 416 975 286 975 q 631 886 546 975 q 715 673 715 796 l 715 0 l 627 0 l 627 648 q 568 821 627 755 q 416 886 509 886 q 266 820 324 886 q 207 647 207 754 l 207 0 l 118 0 l 118 673 z "},"≡":{"ha":833,"x_min":96,"x_max":737,"o":"m 737 582 l 96 582 l 96 671 l 737 671 l 737 582 m 737 310 l 96 310 l 96 399 l 737 399 l 737 310 m 737 37 l 96 37 l 96 126 l 737 126 l 737 37 z "},"⌂":{"ha":833,"x_min":110,"x_max":724,"o":"m 724 0 l 110 0 l 110 456 l 415 720 l 724 456 l 724 0 m 199 89 l 635 89 l 635 414 l 415 602 l 199 414 l 199 89 z "},"⌐":{"ha":833,"x_min":96,"x_max":737,"o":"m 737 582 l 184 582 l 184 338 l 96 338 l 96 671 l 737 671 l 737 582 z "},"′":{"ha":833,"x_min":307,"x_max":518,"o":"m 456 772 l 357 607 l 307 628 l 350 780 q 377 854 359 814 l 424 964 l 518 922 l 456 772 z "},"″":{"ha":833,"x_min":182,"x_max":643,"o":"m 581 772 l 482 607 l 432 628 l 475 780 q 502 854 485 814 l 549 964 l 643 922 l 581 772 m 330 772 l 232 607 l 182 628 l 225 780 q 252 854 235 814 l 298 964 l 393 922 l 330 772 z "},"℅":{"ha":833,"x_min":26,"x_max":815,"o":"m 350 557 q 220 511 288 511 q 79 574 132 511 q 26 733 26 636 q 77 897 26 836 q 220 957 127 957 q 342 924 280 957 l 318 860 q 220 885 273 885 q 138 849 164 885 q 113 733 113 814 q 220 583 113 583 q 328 619 269 583 l 350 557 m 668 957 l 232 0 l 153 0 l 587 957 l 668 957 m 623 446 q 764 386 713 446 q 815 222 815 326 q 763 63 815 125 q 623 0 711 0 q 482 62 534 0 q 429 222 429 125 q 480 386 429 326 q 623 446 532 446 m 623 72 q 729 222 729 72 q 703 338 729 302 q 623 374 677 374 q 541 338 567 374 q 515 222 515 302 q 623 72 515 72 z "},"ℓ":{"ha":833,"x_min":183,"x_max":628,"o":"m 404 286 q 442 124 418 180 q 494 68 466 68 q 591 113 532 68 l 619 32 q 496 -28 557 -28 q 376 41 427 -28 q 298 241 326 109 q 211 216 257 227 l 183 298 q 285 329 250 317 q 275 525 275 431 q 329 843 275 723 q 457 964 382 964 q 578 874 528 964 q 628 661 628 784 q 404 286 628 408 m 396 383 q 525 661 525 470 q 506 804 525 745 q 457 864 486 864 q 412 773 431 864 q 392 525 392 683 q 396 383 392 448 z "},"Ǻ":{"ha":833,"x_min":39,"x_max":798,"o":"m 493 929 q 645 465 493 930 l 798 0 l 681 0 l 575 335 l 261 335 l 154 0 l 39 0 l 342 928 q 288 1034 288 969 q 326 1124 288 1086 q 416 1162 363 1162 q 508 1124 469 1162 q 546 1034 546 1086 q 493 929 546 970 m 416 957 q 470 980 448 957 q 493 1034 493 1002 q 470 1087 493 1065 q 416 1109 448 1109 q 363 1087 386 1109 q 340 1034 340 1065 q 363 980 340 1002 q 416 957 385 957 m 543 432 l 418 828 l 293 432 l 543 432 m 599 1382 l 387 1178 l 311 1178 l 446 1382 l 599 1382 z "},"ǻ":{"ha":833,"x_min":146,"x_max":708,"o":"m 708 0 l 603 0 q 590 114 590 43 q 345 -18 500 -18 q 206 38 266 -18 q 146 182 146 94 q 167 274 146 234 q 229 341 188 314 q 328 385 269 369 q 466 407 386 401 l 585 416 l 585 450 q 415 632 585 632 q 314 615 375 632 q 208 574 252 597 l 180 650 q 449 724 325 724 q 690 468 690 724 l 690 164 q 708 0 690 72 m 585 210 l 585 338 q 388 314 441 325 q 296 272 335 302 q 257 189 257 241 q 290 113 257 142 q 375 83 323 83 q 487 117 431 83 q 585 210 543 151 m 607 1257 l 395 1053 l 319 1053 l 454 1257 l 607 1257 m 425 1042 q 516 1003 477 1042 q 554 913 554 965 q 516 822 554 860 q 425 783 477 783 q 334 822 372 783 q 296 913 296 860 q 334 1003 296 965 q 425 1042 372 1042 m 425 836 q 478 859 456 836 q 501 913 501 882 q 478 966 501 943 q 425 989 456 989 q 371 966 394 989 q 349 913 349 943 q 371 859 349 881 q 425 836 393 836 z "},"Ǽ":{"ha":833,"x_min":8,"x_max":802,"o":"m 802 0 l 404 0 l 404 342 l 228 342 l 122 0 l 8 0 l 314 957 l 798 957 l 798 860 l 515 860 l 515 564 l 782 564 l 782 467 l 515 467 l 515 97 l 802 97 l 802 0 m 404 439 l 404 856 l 389 856 l 260 439 l 404 439 m 669 1244 l 458 1040 l 382 1040 l 516 1244 l 669 1244 z "},"ǽ":{"ha":833,"x_min":31,"x_max":804,"o":"m 804 24 q 629 -18 717 -18 q 419 102 487 -18 q 210 -18 330 -18 q 81 36 132 -18 q 31 182 31 91 q 104 339 31 279 q 367 415 177 398 l 367 450 q 336 589 367 546 q 229 632 305 632 q 86 593 176 632 l 58 673 q 262 724 161 724 q 436 643 388 724 q 595 724 498 724 q 747 639 691 724 q 803 390 803 554 l 803 350 l 472 350 l 472 338 q 512 142 472 210 q 629 74 552 74 q 789 109 703 74 l 804 24 m 685 436 q 661 581 685 529 q 595 633 637 633 q 508 581 540 633 q 472 436 476 528 l 685 436 m 367 174 l 367 338 q 199 291 256 331 q 142 189 142 250 q 171 113 142 142 q 241 83 199 83 q 329 119 291 83 q 367 174 367 155 m 593 994 l 382 790 l 306 790 l 440 994 l 593 994 z "},"Ǿ":{"ha":833,"x_min":86,"x_max":745,"o":"m 635 882 q 745 478 745 755 q 661 109 745 237 q 415 -18 576 -18 q 265 18 331 -18 l 224 -79 l 132 -79 l 197 74 q 86 478 86 198 q 170 848 86 720 q 415 975 254 975 q 566 937 500 975 l 610 1042 l 703 1042 l 635 882 m 524 840 q 415 878 477 878 q 258 774 312 878 q 204 478 204 671 q 250 197 204 302 l 524 840 m 307 117 q 415 79 353 79 q 627 478 627 79 q 582 758 627 660 l 307 117 m 618 1244 l 406 1040 l 330 1040 l 465 1244 l 618 1244 z "},"ǿ":{"ha":833,"x_min":98,"x_max":734,"o":"m 604 664 q 734 354 734 563 q 648 84 734 186 q 416 -18 562 -18 q 317 -4 368 -18 l 275 -102 l 183 -102 l 240 32 q 98 354 98 132 q 184 622 98 521 q 416 724 271 724 q 529 705 475 724 l 572 806 l 665 806 l 604 664 m 492 618 q 416 632 454 632 q 264 554 318 632 q 210 353 210 477 q 283 131 210 212 l 492 618 m 354 83 q 416 74 386 74 q 568 155 513 74 q 624 353 624 237 q 561 564 624 484 l 354 83 m 621 994 l 409 790 l 333 790 l 467 994 l 621 994 z "},"Ẃ":{"ha":833,"x_min":29,"x_max":804,"o":"m 804 957 l 682 0 l 579 0 l 416 539 l 254 0 l 149 0 l 29 957 l 139 957 l 220 179 l 361 650 l 472 650 l 614 178 l 696 957 l 804 957 m 607 1244 l 395 1040 l 319 1040 l 454 1244 l 607 1244 z "},"ẃ":{"ha":833,"x_min":78,"x_max":774,"o":"m 774 707 l 672 0 l 591 0 l 425 400 l 258 0 l 178 0 l 78 707 l 183 707 q 241 187 239 212 l 371 494 l 479 494 l 608 189 l 665 707 l 774 707 m 599 994 l 387 790 l 311 790 l 446 994 l 599 994 z "},"Ỳ":{"ha":833,"x_min":64,"x_max":772,"o":"m 772 957 l 473 410 l 473 0 l 363 0 l 363 410 l 64 957 l 189 957 l 418 526 l 647 957 l 772 957 m 562 1040 l 485 1040 l 274 1244 l 427 1244 l 562 1040 z "},"ỳ":{"ha":833,"x_min":79,"x_max":722,"o":"m 722 707 l 454 0 q 339 -218 396 -156 q 208 -279 281 -279 q 79 -256 143 -279 l 97 -171 q 189 -187 149 -187 q 283 -143 246 -187 q 357 1 319 -99 l 92 707 l 207 707 l 407 143 l 607 707 l 722 707 m 551 790 l 474 790 l 263 994 l 416 994 l 551 790 z "},"‛":{"ha":833,"x_min":321,"x_max":494,"o":"m 494 711 l 468 663 q 321 869 321 737 q 349 944 321 913 q 414 975 376 975 q 470 951 448 975 q 493 893 493 928 q 470 836 493 861 q 411 807 447 811 q 494 711 411 752 z "},"‾":{"ha":833,"x_min":132,"x_max":703,"o":"m 703 869 l 132 869 l 132 957 l 703 957 l 703 869 z "},"₤":{"ha":833,"x_min":110,"x_max":754,"o":"m 243 440 l 243 525 l 110 525 l 110 615 l 243 615 l 243 633 q 309 890 243 806 q 510 974 374 974 q 690 937 608 974 l 665 847 q 511 876 587 876 q 392 818 429 876 q 354 632 354 760 l 354 615 l 525 615 l 525 525 l 354 525 l 354 440 l 525 440 l 525 350 l 354 350 l 354 293 q 313 171 354 214 q 466 127 376 171 q 586 92 542 92 q 754 167 668 92 l 754 53 q 579 -14 676 -14 q 441 27 526 -14 q 318 65 363 65 q 143 -7 232 65 l 143 100 q 231 200 219 158 q 243 281 243 243 l 243 350 l 110 350 l 110 440 l 243 440 z "},"⅛":{"ha":833,"x_min":39,"x_max":806,"o":"m 321 473 l 39 473 l 39 547 l 140 547 l 140 864 l 45 817 l 45 900 l 160 957 l 227 957 l 227 547 l 321 547 l 321 473 m 675 957 l 239 0 l 160 0 l 595 957 l 675 957 m 725 261 q 806 140 806 222 q 758 31 806 71 q 640 -9 711 -9 q 520 31 568 -9 q 473 138 473 72 q 555 260 473 220 q 492 359 492 295 q 532 448 492 409 q 639 486 572 486 q 748 448 705 486 q 790 359 790 410 q 725 261 790 299 m 637 298 q 703 359 703 317 q 684 400 703 382 q 639 417 665 417 q 596 400 615 417 q 578 359 578 382 q 637 298 578 317 m 639 228 q 562 136 562 205 q 586 83 562 104 q 640 62 610 62 q 694 82 671 62 q 717 136 717 103 q 639 228 717 203 z "},"⅜":{"ha":833,"x_min":40,"x_max":806,"o":"m 234 729 q 308 691 278 722 q 338 619 338 660 q 285 509 338 554 q 158 464 231 464 q 40 497 96 464 l 58 567 q 161 539 115 539 q 223 561 197 539 q 250 615 250 582 q 221 670 250 649 q 145 692 193 692 l 115 692 l 115 761 l 134 761 q 210 780 180 761 q 240 833 240 800 q 163 888 240 888 q 68 864 127 888 l 56 936 q 166 961 115 961 q 283 925 237 961 q 329 835 329 890 q 303 770 329 798 q 234 730 277 741 l 234 729 m 675 957 l 239 0 l 160 0 l 595 957 l 675 957 m 725 264 q 806 143 806 224 q 758 34 806 74 q 640 -7 711 -7 q 520 34 568 -7 q 473 140 473 75 q 555 262 473 223 q 492 361 492 298 q 532 450 492 412 q 639 489 572 489 q 748 451 705 489 q 790 361 790 412 q 725 264 790 302 m 637 300 q 703 361 703 320 q 684 402 703 385 q 639 420 665 420 q 596 402 615 420 q 578 361 578 385 q 637 300 578 319 m 639 231 q 562 139 562 208 q 586 85 562 106 q 640 64 610 64 q 694 85 671 64 q 717 139 717 106 q 639 231 717 206 z "},"⅝":{"ha":833,"x_min":46,"x_max":803,"o":"m 146 775 q 176 778 162 778 q 295 735 252 778 q 338 629 338 693 q 288 515 338 562 q 165 468 238 468 q 46 494 100 468 l 62 566 q 167 542 123 542 q 227 565 204 542 q 249 629 249 587 q 228 687 249 667 q 174 708 208 708 q 119 697 139 708 l 69 718 l 69 957 l 315 957 l 315 884 l 146 884 l 146 775 m 675 957 l 239 0 l 160 0 l 595 957 l 675 957 m 722 261 q 803 140 803 222 q 755 31 803 71 q 637 -9 708 -9 q 518 31 565 -9 q 471 138 471 72 q 553 260 471 220 q 489 359 489 295 q 529 448 489 409 q 636 486 569 486 q 745 448 703 486 q 787 359 787 410 q 722 261 787 299 m 635 298 q 700 359 700 317 q 681 400 700 382 q 636 417 662 417 q 594 400 612 417 q 575 359 575 382 q 635 298 575 317 m 636 228 q 559 136 559 205 q 584 83 559 104 q 637 62 608 62 q 691 82 669 62 q 714 136 714 103 q 636 228 714 203 z "},"⅞":{"ha":833,"x_min":83,"x_max":803,"o":"m 396 903 l 200 478 l 118 478 l 306 884 l 83 884 l 83 957 l 396 957 l 396 903 m 675 957 l 239 0 l 160 0 l 595 957 l 675 957 m 722 264 q 803 143 803 224 q 755 34 803 74 q 637 -7 708 -7 q 518 34 565 -7 q 471 140 471 75 q 553 262 471 223 q 489 361 489 298 q 529 450 489 412 q 636 489 569 489 q 745 451 703 489 q 787 361 787 412 q 722 264 787 302 m 635 300 q 700 361 700 320 q 681 402 700 385 q 636 420 662 420 q 594 402 612 420 q 575 361 575 385 q 635 300 575 319 m 636 231 q 559 139 559 208 q 584 85 559 106 q 637 64 608 64 q 691 85 669 64 q 714 139 714 106 q 636 231 714 206 z "},"―":{"ha":833,"x_min":54,"x_max":779,"o":"m 779 330 l 54 330 l 54 433 l 779 433 l 779 330 z "},"№":{"ha":833,"x_min":33,"x_max":806,"o":"m 444 0 l 321 0 l 113 790 q 127 522 127 605 l 126 0 l 33 0 l 33 957 l 157 957 l 367 168 q 353 475 353 376 l 353 957 l 444 957 l 444 0 m 644 703 q 766 650 726 703 q 806 482 806 597 q 769 317 806 375 q 644 258 732 258 q 523 311 562 258 q 484 482 484 363 q 523 651 484 599 q 644 703 562 703 m 644 329 q 695 358 679 329 q 711 481 711 387 q 695 603 711 574 q 644 632 679 632 q 594 603 610 632 q 578 481 578 574 q 594 358 578 387 q 644 329 610 329 m 785 113 l 504 113 l 504 201 l 785 201 l 785 113 z "},"←":{"ha":833,"x_min":1,"x_max":832,"o":"m 183 385 l 216 385 q 178 313 191 333 q 131 250 165 292 l 832 250 l 832 205 l 131 205 q 218 69 176 157 l 184 69 q 86 165 127 132 q 1 218 45 198 l 1 239 q 183 385 81 273 z "},"↑":{"ha":833,"x_min":258,"x_max":574,"o":"m 258 407 q 405 589 371 511 l 425 589 q 479 504 446 545 q 574 407 511 463 l 574 372 q 439 459 486 414 l 439 -189 l 394 -189 l 394 460 q 332 413 353 427 q 258 374 311 399 l 258 407 z "},"→":{"ha":833,"x_min":1,"x_max":832,"o":"m 650 385 q 832 239 752 273 l 832 218 q 747 165 788 198 q 650 69 706 132 l 616 69 q 703 205 657 157 l 1 205 l 1 250 l 703 250 q 656 312 669 291 q 616 385 643 334 l 650 385 z "},"↓":{"ha":833,"x_min":258,"x_max":574,"o":"m 258 -7 l 258 26 q 332 -13 311 1 q 394 -60 353 -26 l 394 589 l 439 589 l 439 -59 q 574 28 486 -14 l 574 -7 q 479 -104 511 -63 q 425 -189 446 -145 l 405 -189 q 258 -7 370 -109 z "},"↔":{"ha":833,"x_min":1,"x_max":832,"o":"m 832 237 l 832 218 q 751 166 791 199 q 653 70 710 134 l 618 70 q 703 206 648 145 l 130 206 q 215 70 185 145 l 180 70 q 82 166 123 134 q 1 218 42 199 l 1 237 q 82 288 43 256 q 180 386 121 319 l 215 386 q 130 249 184 310 l 703 249 q 618 386 649 310 l 653 386 q 751 288 712 319 q 832 237 791 256 z "},"↕":{"ha":833,"x_min":258,"x_max":574,"o":"m 406 643 l 427 643 q 574 465 465 560 l 574 429 q 438 515 500 459 l 438 -59 q 574 26 499 -4 l 574 -9 q 427 -188 465 -104 l 406 -188 q 355 -106 387 -146 q 258 -9 323 -66 l 258 26 q 395 -59 334 -5 l 395 515 q 258 429 333 459 l 258 465 q 355 562 323 522 q 406 643 387 602 z "},"↨":{"ha":833,"x_min":258,"x_max":574,"o":"m 406 643 l 427 643 q 574 465 465 560 l 574 429 q 438 515 500 459 l 438 -59 q 574 26 499 -4 l 574 -9 q 427 -188 465 -104 l 406 -188 q 355 -106 387 -146 q 258 -9 323 -66 l 258 26 q 395 -59 334 -5 l 395 515 q 258 429 333 459 l 258 465 q 355 562 323 522 q 406 643 387 602 m 259 -230 l 574 -230 l 574 -273 l 259 -273 l 259 -230 z "},"∟":{"ha":833,"x_min":1,"x_max":832,"o":"m 1 829 l 66 829 l 66 64 l 832 64 l 832 0 l 1 0 l 1 829 z "},"⌠":{"ha":833,"x_min":367,"x_max":660,"o":"m 467 -302 l 367 -302 l 367 945 q 423 1161 367 1078 q 566 1244 479 1244 q 634 1223 609 1244 q 660 1170 660 1202 q 643 1125 660 1143 q 600 1107 625 1107 q 562 1118 579 1107 q 535 1147 562 1118 q 502 1174 511 1174 q 471 1147 477 1174 q 467 1053 467 1124 l 467 -302 z "},"⌡":{"ha":833,"x_min":174,"x_max":467,"o":"m 367 1260 l 467 1260 l 467 13 q 406 -211 467 -127 q 267 -286 351 -286 q 200 -266 226 -286 q 174 -212 174 -245 q 191 -168 174 -185 q 233 -150 208 -150 q 273 -161 254 -150 q 300 -192 278 -164 q 332 -216 320 -216 q 362 -189 357 -216 q 367 -96 367 -165 l 367 1260 z "},"▀":{"ha":833,"x_min":0,"x_max":833,"o":"m 0 479 l 0 1260 l 833 1260 l 833 479 l 0 479 z "},"▄":{"ha":833,"x_min":0,"x_max":833,"o":"m 0 -302 l 0 479 l 833 479 l 833 -302 l 0 -302 z "},"█":{"ha":833,"x_min":0,"x_max":833,"o":"m 0 -302 l 0 1260 l 833 1260 l 833 -302 l 0 -302 z "},"▌":{"ha":833,"x_min":0,"x_max":417,"o":"m 0 -302 l 0 1260 l 417 1260 l 417 -302 l 0 -302 z "},"▐":{"ha":833,"x_min":417,"x_max":833,"o":"m 833 -302 l 417 -302 l 417 1260 l 833 1260 l 833 -302 z "},"░":{"ha":833,"x_min":0,"x_max":833,"o":"m 69 1010 l 139 1010 l 139 944 l 69 944 l 69 1010 m 347 1010 l 417 1010 l 417 944 l 347 944 l 347 1010 m 625 1010 l 695 1010 l 695 944 l 625 944 l 625 1010 m 208 878 l 278 878 l 278 813 l 208 813 l 208 878 m 486 878 l 556 878 l 556 813 l 486 813 l 486 878 m 764 878 l 833 878 l 833 813 l 764 813 l 764 878 m 625 747 l 695 747 l 695 682 l 625 682 l 625 747 m 347 747 l 417 747 l 417 682 l 347 682 l 347 747 m 69 747 l 139 747 l 139 682 l 69 682 l 69 747 m 764 616 l 833 616 l 833 551 l 764 551 l 764 616 m 486 616 l 556 616 l 556 551 l 486 551 l 486 616 m 208 616 l 278 616 l 278 551 l 208 551 l 208 616 m 69 485 l 139 485 l 139 420 l 69 420 l 69 485 m 347 485 l 417 485 l 417 420 l 347 420 l 347 485 m 625 485 l 695 485 l 695 420 l 625 420 l 625 485 m 764 354 l 833 354 l 833 289 l 764 289 l 764 354 m 486 354 l 556 354 l 556 289 l 486 289 l 486 354 m 208 354 l 278 354 l 278 289 l 208 289 l 208 354 m 69 223 l 139 223 l 139 157 l 69 157 l 69 223 m 347 223 l 417 223 l 417 157 l 347 157 l 347 223 m 625 223 l 695 223 l 695 157 l 625 157 l 625 223 m 208 92 l 278 92 l 278 26 l 208 26 l 208 92 m 486 92 l 556 92 l 556 26 l 486 26 l 486 92 m 764 92 l 833 92 l 833 26 l 764 26 l 764 92 m 625 -39 l 695 -39 l 695 -105 l 625 -105 l 625 -39 m 347 -39 l 417 -39 l 417 -105 l 347 -105 l 347 -39 m 69 -39 l 139 -39 l 139 -105 l 69 -105 l 69 -39 m 208 -170 l 278 -170 l 278 -236 l 208 -236 l 208 -170 m 486 -170 l 556 -170 l 556 -236 l 486 -236 l 486 -170 m 764 -170 l 833 -170 l 833 -236 l 764 -236 l 764 -170 m 0 -302 m 208 1141 l 278 1141 l 278 1075 l 208 1075 l 208 1141 m 486 1141 l 556 1141 l 556 1075 l 486 1075 l 486 1141 m 764 1141 l 833 1141 l 833 1075 l 764 1075 l 764 1141 m 69 1271 l 139 1271 l 139 1206 l 69 1206 l 69 1271 m 347 1271 l 417 1271 l 417 1206 l 347 1206 l 347 1271 m 625 1271 l 695 1271 l 695 1206 l 625 1206 l 625 1271 z "}}}
